<mxfile host="app.diagrams.net" modified="2022-05-12T04:23:39.229Z" agent="5.0 (Windows NT 10.0; Win64; x64) AppleWebKit/537.36 (KHTML, like Gecko) Chrome/101.0.4951.54 Safari/537.36" etag="CXOwusfLkGOS1fSbT84h" version="18.0.3" type="github">
  <diagram id="C5RBs43oDa-KdzZeNtuy" name="Page-1">
    <mxGraphModel dx="5155" dy="1885" grid="1" gridSize="10" guides="1" tooltips="1" connect="1" arrows="1" fold="1" page="1" pageScale="1" pageWidth="4600" pageHeight="3000" math="0" shadow="0">
      <root>
        <mxCell id="WIyWlLk6GJQsqaUBKTNV-0" />
        <mxCell id="WIyWlLk6GJQsqaUBKTNV-1" parent="WIyWlLk6GJQsqaUBKTNV-0" />
        <mxCell id="Qcm55Ra_ggKID3NvQQV0-2" value="" style="rounded=1;whiteSpace=wrap;html=1;dashed=1;" vertex="1" parent="WIyWlLk6GJQsqaUBKTNV-1">
          <mxGeometry x="1651" y="2312" width="374" height="167" as="geometry" />
        </mxCell>
        <mxCell id="DC-7fMDGKw9MtQms55Px-2" value="BaseAuditing" style="swimlane;fontStyle=2;childLayout=stackLayout;horizontal=1;startSize=26;fillColor=#fff2cc;horizontalStack=0;resizeParent=1;resizeParentMax=0;resizeLast=0;collapsible=1;marginBottom=0;strokeColor=#d6b656;" parent="WIyWlLk6GJQsqaUBKTNV-1" vertex="1">
          <mxGeometry x="1715" y="1513" width="320" height="156" as="geometry" />
        </mxCell>
        <mxCell id="DC-7fMDGKw9MtQms55Px-18" value="- lastModifer: String    最后修改者（用户名）" style="text;align=left;verticalAlign=top;spacingLeft=4;spacingRight=4;overflow=hidden;rotatable=0;points=[[0,0.5],[1,0.5]];portConstraint=eastwest;rounded=0;shadow=0;html=0;" parent="DC-7fMDGKw9MtQms55Px-2" vertex="1">
          <mxGeometry y="26" width="320" height="26" as="geometry" />
        </mxCell>
        <mxCell id="DC-7fMDGKw9MtQms55Px-17" value="- lastModifiedTime: ZonedDateTime    最后修改时间" style="text;align=left;verticalAlign=top;spacingLeft=4;spacingRight=4;overflow=hidden;rotatable=0;points=[[0,0.5],[1,0.5]];portConstraint=eastwest;rounded=0;shadow=0;html=0;" parent="DC-7fMDGKw9MtQms55Px-2" vertex="1">
          <mxGeometry y="52" width="320" height="26" as="geometry" />
        </mxCell>
        <mxCell id="DC-7fMDGKw9MtQms55Px-16" value="- creator: String    创建者（用户名）" style="text;align=left;verticalAlign=top;spacingLeft=4;spacingRight=4;overflow=hidden;rotatable=0;points=[[0,0.5],[1,0.5]];portConstraint=eastwest;rounded=0;shadow=0;html=0;" parent="DC-7fMDGKw9MtQms55Px-2" vertex="1">
          <mxGeometry y="78" width="320" height="26" as="geometry" />
        </mxCell>
        <mxCell id="DC-7fMDGKw9MtQms55Px-15" value="- createdTime: ZonedDateTime    创建时间" style="text;align=left;verticalAlign=top;spacingLeft=4;spacingRight=4;overflow=hidden;rotatable=0;points=[[0,0.5],[1,0.5]];portConstraint=eastwest;rounded=0;shadow=0;html=0;" parent="DC-7fMDGKw9MtQms55Px-2" vertex="1">
          <mxGeometry y="104" width="320" height="26" as="geometry" />
        </mxCell>
        <mxCell id="DC-7fMDGKw9MtQms55Px-14" value="- version: Long    版本" style="text;align=left;verticalAlign=top;spacingLeft=4;spacingRight=4;overflow=hidden;rotatable=0;points=[[0,0.5],[1,0.5]];portConstraint=eastwest;" parent="DC-7fMDGKw9MtQms55Px-2" vertex="1">
          <mxGeometry y="130" width="320" height="26" as="geometry" />
        </mxCell>
        <mxCell id="DC-7fMDGKw9MtQms55Px-19" value="ID" style="swimlane;fontStyle=0;childLayout=stackLayout;horizontal=1;startSize=26;fillColor=#dae8fc;horizontalStack=0;resizeParent=1;resizeParentMax=0;resizeLast=0;collapsible=1;marginBottom=0;strokeColor=#6c8ebf;" parent="WIyWlLk6GJQsqaUBKTNV-1" vertex="1">
          <mxGeometry x="320" y="280" width="140" height="52" as="geometry">
            <mxRectangle x="1180" y="750" width="70" height="26" as="alternateBounds" />
          </mxGeometry>
        </mxCell>
        <mxCell id="DC-7fMDGKw9MtQms55Px-20" value="- value: Long    数据库ID" style="text;strokeColor=none;fillColor=none;align=left;verticalAlign=top;spacingLeft=4;spacingRight=4;overflow=hidden;rotatable=0;points=[[0,0.5],[1,0.5]];portConstraint=eastwest;" parent="DC-7fMDGKw9MtQms55Px-19" vertex="1">
          <mxGeometry y="26" width="140" height="26" as="geometry" />
        </mxCell>
        <mxCell id="Hxi5oiMrbfGEEpM-4Bx1-7" style="edgeStyle=none;rounded=0;orthogonalLoop=1;jettySize=auto;html=1;endArrow=block;endFill=0;" parent="WIyWlLk6GJQsqaUBKTNV-1" source="DC-7fMDGKw9MtQms55Px-23" target="DC-7fMDGKw9MtQms55Px-2" edge="1">
          <mxGeometry relative="1" as="geometry" />
        </mxCell>
        <mxCell id="-mcRDKc0zju_STvuJ2zb-1" value="Extends" style="edgeLabel;html=1;align=center;verticalAlign=middle;resizable=0;points=[];" parent="Hxi5oiMrbfGEEpM-4Bx1-7" vertex="1" connectable="0">
          <mxGeometry x="-0.2704" y="2" relative="1" as="geometry">
            <mxPoint as="offset" />
          </mxGeometry>
        </mxCell>
        <mxCell id="DC-7fMDGKw9MtQms55Px-23" value="BaseEntity" style="swimlane;fontStyle=2;childLayout=stackLayout;horizontal=1;startSize=26;fillColor=#fff2cc;horizontalStack=0;resizeParent=1;resizeParentMax=0;resizeLast=0;collapsible=1;marginBottom=0;strokeColor=#d6b656;" parent="WIyWlLk6GJQsqaUBKTNV-1" vertex="1">
          <mxGeometry x="2185" y="1599" width="560" height="52" as="geometry" />
        </mxCell>
        <mxCell id="DC-7fMDGKw9MtQms55Px-24" value="- id: ID    实体ID" style="text;strokeColor=none;fillColor=none;align=left;verticalAlign=top;spacingLeft=4;spacingRight=4;overflow=hidden;rotatable=0;points=[[0,0.5],[1,0.5]];portConstraint=eastwest;" parent="DC-7fMDGKw9MtQms55Px-23" vertex="1">
          <mxGeometry y="26" width="560" height="26" as="geometry" />
        </mxCell>
        <mxCell id="DC-7fMDGKw9MtQms55Px-32" value="Project" style="swimlane;fontStyle=0;childLayout=stackLayout;horizontal=1;startSize=26;fillColor=#e1d5e7;horizontalStack=0;resizeParent=1;resizeParentMax=0;resizeLast=0;collapsible=1;marginBottom=0;strokeColor=#9673a6;" parent="WIyWlLk6GJQsqaUBKTNV-1" vertex="1">
          <mxGeometry x="3855" y="1456.0000000000002" width="320" height="608" as="geometry" />
        </mxCell>
        <mxCell id="DC-7fMDGKw9MtQms55Px-33" value="- name: String    项目名称" style="text;strokeColor=none;fillColor=none;align=left;verticalAlign=top;spacingLeft=4;spacingRight=4;overflow=hidden;rotatable=0;points=[[0,0.5],[1,0.5]];portConstraint=eastwest;" parent="DC-7fMDGKw9MtQms55Px-32" vertex="1">
          <mxGeometry y="26" width="320" height="24" as="geometry" />
        </mxCell>
        <mxCell id="DC-7fMDGKw9MtQms55Px-34" value="- description: String    描述" style="text;strokeColor=none;fillColor=none;align=left;verticalAlign=top;spacingLeft=4;spacingRight=4;overflow=hidden;rotatable=0;points=[[0,0.5],[1,0.5]];portConstraint=eastwest;" parent="DC-7fMDGKw9MtQms55Px-32" vertex="1">
          <mxGeometry y="50" width="320" height="26" as="geometry" />
        </mxCell>
        <mxCell id="DC-7fMDGKw9MtQms55Px-47" value="- content: String    项目内容" style="text;strokeColor=none;fillColor=none;align=left;verticalAlign=top;spacingLeft=4;spacingRight=4;overflow=hidden;rotatable=0;points=[[0,0.5],[1,0.5]];portConstraint=eastwest;" parent="DC-7fMDGKw9MtQms55Px-32" vertex="1">
          <mxGeometry y="76" width="320" height="26" as="geometry" />
        </mxCell>
        <mxCell id="DC-7fMDGKw9MtQms55Px-35" value="- status: ProjectStatusId    状态Id" style="text;strokeColor=none;fillColor=none;align=left;verticalAlign=top;spacingLeft=4;spacingRight=4;overflow=hidden;rotatable=0;points=[[0,0.5],[1,0.5]];portConstraint=eastwest;fontStyle=1" parent="DC-7fMDGKw9MtQms55Px-32" vertex="1">
          <mxGeometry y="102" width="320" height="24" as="geometry" />
        </mxCell>
        <mxCell id="DC-7fMDGKw9MtQms55Px-36" value="- type: ProjectTypeId    项目类型Id" style="text;strokeColor=none;fillColor=none;align=left;verticalAlign=top;spacingLeft=4;spacingRight=4;overflow=hidden;rotatable=0;points=[[0,0.5],[1,0.5]];portConstraint=eastwest;fontStyle=1" parent="DC-7fMDGKw9MtQms55Px-32" vertex="1">
          <mxGeometry y="126" width="320" height="26" as="geometry" />
        </mxCell>
        <mxCell id="DC-7fMDGKw9MtQms55Px-46" value="- category: ProjectCategoryId    项目类别Id" style="text;strokeColor=none;fillColor=none;align=left;verticalAlign=top;spacingLeft=4;spacingRight=4;overflow=hidden;rotatable=0;points=[[0,0.5],[1,0.5]];portConstraint=eastwest;fontStyle=1" parent="DC-7fMDGKw9MtQms55Px-32" vertex="1">
          <mxGeometry y="152" width="320" height="26" as="geometry" />
        </mxCell>
        <mxCell id="DC-7fMDGKw9MtQms55Px-54" value="- currency: Currency    币种" style="text;strokeColor=none;fillColor=none;align=left;verticalAlign=top;spacingLeft=4;spacingRight=4;overflow=hidden;rotatable=0;points=[[0,0.5],[1,0.5]];portConstraint=eastwest;" parent="DC-7fMDGKw9MtQms55Px-32" vertex="1">
          <mxGeometry y="178" width="320" height="26" as="geometry" />
        </mxCell>
        <mxCell id="DC-7fMDGKw9MtQms55Px-40" value="- urgency: UrgencyId    紧急程度Id" style="text;strokeColor=none;fillColor=none;align=left;verticalAlign=top;spacingLeft=4;spacingRight=4;overflow=hidden;rotatable=0;points=[[0,0.5],[1,0.5]];portConstraint=eastwest;fontStyle=1" parent="DC-7fMDGKw9MtQms55Px-32" vertex="1">
          <mxGeometry y="204" width="320" height="26" as="geometry" />
        </mxCell>
        <mxCell id="DC-7fMDGKw9MtQms55Px-38" value="- securityLevel: SecurityLevelId    安全级别Id" style="text;strokeColor=none;fillColor=none;align=left;verticalAlign=top;spacingLeft=4;spacingRight=4;overflow=hidden;rotatable=0;points=[[0,0.5],[1,0.5]];portConstraint=eastwest;fontStyle=1" parent="DC-7fMDGKw9MtQms55Px-32" vertex="1">
          <mxGeometry y="230" width="320" height="26" as="geometry" />
        </mxCell>
        <mxCell id="DC-7fMDGKw9MtQms55Px-39" value="- priority: PriorityId    优先级Id" style="text;strokeColor=none;fillColor=none;align=left;verticalAlign=top;spacingLeft=4;spacingRight=4;overflow=hidden;rotatable=0;points=[[0,0.5],[1,0.5]];portConstraint=eastwest;fontStyle=1" parent="DC-7fMDGKw9MtQms55Px-32" vertex="1">
          <mxGeometry y="256" width="320" height="26" as="geometry" />
        </mxCell>
        <mxCell id="fS97ZJNERADpUr7Fis6X-24" value="- owner: UserId    项目负责人" style="text;strokeColor=none;fillColor=none;align=left;verticalAlign=top;spacingLeft=4;spacingRight=4;overflow=hidden;rotatable=0;points=[[0,0.5],[1,0.5]];portConstraint=eastwest;fontStyle=1" parent="DC-7fMDGKw9MtQms55Px-32" vertex="1">
          <mxGeometry y="282" width="320" height="26" as="geometry" />
        </mxCell>
        <mxCell id="DC-7fMDGKw9MtQms55Px-52" value="- options: ProjectOptions    项目选项" style="text;strokeColor=none;fillColor=none;align=left;verticalAlign=top;spacingLeft=4;spacingRight=4;overflow=hidden;rotatable=0;points=[[0,0.5],[1,0.5]];portConstraint=eastwest;" parent="DC-7fMDGKw9MtQms55Px-32" vertex="1">
          <mxGeometry y="308" width="320" height="24" as="geometry" />
        </mxCell>
        <mxCell id="DC-7fMDGKw9MtQms55Px-44" value="- plannedBudget: BigDecimal    项目预算" style="text;strokeColor=none;fillColor=none;align=left;verticalAlign=top;spacingLeft=4;spacingRight=4;overflow=hidden;rotatable=0;points=[[0,0.5],[1,0.5]];portConstraint=eastwest;" parent="DC-7fMDGKw9MtQms55Px-32" vertex="1">
          <mxGeometry y="332" width="320" height="26" as="geometry" />
        </mxCell>
        <mxCell id="DC-7fMDGKw9MtQms55Px-43" value="- actualBudget: BigDecimal    实际费用" style="text;strokeColor=none;fillColor=none;align=left;verticalAlign=top;spacingLeft=4;spacingRight=4;overflow=hidden;rotatable=0;points=[[0,0.5],[1,0.5]];portConstraint=eastwest;" parent="DC-7fMDGKw9MtQms55Px-32" vertex="1">
          <mxGeometry y="358" width="320" height="26" as="geometry" />
        </mxCell>
        <mxCell id="DC-7fMDGKw9MtQms55Px-42" value="- plannedStartTime: ZonedDateTime    计划开始时间" style="text;strokeColor=none;fillColor=none;align=left;verticalAlign=top;spacingLeft=4;spacingRight=4;overflow=hidden;rotatable=0;points=[[0,0.5],[1,0.5]];portConstraint=eastwest;" parent="DC-7fMDGKw9MtQms55Px-32" vertex="1">
          <mxGeometry y="384" width="320" height="26" as="geometry" />
        </mxCell>
        <mxCell id="DC-7fMDGKw9MtQms55Px-41" value="- plannedFinishTime: ZonedDateTime    计划结束时间" style="text;strokeColor=none;fillColor=none;align=left;verticalAlign=top;spacingLeft=4;spacingRight=4;overflow=hidden;rotatable=0;points=[[0,0.5],[1,0.5]];portConstraint=eastwest;" parent="DC-7fMDGKw9MtQms55Px-32" vertex="1">
          <mxGeometry y="410" width="320" height="24" as="geometry" />
        </mxCell>
        <mxCell id="DC-7fMDGKw9MtQms55Px-37" value="- actualStartTime: ZonedDateTime    实际开始时间" style="text;strokeColor=none;fillColor=none;align=left;verticalAlign=top;spacingLeft=4;spacingRight=4;overflow=hidden;rotatable=0;points=[[0,0.5],[1,0.5]];portConstraint=eastwest;" parent="DC-7fMDGKw9MtQms55Px-32" vertex="1">
          <mxGeometry y="434" width="320" height="24" as="geometry" />
        </mxCell>
        <mxCell id="DC-7fMDGKw9MtQms55Px-45" value="- actualFinishTime: ZonedDateTime    实际结束时间" style="text;strokeColor=none;fillColor=none;align=left;verticalAlign=top;spacingLeft=4;spacingRight=4;overflow=hidden;rotatable=0;points=[[0,0.5],[1,0.5]];portConstraint=eastwest;" parent="DC-7fMDGKw9MtQms55Px-32" vertex="1">
          <mxGeometry y="458" width="320" height="26" as="geometry" />
        </mxCell>
        <mxCell id="DC-7fMDGKw9MtQms55Px-51" value="- actualStartTime: ZonedDateTime    实际开始时间" style="text;strokeColor=none;fillColor=none;align=left;verticalAlign=top;spacingLeft=4;spacingRight=4;overflow=hidden;rotatable=0;points=[[0,0.5],[1,0.5]];portConstraint=eastwest;" parent="DC-7fMDGKw9MtQms55Px-32" vertex="1">
          <mxGeometry y="484" width="320" height="24" as="geometry" />
        </mxCell>
        <mxCell id="DC-7fMDGKw9MtQms55Px-50" value="- plannedDuration: Integer    计划工期" style="text;strokeColor=none;fillColor=none;align=left;verticalAlign=top;spacingLeft=4;spacingRight=4;overflow=hidden;rotatable=0;points=[[0,0.5],[1,0.5]];portConstraint=eastwest;" parent="DC-7fMDGKw9MtQms55Px-32" vertex="1">
          <mxGeometry y="508" width="320" height="24" as="geometry" />
        </mxCell>
        <mxCell id="DC-7fMDGKw9MtQms55Px-49" value="- actualDuration: Integer    实际工期" style="text;strokeColor=none;fillColor=none;align=left;verticalAlign=top;spacingLeft=4;spacingRight=4;overflow=hidden;rotatable=0;points=[[0,0.5],[1,0.5]];portConstraint=eastwest;" parent="DC-7fMDGKw9MtQms55Px-32" vertex="1">
          <mxGeometry y="532" width="320" height="26" as="geometry" />
        </mxCell>
        <mxCell id="DC-7fMDGKw9MtQms55Px-48" value="- actualProgress: Double    实际进度" style="text;strokeColor=none;fillColor=none;align=left;verticalAlign=top;spacingLeft=4;spacingRight=4;overflow=hidden;rotatable=0;points=[[0,0.5],[1,0.5]];portConstraint=eastwest;" parent="DC-7fMDGKw9MtQms55Px-32" vertex="1">
          <mxGeometry y="558" width="320" height="26" as="geometry" />
        </mxCell>
        <mxCell id="DC-7fMDGKw9MtQms55Px-53" value="- extProps: JSONObject    扩展属性" style="text;strokeColor=none;fillColor=none;align=left;verticalAlign=top;spacingLeft=4;spacingRight=4;overflow=hidden;rotatable=0;points=[[0,0.5],[1,0.5]];portConstraint=eastwest;" parent="DC-7fMDGKw9MtQms55Px-32" vertex="1">
          <mxGeometry y="584" width="320" height="24" as="geometry" />
        </mxCell>
        <mxCell id="DC-7fMDGKw9MtQms55Px-56" value="Currency" style="swimlane;fontStyle=0;childLayout=stackLayout;horizontal=1;startSize=26;fillColor=#dae8fc;horizontalStack=0;resizeParent=1;resizeParentMax=0;resizeLast=0;collapsible=1;marginBottom=0;strokeColor=#6c8ebf;" parent="WIyWlLk6GJQsqaUBKTNV-1" vertex="1">
          <mxGeometry x="950" y="280.00000000000045" width="160" height="100" as="geometry" />
        </mxCell>
        <mxCell id="DC-7fMDGKw9MtQms55Px-57" value="- name: String    货币名称" style="text;strokeColor=none;fillColor=none;align=left;verticalAlign=top;spacingLeft=4;spacingRight=4;overflow=hidden;rotatable=0;points=[[0,0.5],[1,0.5]];portConstraint=eastwest;" parent="DC-7fMDGKw9MtQms55Px-56" vertex="1">
          <mxGeometry y="26" width="160" height="24" as="geometry" />
        </mxCell>
        <mxCell id="DC-7fMDGKw9MtQms55Px-58" value="- code: String    货币代码" style="text;strokeColor=none;fillColor=none;align=left;verticalAlign=top;spacingLeft=4;spacingRight=4;overflow=hidden;rotatable=0;points=[[0,0.5],[1,0.5]];portConstraint=eastwest;" parent="DC-7fMDGKw9MtQms55Px-56" vertex="1">
          <mxGeometry y="50" width="160" height="26" as="geometry" />
        </mxCell>
        <mxCell id="DC-7fMDGKw9MtQms55Px-59" value="- symbol: String    货币符号" style="text;strokeColor=none;fillColor=none;align=left;verticalAlign=top;spacingLeft=4;spacingRight=4;overflow=hidden;rotatable=0;points=[[0,0.5],[1,0.5]];portConstraint=eastwest;" parent="DC-7fMDGKw9MtQms55Px-56" vertex="1">
          <mxGeometry y="76" width="160" height="24" as="geometry" />
        </mxCell>
        <mxCell id="DC-7fMDGKw9MtQms55Px-61" value="Abstract Class" style="rounded=1;whiteSpace=wrap;html=1;fillColor=#fff2cc;strokeColor=#d6b656;" parent="WIyWlLk6GJQsqaUBKTNV-1" vertex="1">
          <mxGeometry x="320" y="160" width="100" height="30" as="geometry" />
        </mxCell>
        <mxCell id="DC-7fMDGKw9MtQms55Px-63" value="Entity" style="rounded=1;whiteSpace=wrap;html=1;fillColor=#d5e8d4;strokeColor=#82b366;" parent="WIyWlLk6GJQsqaUBKTNV-1" vertex="1">
          <mxGeometry x="440" y="160" width="100" height="30" as="geometry" />
        </mxCell>
        <mxCell id="DC-7fMDGKw9MtQms55Px-64" value="Aggragate" style="rounded=1;whiteSpace=wrap;html=1;fillColor=#e1d5e7;strokeColor=#9673a6;" parent="WIyWlLk6GJQsqaUBKTNV-1" vertex="1">
          <mxGeometry x="560" y="160" width="100" height="30" as="geometry" />
        </mxCell>
        <mxCell id="DC-7fMDGKw9MtQms55Px-65" value="DP" style="rounded=1;whiteSpace=wrap;html=1;fillColor=#dae8fc;strokeColor=#6c8ebf;" parent="WIyWlLk6GJQsqaUBKTNV-1" vertex="1">
          <mxGeometry x="680" y="160" width="100" height="30" as="geometry" />
        </mxCell>
        <mxCell id="DC-7fMDGKw9MtQms55Px-69" value="Urgency" style="swimlane;fontStyle=0;childLayout=stackLayout;horizontal=1;startSize=26;fillColor=#e1d5e7;horizontalStack=0;resizeParent=1;resizeParentMax=0;resizeLast=0;collapsible=1;marginBottom=0;strokeColor=#9673a6;" parent="WIyWlLk6GJQsqaUBKTNV-1" vertex="1">
          <mxGeometry x="1667" y="2326" width="160" height="50" as="geometry" />
        </mxCell>
        <mxCell id="DC-7fMDGKw9MtQms55Px-75" value="SecurityLevel" style="swimlane;fontStyle=0;childLayout=stackLayout;horizontal=1;startSize=26;fillColor=#e1d5e7;horizontalStack=0;resizeParent=1;resizeParentMax=0;resizeLast=0;collapsible=1;marginBottom=0;strokeColor=#9673a6;" parent="WIyWlLk6GJQsqaUBKTNV-1" vertex="1">
          <mxGeometry x="1847" y="2326" width="160" height="50" as="geometry" />
        </mxCell>
        <mxCell id="DC-7fMDGKw9MtQms55Px-81" value="Priority" style="swimlane;fontStyle=0;childLayout=stackLayout;horizontal=1;startSize=26;fillColor=#e1d5e7;horizontalStack=0;resizeParent=1;resizeParentMax=0;resizeLast=0;collapsible=1;marginBottom=0;strokeColor=#9673a6;" parent="WIyWlLk6GJQsqaUBKTNV-1" vertex="1">
          <mxGeometry x="1847" y="2406" width="160" height="50" as="geometry" />
        </mxCell>
        <mxCell id="DC-7fMDGKw9MtQms55Px-91" style="rounded=0;orthogonalLoop=1;jettySize=auto;html=1;exitX=0.5;exitY=0;exitDx=0;exitDy=0;startArrow=none;startFill=0;endArrow=block;endFill=0;startSize=6;endSize=6;strokeColor=#000000;" parent="WIyWlLk6GJQsqaUBKTNV-1" source="DC-7fMDGKw9MtQms55Px-87" target="DC-7fMDGKw9MtQms55Px-23" edge="1">
          <mxGeometry relative="1" as="geometry">
            <mxPoint x="5735" y="2469" as="targetPoint" />
          </mxGeometry>
        </mxCell>
        <mxCell id="Hxi5oiMrbfGEEpM-4Bx1-25" value="Extends" style="edgeLabel;html=1;align=center;verticalAlign=middle;resizable=0;points=[];" parent="DC-7fMDGKw9MtQms55Px-91" vertex="1" connectable="0">
          <mxGeometry x="-0.3563" relative="1" as="geometry">
            <mxPoint as="offset" />
          </mxGeometry>
        </mxCell>
        <mxCell id="DC-7fMDGKw9MtQms55Px-87" value="BaseCalendar" style="swimlane;fontStyle=2;childLayout=stackLayout;horizontal=1;startSize=26;fillColor=#fff2cc;horizontalStack=0;resizeParent=1;resizeParentMax=0;resizeLast=0;collapsible=1;marginBottom=0;strokeColor=#d6b656;" parent="WIyWlLk6GJQsqaUBKTNV-1" vertex="1">
          <mxGeometry x="3035" y="2088" width="310" height="104" as="geometry" />
        </mxCell>
        <mxCell id="DC-7fMDGKw9MtQms55Px-88" value="- name: String    日历名称" style="text;strokeColor=none;fillColor=none;align=left;verticalAlign=top;spacingLeft=4;spacingRight=4;overflow=hidden;rotatable=0;points=[[0,0.5],[1,0.5]];portConstraint=eastwest;" parent="DC-7fMDGKw9MtQms55Px-87" vertex="1">
          <mxGeometry y="26" width="310" height="26" as="geometry" />
        </mxCell>
        <mxCell id="DC-7fMDGKw9MtQms55Px-90" value="- weeks: List&lt;CalendarWeek&gt;    工作周" style="text;strokeColor=none;fillColor=none;align=left;verticalAlign=top;spacingLeft=4;spacingRight=4;overflow=hidden;rotatable=0;points=[[0,0.5],[1,0.5]];portConstraint=eastwest;" parent="DC-7fMDGKw9MtQms55Px-87" vertex="1">
          <mxGeometry y="52" width="310" height="26" as="geometry" />
        </mxCell>
        <mxCell id="DC-7fMDGKw9MtQms55Px-89" value="- specialDates: List&lt;CalendarSpecialDate&gt;    特殊日期" style="text;strokeColor=none;fillColor=none;align=left;verticalAlign=top;spacingLeft=4;spacingRight=4;overflow=hidden;rotatable=0;points=[[0,0.5],[1,0.5]];portConstraint=eastwest;" parent="DC-7fMDGKw9MtQms55Px-87" vertex="1">
          <mxGeometry y="78" width="310" height="26" as="geometry" />
        </mxCell>
        <mxCell id="qC0AF7DME6TW0aWiBR_m-10" style="rounded=0;orthogonalLoop=1;jettySize=auto;html=1;endArrow=diamondThin;endFill=1;startArrow=open;startFill=0;edgeStyle=orthogonalEdgeStyle;" parent="WIyWlLk6GJQsqaUBKTNV-1" source="DC-7fMDGKw9MtQms55Px-100" target="DC-7fMDGKw9MtQms55Px-87" edge="1">
          <mxGeometry relative="1" as="geometry">
            <Array as="points">
              <mxPoint x="3415" y="2336" />
              <mxPoint x="3415" y="2166" />
            </Array>
            <mxPoint x="3345" y="2166" as="targetPoint" />
          </mxGeometry>
        </mxCell>
        <mxCell id="-mcRDKc0zju_STvuJ2zb-63" style="rounded=0;orthogonalLoop=1;jettySize=auto;html=1;exitX=0.129;exitY=0;exitDx=0;exitDy=0;startArrow=none;startFill=0;endArrow=block;endFill=0;exitPerimeter=0;entryX=0.651;entryY=0.976;entryDx=0;entryDy=0;entryPerimeter=0;" parent="WIyWlLk6GJQsqaUBKTNV-1" source="DC-7fMDGKw9MtQms55Px-100" target="DC-7fMDGKw9MtQms55Px-24" edge="1">
          <mxGeometry relative="1" as="geometry">
            <mxPoint x="2425" y="1657" as="targetPoint" />
          </mxGeometry>
        </mxCell>
        <mxCell id="-mcRDKc0zju_STvuJ2zb-64" value="Extends" style="edgeLabel;html=1;align=center;verticalAlign=middle;resizable=0;points=[];" parent="-mcRDKc0zju_STvuJ2zb-63" vertex="1" connectable="0">
          <mxGeometry x="-0.0672" y="-2" relative="1" as="geometry">
            <mxPoint y="-1" as="offset" />
          </mxGeometry>
        </mxCell>
        <mxCell id="DC-7fMDGKw9MtQms55Px-100" value="CalendarSpecialDate" style="swimlane;fontStyle=0;childLayout=stackLayout;horizontal=1;startSize=26;fillColor=#d5e8d4;horizontalStack=0;resizeParent=1;resizeParentMax=0;resizeLast=0;collapsible=1;marginBottom=0;strokeColor=#82b366;" parent="WIyWlLk6GJQsqaUBKTNV-1" vertex="1">
          <mxGeometry x="3495" y="2167" width="310" height="338" as="geometry" />
        </mxCell>
        <mxCell id="DC-7fMDGKw9MtQms55Px-101" value="- name: String    名称" style="text;strokeColor=none;fillColor=none;align=left;verticalAlign=top;spacingLeft=4;spacingRight=4;overflow=hidden;rotatable=0;points=[[0,0.5],[1,0.5]];portConstraint=eastwest;" parent="DC-7fMDGKw9MtQms55Px-100" vertex="1">
          <mxGeometry y="26" width="310" height="26" as="geometry" />
        </mxCell>
        <mxCell id="DC-7fMDGKw9MtQms55Px-102" value="- fromTime: ZonedDateTime    开始时间" style="text;strokeColor=none;fillColor=none;align=left;verticalAlign=top;spacingLeft=4;spacingRight=4;overflow=hidden;rotatable=0;points=[[0,0.5],[1,0.5]];portConstraint=eastwest;" parent="DC-7fMDGKw9MtQms55Px-100" vertex="1">
          <mxGeometry y="52" width="310" height="26" as="geometry" />
        </mxCell>
        <mxCell id="DC-7fMDGKw9MtQms55Px-103" value="- endTime: ZonedDateTime    结束时间" style="text;strokeColor=none;fillColor=none;align=left;verticalAlign=top;spacingLeft=4;spacingRight=4;overflow=hidden;rotatable=0;points=[[0,0.5],[1,0.5]];portConstraint=eastwest;" parent="DC-7fMDGKw9MtQms55Px-100" vertex="1">
          <mxGeometry y="78" width="310" height="26" as="geometry" />
        </mxCell>
        <mxCell id="qC0AF7DME6TW0aWiBR_m-0" value="- frequency: Integer    出现次数" style="text;strokeColor=none;fillColor=none;align=left;verticalAlign=top;spacingLeft=4;spacingRight=4;overflow=hidden;rotatable=0;points=[[0,0.5],[1,0.5]];portConstraint=eastwest;" parent="DC-7fMDGKw9MtQms55Px-100" vertex="1">
          <mxGeometry y="104" width="310" height="26" as="geometry" />
        </mxCell>
        <mxCell id="qC0AF7DME6TW0aWiBR_m-2" value="- recurrenceType: RecurrenceTypeEnum   出现间隔" style="text;strokeColor=none;fillColor=none;align=left;verticalAlign=top;spacingLeft=4;spacingRight=4;overflow=hidden;rotatable=0;points=[[0,0.5],[1,0.5]];portConstraint=eastwest;" parent="DC-7fMDGKw9MtQms55Px-100" vertex="1">
          <mxGeometry y="130" width="310" height="26" as="geometry" />
        </mxCell>
        <mxCell id="qC0AF7DME6TW0aWiBR_m-1" value="- dayType: DayTypeEnum    日期类型" style="text;strokeColor=none;fillColor=none;align=left;verticalAlign=top;spacingLeft=4;spacingRight=4;overflow=hidden;rotatable=0;points=[[0,0.5],[1,0.5]];portConstraint=eastwest;" parent="DC-7fMDGKw9MtQms55Px-100" vertex="1">
          <mxGeometry y="156" width="310" height="26" as="geometry" />
        </mxCell>
        <mxCell id="qC0AF7DME6TW0aWiBR_m-7" value="- daySet: String    日历周" style="text;strokeColor=none;fillColor=none;align=left;verticalAlign=top;spacingLeft=4;spacingRight=4;overflow=hidden;rotatable=0;points=[[0,0.5],[1,0.5]];portConstraint=eastwest;" parent="DC-7fMDGKw9MtQms55Px-100" vertex="1">
          <mxGeometry y="182" width="310" height="26" as="geometry" />
        </mxCell>
        <mxCell id="qC0AF7DME6TW0aWiBR_m-6" value="- dayOrdinal: DayOrdinalEnum    每个月的第N个星期几" style="text;strokeColor=none;fillColor=none;align=left;verticalAlign=top;spacingLeft=4;spacingRight=4;overflow=hidden;rotatable=0;points=[[0,0.5],[1,0.5]];portConstraint=eastwest;" parent="DC-7fMDGKw9MtQms55Px-100" vertex="1">
          <mxGeometry y="208" width="310" height="26" as="geometry" />
        </mxCell>
        <mxCell id="qC0AF7DME6TW0aWiBR_m-5" value="- monthNumber: Integer    具体月份" style="text;strokeColor=none;fillColor=none;align=left;verticalAlign=top;spacingLeft=4;spacingRight=4;overflow=hidden;rotatable=0;points=[[0,0.5],[1,0.5]];portConstraint=eastwest;" parent="DC-7fMDGKw9MtQms55Px-100" vertex="1">
          <mxGeometry y="234" width="310" height="26" as="geometry" />
        </mxCell>
        <mxCell id="qC0AF7DME6TW0aWiBR_m-4" value="- dayNumber: Integer    具体日期" style="text;strokeColor=none;fillColor=none;align=left;verticalAlign=top;spacingLeft=4;spacingRight=4;overflow=hidden;rotatable=0;points=[[0,0.5],[1,0.5]];portConstraint=eastwest;" parent="DC-7fMDGKw9MtQms55Px-100" vertex="1">
          <mxGeometry y="260" width="310" height="26" as="geometry" />
        </mxCell>
        <mxCell id="qC0AF7DME6TW0aWiBR_m-3" value="- intervalNumber: Integer    间隔数（日间隔、周间隔）" style="text;strokeColor=none;fillColor=none;align=left;verticalAlign=top;spacingLeft=4;spacingRight=4;overflow=hidden;rotatable=0;points=[[0,0.5],[1,0.5]];portConstraint=eastwest;" parent="DC-7fMDGKw9MtQms55Px-100" vertex="1">
          <mxGeometry y="286" width="310" height="26" as="geometry" />
        </mxCell>
        <mxCell id="qC0AF7DME6TW0aWiBR_m-8" value="- calendarTimes: List&lt;CalendarTime&gt;    时间段" style="text;strokeColor=none;fillColor=none;align=left;verticalAlign=top;spacingLeft=4;spacingRight=4;overflow=hidden;rotatable=0;points=[[0,0.5],[1,0.5]];portConstraint=eastwest;" parent="DC-7fMDGKw9MtQms55Px-100" vertex="1">
          <mxGeometry y="312" width="310" height="26" as="geometry" />
        </mxCell>
        <mxCell id="qC0AF7DME6TW0aWiBR_m-17" style="rounded=0;orthogonalLoop=1;jettySize=auto;html=1;startArrow=open;startFill=0;endArrow=diamondThin;endFill=1;edgeStyle=orthogonalEdgeStyle;exitX=0;exitY=0.5;exitDx=0;exitDy=0;" parent="WIyWlLk6GJQsqaUBKTNV-1" source="qC0AF7DME6TW0aWiBR_m-13" target="DC-7fMDGKw9MtQms55Px-100" edge="1">
          <mxGeometry relative="1" as="geometry">
            <Array as="points">
              <mxPoint x="3855" y="2186" />
              <mxPoint x="3855" y="2497" />
            </Array>
            <mxPoint x="3775" y="2186" as="sourcePoint" />
          </mxGeometry>
        </mxCell>
        <mxCell id="qC0AF7DME6TW0aWiBR_m-11" value="CalendarTime" style="swimlane;fontStyle=0;childLayout=stackLayout;horizontal=1;startSize=26;fillColor=#dae8fc;horizontalStack=0;resizeParent=1;resizeParentMax=0;resizeLast=0;collapsible=1;marginBottom=0;strokeColor=#6c8ebf;" parent="WIyWlLk6GJQsqaUBKTNV-1" vertex="1">
          <mxGeometry x="3895" y="2121" width="310" height="130" as="geometry" />
        </mxCell>
        <mxCell id="qC0AF7DME6TW0aWiBR_m-12" value="- dayStage: DayStageEnum 时间段（上午、下午、夜班）" style="text;strokeColor=none;fillColor=none;align=left;verticalAlign=top;spacingLeft=4;spacingRight=4;overflow=hidden;rotatable=0;points=[[0,0.5],[1,0.5]];portConstraint=eastwest;" parent="qC0AF7DME6TW0aWiBR_m-11" vertex="1">
          <mxGeometry y="26" width="310" height="26" as="geometry" />
        </mxCell>
        <mxCell id="qC0AF7DME6TW0aWiBR_m-13" value="- daySet: String    日历周" style="text;strokeColor=none;fillColor=none;align=left;verticalAlign=top;spacingLeft=4;spacingRight=4;overflow=hidden;rotatable=0;points=[[0,0.5],[1,0.5]];portConstraint=eastwest;" parent="qC0AF7DME6TW0aWiBR_m-11" vertex="1">
          <mxGeometry y="52" width="310" height="26" as="geometry" />
        </mxCell>
        <mxCell id="qC0AF7DME6TW0aWiBR_m-14" value="- startTime: LocalTime    开始时间" style="text;strokeColor=none;fillColor=none;align=left;verticalAlign=top;spacingLeft=4;spacingRight=4;overflow=hidden;rotatable=0;points=[[0,0.5],[1,0.5]];portConstraint=eastwest;" parent="qC0AF7DME6TW0aWiBR_m-11" vertex="1">
          <mxGeometry y="78" width="310" height="26" as="geometry" />
        </mxCell>
        <mxCell id="qC0AF7DME6TW0aWiBR_m-15" value="- endTime: LocalTime    结束时间" style="text;strokeColor=none;fillColor=none;align=left;verticalAlign=top;spacingLeft=4;spacingRight=4;overflow=hidden;rotatable=0;points=[[0,0.5],[1,0.5]];portConstraint=eastwest;" parent="qC0AF7DME6TW0aWiBR_m-11" vertex="1">
          <mxGeometry y="104" width="310" height="26" as="geometry" />
        </mxCell>
        <mxCell id="fS97ZJNERADpUr7Fis6X-14" style="rounded=0;orthogonalLoop=1;jettySize=auto;html=1;endArrow=diamondThin;endFill=1;startArrow=open;startFill=0;edgeStyle=orthogonalEdgeStyle;" parent="WIyWlLk6GJQsqaUBKTNV-1" source="fS97ZJNERADpUr7Fis6X-0" target="DC-7fMDGKw9MtQms55Px-87" edge="1">
          <mxGeometry relative="1" as="geometry">
            <Array as="points">
              <mxPoint x="3415" y="1967" />
              <mxPoint x="3415" y="2140" />
            </Array>
            <mxPoint x="3345" y="2140" as="targetPoint" />
          </mxGeometry>
        </mxCell>
        <mxCell id="-mcRDKc0zju_STvuJ2zb-60" style="edgeStyle=none;rounded=0;orthogonalLoop=1;jettySize=auto;html=1;exitX=0.5;exitY=0;exitDx=0;exitDy=0;startArrow=none;startFill=0;endArrow=block;endFill=0;" parent="WIyWlLk6GJQsqaUBKTNV-1" source="fS97ZJNERADpUr7Fis6X-0" target="DC-7fMDGKw9MtQms55Px-23" edge="1">
          <mxGeometry relative="1" as="geometry" />
        </mxCell>
        <mxCell id="-mcRDKc0zju_STvuJ2zb-61" value="Extends" style="edgeLabel;html=1;align=center;verticalAlign=middle;resizable=0;points=[];" parent="-mcRDKc0zju_STvuJ2zb-60" vertex="1" connectable="0">
          <mxGeometry x="0.1578" y="1" relative="1" as="geometry">
            <mxPoint as="offset" />
          </mxGeometry>
        </mxCell>
        <mxCell id="fS97ZJNERADpUr7Fis6X-0" value="CalendarWeek" style="swimlane;fontStyle=0;childLayout=stackLayout;horizontal=1;startSize=26;fillColor=#d5e8d4;horizontalStack=0;resizeParent=1;resizeParentMax=0;resizeLast=0;collapsible=1;marginBottom=0;strokeColor=#82b366;" parent="WIyWlLk6GJQsqaUBKTNV-1" vertex="1">
          <mxGeometry x="3485" y="1899" width="310" height="234" as="geometry" />
        </mxCell>
        <mxCell id="fS97ZJNERADpUr7Fis6X-1" value="- name: String    名称" style="text;strokeColor=none;fillColor=none;align=left;verticalAlign=top;spacingLeft=4;spacingRight=4;overflow=hidden;rotatable=0;points=[[0,0.5],[1,0.5]];portConstraint=eastwest;" parent="fS97ZJNERADpUr7Fis6X-0" vertex="1">
          <mxGeometry y="26" width="310" height="26" as="geometry" />
        </mxCell>
        <mxCell id="fS97ZJNERADpUr7Fis6X-2" value="- fromTime: ZonedDateTime    开始时间" style="text;strokeColor=none;fillColor=none;align=left;verticalAlign=top;spacingLeft=4;spacingRight=4;overflow=hidden;rotatable=0;points=[[0,0.5],[1,0.5]];portConstraint=eastwest;" parent="fS97ZJNERADpUr7Fis6X-0" vertex="1">
          <mxGeometry y="52" width="310" height="26" as="geometry" />
        </mxCell>
        <mxCell id="fS97ZJNERADpUr7Fis6X-3" value="- endTime: ZonedDateTime    结束时间" style="text;strokeColor=none;fillColor=none;align=left;verticalAlign=top;spacingLeft=4;spacingRight=4;overflow=hidden;rotatable=0;points=[[0,0.5],[1,0.5]];portConstraint=eastwest;" parent="fS97ZJNERADpUr7Fis6X-0" vertex="1">
          <mxGeometry y="78" width="310" height="26" as="geometry" />
        </mxCell>
        <mxCell id="fS97ZJNERADpUr7Fis6X-4" value="- frequency: Integer    出现次数" style="text;strokeColor=none;fillColor=none;align=left;verticalAlign=top;spacingLeft=4;spacingRight=4;overflow=hidden;rotatable=0;points=[[0,0.5],[1,0.5]];portConstraint=eastwest;" parent="fS97ZJNERADpUr7Fis6X-0" vertex="1">
          <mxGeometry y="104" width="310" height="26" as="geometry" />
        </mxCell>
        <mxCell id="fS97ZJNERADpUr7Fis6X-6" value="- dayType: DayTypeEnum    日期类型" style="text;strokeColor=none;fillColor=none;align=left;verticalAlign=top;spacingLeft=4;spacingRight=4;overflow=hidden;rotatable=0;points=[[0,0.5],[1,0.5]];portConstraint=eastwest;" parent="fS97ZJNERADpUr7Fis6X-0" vertex="1">
          <mxGeometry y="130" width="310" height="26" as="geometry" />
        </mxCell>
        <mxCell id="fS97ZJNERADpUr7Fis6X-7" value="- daySet: String    日历周" style="text;strokeColor=none;fillColor=none;align=left;verticalAlign=top;spacingLeft=4;spacingRight=4;overflow=hidden;rotatable=0;points=[[0,0.5],[1,0.5]];portConstraint=eastwest;" parent="fS97ZJNERADpUr7Fis6X-0" vertex="1">
          <mxGeometry y="156" width="310" height="26" as="geometry" />
        </mxCell>
        <mxCell id="fS97ZJNERADpUr7Fis6X-11" value="- useDefault: Boolean    默认使用" style="text;strokeColor=none;fillColor=none;align=left;verticalAlign=top;spacingLeft=4;spacingRight=4;overflow=hidden;rotatable=0;points=[[0,0.5],[1,0.5]];portConstraint=eastwest;" parent="fS97ZJNERADpUr7Fis6X-0" vertex="1">
          <mxGeometry y="182" width="310" height="26" as="geometry" />
        </mxCell>
        <mxCell id="fS97ZJNERADpUr7Fis6X-12" value="- calendarTimes: List&lt;CalendarTime&gt;    时间段" style="text;strokeColor=none;fillColor=none;align=left;verticalAlign=top;spacingLeft=4;spacingRight=4;overflow=hidden;rotatable=0;points=[[0,0.5],[1,0.5]];portConstraint=eastwest;" parent="fS97ZJNERADpUr7Fis6X-0" vertex="1">
          <mxGeometry y="208" width="310" height="26" as="geometry" />
        </mxCell>
        <mxCell id="fS97ZJNERADpUr7Fis6X-16" value="Comment" style="swimlane;fontStyle=0;childLayout=stackLayout;horizontal=1;startSize=26;fillColor=#e1d5e7;horizontalStack=0;resizeParent=1;resizeParentMax=0;resizeLast=0;collapsible=1;marginBottom=0;strokeColor=#9673a6;" parent="WIyWlLk6GJQsqaUBKTNV-1" vertex="1">
          <mxGeometry x="1375" y="1695" width="270" height="130" as="geometry" />
        </mxCell>
        <mxCell id="fS97ZJNERADpUr7Fis6X-17" value="- publisher: UserId    评论者用户名" style="text;strokeColor=none;fillColor=none;align=left;verticalAlign=top;spacingLeft=4;spacingRight=4;overflow=hidden;rotatable=0;points=[[0,0.5],[1,0.5]];portConstraint=eastwest;fontStyle=1" parent="fS97ZJNERADpUr7Fis6X-16" vertex="1">
          <mxGeometry y="26" width="270" height="26" as="geometry" />
        </mxCell>
        <mxCell id="fS97ZJNERADpUr7Fis6X-18" value="- content: String    评论内容" style="text;strokeColor=none;fillColor=none;align=left;verticalAlign=top;spacingLeft=4;spacingRight=4;overflow=hidden;rotatable=0;points=[[0,0.5],[1,0.5]];portConstraint=eastwest;" parent="fS97ZJNERADpUr7Fis6X-16" vertex="1">
          <mxGeometry y="52" width="270" height="26" as="geometry" />
        </mxCell>
        <mxCell id="fS97ZJNERADpUr7Fis6X-19" value="- modelType: ModelEnum    评论隶属的对象类型" style="text;strokeColor=none;fillColor=none;align=left;verticalAlign=top;spacingLeft=4;spacingRight=4;overflow=hidden;rotatable=0;points=[[0,0.5],[1,0.5]];portConstraint=eastwest;" parent="fS97ZJNERADpUr7Fis6X-16" vertex="1">
          <mxGeometry y="78" width="270" height="26" as="geometry" />
        </mxCell>
        <mxCell id="fS97ZJNERADpUr7Fis6X-27" value="- modelId: ID    所属对象ID" style="text;strokeColor=none;fillColor=none;align=left;verticalAlign=top;spacingLeft=4;spacingRight=4;overflow=hidden;rotatable=0;points=[[0,0.5],[1,0.5]];portConstraint=eastwest;fontStyle=1" parent="fS97ZJNERADpUr7Fis6X-16" vertex="1">
          <mxGeometry y="104" width="270" height="26" as="geometry" />
        </mxCell>
        <mxCell id="fS97ZJNERADpUr7Fis6X-20" value="UserId" style="swimlane;fontStyle=0;childLayout=stackLayout;horizontal=1;startSize=26;fillColor=#dae8fc;horizontalStack=0;resizeParent=1;resizeParentMax=0;resizeLast=0;collapsible=1;marginBottom=0;strokeColor=#6c8ebf;" parent="WIyWlLk6GJQsqaUBKTNV-1" vertex="1">
          <mxGeometry x="480" y="280" width="140" height="52" as="geometry" />
        </mxCell>
        <mxCell id="fS97ZJNERADpUr7Fis6X-21" value="- value: Long    用户ID" style="text;strokeColor=none;fillColor=none;align=left;verticalAlign=top;spacingLeft=4;spacingRight=4;overflow=hidden;rotatable=0;points=[[0,0.5],[1,0.5]];portConstraint=eastwest;" parent="fS97ZJNERADpUr7Fis6X-20" vertex="1">
          <mxGeometry y="26" width="140" height="26" as="geometry" />
        </mxCell>
        <mxCell id="fS97ZJNERADpUr7Fis6X-28" style="rounded=0;orthogonalLoop=1;jettySize=auto;html=1;startArrow=none;startFill=0;endArrow=block;endFill=0;entryX=0.116;entryY=1.045;entryDx=0;entryDy=0;entryPerimeter=0;" parent="WIyWlLk6GJQsqaUBKTNV-1" source="fS97ZJNERADpUr7Fis6X-16" target="DC-7fMDGKw9MtQms55Px-24" edge="1">
          <mxGeometry relative="1" as="geometry">
            <mxPoint x="5835" y="2212" as="targetPoint" />
          </mxGeometry>
        </mxCell>
        <mxCell id="Hxi5oiMrbfGEEpM-4Bx1-10" value="Extends" style="edgeLabel;html=1;align=center;verticalAlign=middle;resizable=0;points=[];" parent="fS97ZJNERADpUr7Fis6X-28" vertex="1" connectable="0">
          <mxGeometry x="-0.0778" y="-1" relative="1" as="geometry">
            <mxPoint as="offset" />
          </mxGeometry>
        </mxCell>
        <mxCell id="fS97ZJNERADpUr7Fis6X-39" style="rounded=0;orthogonalLoop=1;jettySize=auto;html=1;startArrow=none;startFill=0;endArrow=block;endFill=0;entryX=0.278;entryY=1.071;entryDx=0;entryDy=0;entryPerimeter=0;" parent="WIyWlLk6GJQsqaUBKTNV-1" source="fS97ZJNERADpUr7Fis6X-30" target="DC-7fMDGKw9MtQms55Px-24" edge="1">
          <mxGeometry relative="1" as="geometry">
            <mxPoint x="1835" y="1827" as="targetPoint" />
          </mxGeometry>
        </mxCell>
        <mxCell id="-mcRDKc0zju_STvuJ2zb-20" value="Extends" style="edgeLabel;html=1;align=center;verticalAlign=middle;resizable=0;points=[];" parent="fS97ZJNERADpUr7Fis6X-39" vertex="1" connectable="0">
          <mxGeometry x="-0.1739" y="-3" relative="1" as="geometry">
            <mxPoint x="-1" as="offset" />
          </mxGeometry>
        </mxCell>
        <mxCell id="fS97ZJNERADpUr7Fis6X-30" value="Dictionary" style="swimlane;fontStyle=0;childLayout=stackLayout;horizontal=1;startSize=26;fillColor=#e1d5e7;horizontalStack=0;resizeParent=1;resizeParentMax=0;resizeLast=0;collapsible=1;marginBottom=0;strokeColor=#9673a6;" parent="WIyWlLk6GJQsqaUBKTNV-1" vertex="1">
          <mxGeometry x="1055" y="1997" width="220" height="234" as="geometry" />
        </mxCell>
        <mxCell id="fS97ZJNERADpUr7Fis6X-31" value="- category: String    种类" style="text;strokeColor=none;fillColor=none;align=left;verticalAlign=top;spacingLeft=4;spacingRight=4;overflow=hidden;rotatable=0;points=[[0,0.5],[1,0.5]];portConstraint=eastwest;" parent="fS97ZJNERADpUr7Fis6X-30" vertex="1">
          <mxGeometry y="26" width="220" height="26" as="geometry" />
        </mxCell>
        <mxCell id="fS97ZJNERADpUr7Fis6X-32" value="- code: String    编码" style="text;strokeColor=none;fillColor=none;align=left;verticalAlign=top;spacingLeft=4;spacingRight=4;overflow=hidden;rotatable=0;points=[[0,0.5],[1,0.5]];portConstraint=eastwest;" parent="fS97ZJNERADpUr7Fis6X-30" vertex="1">
          <mxGeometry y="52" width="220" height="26" as="geometry" />
        </mxCell>
        <mxCell id="fS97ZJNERADpUr7Fis6X-33" value="- key: String    键" style="text;strokeColor=none;fillColor=none;align=left;verticalAlign=top;spacingLeft=4;spacingRight=4;overflow=hidden;rotatable=0;points=[[0,0.5],[1,0.5]];portConstraint=eastwest;" parent="fS97ZJNERADpUr7Fis6X-30" vertex="1">
          <mxGeometry y="78" width="220" height="26" as="geometry" />
        </mxCell>
        <mxCell id="fS97ZJNERADpUr7Fis6X-34" value="- value: String    值" style="text;strokeColor=none;fillColor=none;align=left;verticalAlign=top;spacingLeft=4;spacingRight=4;overflow=hidden;rotatable=0;points=[[0,0.5],[1,0.5]];portConstraint=eastwest;" parent="fS97ZJNERADpUr7Fis6X-30" vertex="1">
          <mxGeometry y="104" width="220" height="26" as="geometry" />
        </mxCell>
        <mxCell id="fS97ZJNERADpUr7Fis6X-36" value="- description: String    描述" style="text;strokeColor=none;fillColor=none;align=left;verticalAlign=top;spacingLeft=4;spacingRight=4;overflow=hidden;rotatable=0;points=[[0,0.5],[1,0.5]];portConstraint=eastwest;" parent="fS97ZJNERADpUr7Fis6X-30" vertex="1">
          <mxGeometry y="130" width="220" height="26" as="geometry" />
        </mxCell>
        <mxCell id="fS97ZJNERADpUr7Fis6X-35" value="- parent: Dictionary    父节点" style="text;strokeColor=none;fillColor=none;align=left;verticalAlign=top;spacingLeft=4;spacingRight=4;overflow=hidden;rotatable=0;points=[[0,0.5],[1,0.5]];portConstraint=eastwest;" parent="fS97ZJNERADpUr7Fis6X-30" vertex="1">
          <mxGeometry y="156" width="220" height="26" as="geometry" />
        </mxCell>
        <mxCell id="fS97ZJNERADpUr7Fis6X-37" value="- extendable: Boolean    可添加子节点" style="text;strokeColor=none;fillColor=none;align=left;verticalAlign=top;spacingLeft=4;spacingRight=4;overflow=hidden;rotatable=0;points=[[0,0.5],[1,0.5]];portConstraint=eastwest;" parent="fS97ZJNERADpUr7Fis6X-30" vertex="1">
          <mxGeometry y="182" width="220" height="26" as="geometry" />
        </mxCell>
        <mxCell id="fS97ZJNERADpUr7Fis6X-38" value="- deletable: Boolean    可删除" style="text;strokeColor=none;fillColor=none;align=left;verticalAlign=top;spacingLeft=4;spacingRight=4;overflow=hidden;rotatable=0;points=[[0,0.5],[1,0.5]];portConstraint=eastwest;" parent="fS97ZJNERADpUr7Fis6X-30" vertex="1">
          <mxGeometry y="208" width="220" height="26" as="geometry" />
        </mxCell>
        <mxCell id="fS97ZJNERADpUr7Fis6X-52" style="rounded=0;orthogonalLoop=1;jettySize=auto;html=1;startArrow=none;startFill=0;endArrow=block;endFill=0;" parent="WIyWlLk6GJQsqaUBKTNV-1" source="fS97ZJNERADpUr7Fis6X-41" target="DC-7fMDGKw9MtQms55Px-23" edge="1">
          <mxGeometry relative="1" as="geometry" />
        </mxCell>
        <mxCell id="Hxi5oiMrbfGEEpM-4Bx1-6" value="Extends" style="edgeLabel;html=1;align=center;verticalAlign=middle;resizable=0;points=[];" parent="fS97ZJNERADpUr7Fis6X-52" vertex="1" connectable="0">
          <mxGeometry x="-0.1932" y="1" relative="1" as="geometry">
            <mxPoint as="offset" />
          </mxGeometry>
        </mxCell>
        <mxCell id="fS97ZJNERADpUr7Fis6X-50" style="edgeStyle=orthogonalEdgeStyle;rounded=0;orthogonalLoop=1;jettySize=auto;html=1;startArrow=open;startFill=0;endArrow=circlePlus;endFill=0;entryX=0;entryY=0.5;entryDx=0;entryDy=0;" parent="WIyWlLk6GJQsqaUBKTNV-1" source="fS97ZJNERADpUr7Fis6X-46" target="fS97ZJNERADpUr7Fis6X-42" edge="1">
          <mxGeometry relative="1" as="geometry">
            <mxPoint x="6365" y="2159" as="sourcePoint" />
            <mxPoint x="6375" y="2049" as="targetPoint" />
            <Array as="points">
              <mxPoint x="2305" y="2067" />
              <mxPoint x="2135" y="2067" />
              <mxPoint x="2135" y="2016" />
            </Array>
          </mxGeometry>
        </mxCell>
        <mxCell id="fS97ZJNERADpUr7Fis6X-46" value="ID" style="swimlane;fontStyle=0;childLayout=stackLayout;horizontal=1;startSize=26;fillColor=#dae8fc;horizontalStack=0;resizeParent=1;resizeParentMax=0;resizeLast=0;collapsible=1;marginBottom=0;strokeColor=#6c8ebf;" parent="WIyWlLk6GJQsqaUBKTNV-1" vertex="1">
          <mxGeometry x="2165" y="2105" width="280" height="78" as="geometry" />
        </mxCell>
        <mxCell id="fS97ZJNERADpUr7Fis6X-47" value="- owner: UserId    拥有者用户ID" style="text;strokeColor=none;fillColor=none;align=left;verticalAlign=top;spacingLeft=4;spacingRight=4;overflow=hidden;rotatable=0;points=[[0,0.5],[1,0.5]];portConstraint=eastwest;" parent="fS97ZJNERADpUr7Fis6X-46" vertex="1">
          <mxGeometry y="26" width="280" height="26" as="geometry" />
        </mxCell>
        <mxCell id="fS97ZJNERADpUr7Fis6X-48" value="- scope: DynamicColumnScope    动态列作用域" style="text;strokeColor=none;fillColor=none;align=left;verticalAlign=top;spacingLeft=4;spacingRight=4;overflow=hidden;rotatable=0;points=[[0,0.5],[1,0.5]];portConstraint=eastwest;" parent="fS97ZJNERADpUr7Fis6X-46" vertex="1">
          <mxGeometry y="52" width="280" height="26" as="geometry" />
        </mxCell>
        <mxCell id="Hxi5oiMrbfGEEpM-4Bx1-12" style="rounded=0;orthogonalLoop=1;jettySize=auto;html=1;endArrow=block;endFill=0;elbow=vertical;entryX=1;entryY=0.5;entryDx=0;entryDy=0;" parent="WIyWlLk6GJQsqaUBKTNV-1" source="DC-7fMDGKw9MtQms55Px-32" target="DC-7fMDGKw9MtQms55Px-24" edge="1">
          <mxGeometry relative="1" as="geometry" />
        </mxCell>
        <mxCell id="-mcRDKc0zju_STvuJ2zb-66" value="Extends" style="edgeLabel;html=1;align=center;verticalAlign=middle;resizable=0;points=[];" parent="Hxi5oiMrbfGEEpM-4Bx1-12" vertex="1" connectable="0">
          <mxGeometry x="-0.0902" y="3" relative="1" as="geometry">
            <mxPoint as="offset" />
          </mxGeometry>
        </mxCell>
        <mxCell id="Hxi5oiMrbfGEEpM-4Bx1-27" style="edgeStyle=orthogonalEdgeStyle;rounded=0;orthogonalLoop=1;jettySize=auto;html=1;startArrow=open;startFill=0;endArrow=diamondThin;endFill=1;exitX=-0.001;exitY=-0.17;exitDx=0;exitDy=0;exitPerimeter=0;" parent="WIyWlLk6GJQsqaUBKTNV-1" source="qC0AF7DME6TW0aWiBR_m-13" target="fS97ZJNERADpUr7Fis6X-12" edge="1">
          <mxGeometry relative="1" as="geometry">
            <Array as="points">
              <mxPoint x="3855" y="2169" />
              <mxPoint x="3855" y="2114" />
            </Array>
            <mxPoint x="4755" y="2904" as="sourcePoint" />
            <mxPoint x="4675" y="2904.0000000000005" as="targetPoint" />
          </mxGeometry>
        </mxCell>
        <mxCell id="-mcRDKc0zju_STvuJ2zb-4" style="rounded=0;orthogonalLoop=1;jettySize=auto;html=1;startArrow=none;startFill=0;endArrow=block;endFill=0;edgeStyle=orthogonalEdgeStyle;entryX=0.071;entryY=-0.003;entryDx=0;entryDy=0;entryPerimeter=0;" parent="WIyWlLk6GJQsqaUBKTNV-1" source="Hxi5oiMrbfGEEpM-4Bx1-39" target="DC-7fMDGKw9MtQms55Px-23" edge="1">
          <mxGeometry relative="1" as="geometry">
            <mxPoint x="1875" y="1787" as="targetPoint" />
          </mxGeometry>
        </mxCell>
        <mxCell id="-mcRDKc0zju_STvuJ2zb-5" value="Extends" style="edgeLabel;html=1;align=center;verticalAlign=middle;resizable=0;points=[];" parent="-mcRDKc0zju_STvuJ2zb-4" vertex="1" connectable="0">
          <mxGeometry x="-0.2836" y="5" relative="1" as="geometry">
            <mxPoint y="-1" as="offset" />
          </mxGeometry>
        </mxCell>
        <mxCell id="Hxi5oiMrbfGEEpM-4Bx1-39" value="WorkItemType" style="swimlane;fontStyle=0;childLayout=stackLayout;horizontal=1;startSize=26;fillColor=#e1d5e7;horizontalStack=0;resizeParent=1;resizeParentMax=0;resizeLast=0;collapsible=1;marginBottom=0;strokeColor=#9673a6;" parent="WIyWlLk6GJQsqaUBKTNV-1" vertex="1">
          <mxGeometry x="1255" y="1397" width="330" height="182" as="geometry" />
        </mxCell>
        <mxCell id="Hxi5oiMrbfGEEpM-4Bx1-41" value="- type: String    类别" style="text;strokeColor=none;fillColor=none;align=left;verticalAlign=top;spacingLeft=4;spacingRight=4;overflow=hidden;rotatable=0;points=[[0,0.5],[1,0.5]];portConstraint=eastwest;" parent="Hxi5oiMrbfGEEpM-4Bx1-39" vertex="1">
          <mxGeometry y="26" width="330" height="26" as="geometry" />
        </mxCell>
        <mxCell id="Hxi5oiMrbfGEEpM-4Bx1-42" value="- icon: String    图标地址" style="text;strokeColor=none;fillColor=none;align=left;verticalAlign=top;spacingLeft=4;spacingRight=4;overflow=hidden;rotatable=0;points=[[0,0.5],[1,0.5]];portConstraint=eastwest;" parent="Hxi5oiMrbfGEEpM-4Bx1-39" vertex="1">
          <mxGeometry y="52" width="330" height="26" as="geometry" />
        </mxCell>
        <mxCell id="Hxi5oiMrbfGEEpM-4Bx1-45" value="- enable: Boolean    是否启用" style="text;strokeColor=none;fillColor=none;align=left;verticalAlign=top;spacingLeft=4;spacingRight=4;overflow=hidden;rotatable=0;points=[[0,0.5],[1,0.5]];portConstraint=eastwest;" parent="Hxi5oiMrbfGEEpM-4Bx1-39" vertex="1">
          <mxGeometry y="78" width="330" height="26" as="geometry" />
        </mxCell>
        <mxCell id="Hxi5oiMrbfGEEpM-4Bx1-46" value="- status: List&lt;WorkflowStatuId&gt;    工作流状态ID" style="text;strokeColor=none;fillColor=none;align=left;verticalAlign=top;spacingLeft=4;spacingRight=4;overflow=hidden;rotatable=0;points=[[0,0.5],[1,0.5]];portConstraint=eastwest;fontStyle=1" parent="Hxi5oiMrbfGEEpM-4Bx1-39" vertex="1">
          <mxGeometry y="104" width="330" height="26" as="geometry" />
        </mxCell>
        <mxCell id="xaXWIEfhId6lT726xvUP-34" value="- propConfigs: List&lt;PropertyConfiguration&gt;    工作项属性" style="text;strokeColor=none;fillColor=none;align=left;verticalAlign=top;spacingLeft=4;spacingRight=4;overflow=hidden;rotatable=0;points=[[0,0.5],[1,0.5]];portConstraint=eastwest;" parent="Hxi5oiMrbfGEEpM-4Bx1-39" vertex="1">
          <mxGeometry y="130" width="330" height="26" as="geometry" />
        </mxCell>
        <mxCell id="Hxi5oiMrbfGEEpM-4Bx1-40" value="- name: String    名称" style="text;strokeColor=none;fillColor=none;align=left;verticalAlign=top;spacingLeft=4;spacingRight=4;overflow=hidden;rotatable=0;points=[[0,0.5],[1,0.5]];portConstraint=eastwest;" parent="Hxi5oiMrbfGEEpM-4Bx1-39" vertex="1">
          <mxGeometry y="156" width="330" height="26" as="geometry" />
        </mxCell>
        <mxCell id="Hxi5oiMrbfGEEpM-4Bx1-54" value="BaseWorkItem" style="swimlane;fontStyle=2;align=center;verticalAlign=top;childLayout=stackLayout;horizontal=1;startSize=26;horizontalStack=0;resizeParent=1;resizeParentMax=0;resizeLast=0;collapsible=1;marginBottom=0;fillColor=#fff2cc;strokeColor=#d6b656;" parent="WIyWlLk6GJQsqaUBKTNV-1" vertex="1">
          <mxGeometry x="2310" y="882" width="310" height="316" as="geometry" />
        </mxCell>
        <mxCell id="Hxi5oiMrbfGEEpM-4Bx1-1" value="- type: WorkItemType    工作项类型" style="text;strokeColor=none;fillColor=none;align=left;verticalAlign=top;spacingLeft=4;spacingRight=4;overflow=hidden;rotatable=0;points=[[0,0.5],[1,0.5]];portConstraint=eastwest;" parent="Hxi5oiMrbfGEEpM-4Bx1-54" vertex="1">
          <mxGeometry y="26" width="310" height="26" as="geometry" />
        </mxCell>
        <mxCell id="Hxi5oiMrbfGEEpM-4Bx1-2" value="- name: String    名称" style="text;strokeColor=none;fillColor=none;align=left;verticalAlign=top;spacingLeft=4;spacingRight=4;overflow=hidden;rotatable=0;points=[[0,0.5],[1,0.5]];portConstraint=eastwest;" parent="Hxi5oiMrbfGEEpM-4Bx1-54" vertex="1">
          <mxGeometry y="52" width="310" height="26" as="geometry" />
        </mxCell>
        <mxCell id="Hxi5oiMrbfGEEpM-4Bx1-3" value="- content: String    内容" style="text;strokeColor=none;fillColor=none;align=left;verticalAlign=top;spacingLeft=4;spacingRight=4;overflow=hidden;rotatable=0;points=[[0,0.5],[1,0.5]];portConstraint=eastwest;" parent="Hxi5oiMrbfGEEpM-4Bx1-54" vertex="1">
          <mxGeometry y="78" width="310" height="26" as="geometry" />
        </mxCell>
        <mxCell id="Hxi5oiMrbfGEEpM-4Bx1-47" value="- code: String    编码" style="text;strokeColor=none;fillColor=none;align=left;verticalAlign=top;spacingLeft=4;spacingRight=4;overflow=hidden;rotatable=0;points=[[0,0.5],[1,0.5]];portConstraint=eastwest;" parent="Hxi5oiMrbfGEEpM-4Bx1-54" vertex="1">
          <mxGeometry y="104" width="310" height="26" as="geometry" />
        </mxCell>
        <mxCell id="Hxi5oiMrbfGEEpM-4Bx1-48" value="- projectCode: String    项目编码" style="text;strokeColor=none;fillColor=none;align=left;verticalAlign=top;spacingLeft=4;spacingRight=4;overflow=hidden;rotatable=0;points=[[0,0.5],[1,0.5]];portConstraint=eastwest;" parent="Hxi5oiMrbfGEEpM-4Bx1-54" vertex="1">
          <mxGeometry y="130" width="310" height="26" as="geometry" />
        </mxCell>
        <mxCell id="Hxi5oiMrbfGEEpM-4Bx1-49" value="- plannedStartTime: ZonedDateTime    计划开始时间" style="text;strokeColor=none;fillColor=none;align=left;verticalAlign=top;spacingLeft=4;spacingRight=4;overflow=hidden;rotatable=0;points=[[0,0.5],[1,0.5]];portConstraint=eastwest;" parent="Hxi5oiMrbfGEEpM-4Bx1-54" vertex="1">
          <mxGeometry y="156" width="310" height="26" as="geometry" />
        </mxCell>
        <mxCell id="Hxi5oiMrbfGEEpM-4Bx1-50" value="- plannedFinishTime: ZonedDateTime    计划结束时间" style="text;strokeColor=none;fillColor=none;align=left;verticalAlign=top;spacingLeft=4;spacingRight=4;overflow=hidden;rotatable=0;points=[[0,0.5],[1,0.5]];portConstraint=eastwest;" parent="Hxi5oiMrbfGEEpM-4Bx1-54" vertex="1">
          <mxGeometry y="182" width="310" height="24" as="geometry" />
        </mxCell>
        <mxCell id="Hxi5oiMrbfGEEpM-4Bx1-51" value="- actualStartTime: ZonedDateTime    实际开始时间" style="text;strokeColor=none;fillColor=none;align=left;verticalAlign=top;spacingLeft=4;spacingRight=4;overflow=hidden;rotatable=0;points=[[0,0.5],[1,0.5]];portConstraint=eastwest;" parent="Hxi5oiMrbfGEEpM-4Bx1-54" vertex="1">
          <mxGeometry y="206" width="310" height="24" as="geometry" />
        </mxCell>
        <mxCell id="Hxi5oiMrbfGEEpM-4Bx1-52" value="- actualFinishTime: ZonedDateTime    实际结束时间" style="text;strokeColor=none;fillColor=none;align=left;verticalAlign=top;spacingLeft=4;spacingRight=4;overflow=hidden;rotatable=0;points=[[0,0.5],[1,0.5]];portConstraint=eastwest;" parent="Hxi5oiMrbfGEEpM-4Bx1-54" vertex="1">
          <mxGeometry y="230" width="310" height="26" as="geometry" />
        </mxCell>
        <mxCell id="Hxi5oiMrbfGEEpM-4Bx1-53" value="- status: WorkflowStatusID    工作项状态" style="text;strokeColor=none;fillColor=none;align=left;verticalAlign=top;spacingLeft=4;spacingRight=4;overflow=hidden;rotatable=0;points=[[0,0.5],[1,0.5]];portConstraint=eastwest;fontStyle=1" parent="Hxi5oiMrbfGEEpM-4Bx1-54" vertex="1">
          <mxGeometry y="256" width="310" height="26" as="geometry" />
        </mxCell>
        <mxCell id="Hxi5oiMrbfGEEpM-4Bx1-56" value="" style="line;strokeWidth=1;fillColor=none;align=left;verticalAlign=middle;spacingTop=-1;spacingLeft=3;spacingRight=3;rotatable=0;labelPosition=right;points=[];portConstraint=eastwest;" parent="Hxi5oiMrbfGEEpM-4Bx1-54" vertex="1">
          <mxGeometry y="282" width="310" height="8" as="geometry" />
        </mxCell>
        <mxCell id="Hxi5oiMrbfGEEpM-4Bx1-57" value="+ getExtProps(): JSONObject" style="text;strokeColor=none;fillColor=none;align=left;verticalAlign=top;spacingLeft=4;spacingRight=4;overflow=hidden;rotatable=0;points=[[0,0.5],[1,0.5]];portConstraint=eastwest;" parent="Hxi5oiMrbfGEEpM-4Bx1-54" vertex="1">
          <mxGeometry y="290" width="310" height="26" as="geometry" />
        </mxCell>
        <mxCell id="Hxi5oiMrbfGEEpM-4Bx1-68" value="Issue" style="swimlane;fontStyle=0;childLayout=stackLayout;horizontal=1;startSize=26;fillColor=#e1d5e7;horizontalStack=0;resizeParent=1;resizeParentMax=0;resizeLast=0;collapsible=1;marginBottom=0;strokeColor=#9673a6;" parent="WIyWlLk6GJQsqaUBKTNV-1" vertex="1">
          <mxGeometry x="1890" y="330" width="390" height="702" as="geometry" />
        </mxCell>
        <mxCell id="Hxi5oiMrbfGEEpM-4Bx1-69" value="- analysePlanCompleteDate: ZonedDateTime    计划分析完成时间" style="text;strokeColor=none;fillColor=none;align=left;verticalAlign=top;spacingLeft=4;spacingRight=4;overflow=hidden;rotatable=0;points=[[0,0.5],[1,0.5]];portConstraint=eastwest;" parent="Hxi5oiMrbfGEEpM-4Bx1-68" vertex="1">
          <mxGeometry y="26" width="390" height="26" as="geometry" />
        </mxCell>
        <mxCell id="Hxi5oiMrbfGEEpM-4Bx1-70" value="- escalation: Boolean    是否升级" style="text;strokeColor=none;fillColor=none;align=left;verticalAlign=top;spacingLeft=4;spacingRight=4;overflow=hidden;rotatable=0;points=[[0,0.5],[1,0.5]];portConstraint=eastwest;" parent="Hxi5oiMrbfGEEpM-4Bx1-68" vertex="1">
          <mxGeometry y="52" width="390" height="26" as="geometry" />
        </mxCell>
        <mxCell id="Hxi5oiMrbfGEEpM-4Bx1-71" value="- countermeasure: Boolean    是否对策" style="text;strokeColor=none;fillColor=none;align=left;verticalAlign=top;spacingLeft=4;spacingRight=4;overflow=hidden;rotatable=0;points=[[0,0.5],[1,0.5]];portConstraint=eastwest;" parent="Hxi5oiMrbfGEEpM-4Bx1-68" vertex="1">
          <mxGeometry y="78" width="390" height="26" as="geometry" />
        </mxCell>
        <mxCell id="Hxi5oiMrbfGEEpM-4Bx1-74" value="- source: String    问题来源" style="text;strokeColor=none;fillColor=none;align=left;verticalAlign=top;spacingLeft=4;spacingRight=4;overflow=hidden;rotatable=0;points=[[0,0.5],[1,0.5]];portConstraint=eastwest;" parent="Hxi5oiMrbfGEEpM-4Bx1-68" vertex="1">
          <mxGeometry y="104" width="390" height="26" as="geometry" />
        </mxCell>
        <mxCell id="Hxi5oiMrbfGEEpM-4Bx1-75" value="- testingEnvironment: String    测试环境" style="text;strokeColor=none;fillColor=none;align=left;verticalAlign=top;spacingLeft=4;spacingRight=4;overflow=hidden;rotatable=0;points=[[0,0.5],[1,0.5]];portConstraint=eastwest;" parent="Hxi5oiMrbfGEEpM-4Bx1-68" vertex="1">
          <mxGeometry y="130" width="390" height="26" as="geometry" />
        </mxCell>
        <mxCell id="Hxi5oiMrbfGEEpM-4Bx1-77" value="- softwareVersion: String    软件版本" style="text;strokeColor=none;fillColor=none;align=left;verticalAlign=top;spacingLeft=4;spacingRight=4;overflow=hidden;rotatable=0;points=[[0,0.5],[1,0.5]];portConstraint=eastwest;" parent="Hxi5oiMrbfGEEpM-4Bx1-68" vertex="1">
          <mxGeometry y="156" width="390" height="26" as="geometry" />
        </mxCell>
        <mxCell id="Hxi5oiMrbfGEEpM-4Bx1-78" value="- protoStage: String    样机阶段" style="text;strokeColor=none;fillColor=none;align=left;verticalAlign=top;spacingLeft=4;spacingRight=4;overflow=hidden;rotatable=0;points=[[0,0.5],[1,0.5]];portConstraint=eastwest;" parent="Hxi5oiMrbfGEEpM-4Bx1-68" vertex="1">
          <mxGeometry y="182" width="390" height="26" as="geometry" />
        </mxCell>
        <mxCell id="Hxi5oiMrbfGEEpM-4Bx1-76" value="- protoSubStage: String    样机子阶段" style="text;strokeColor=none;fillColor=none;align=left;verticalAlign=top;spacingLeft=4;spacingRight=4;overflow=hidden;rotatable=0;points=[[0,0.5],[1,0.5]];portConstraint=eastwest;" parent="Hxi5oiMrbfGEEpM-4Bx1-68" vertex="1">
          <mxGeometry y="208" width="390" height="26" as="geometry" />
        </mxCell>
        <mxCell id="Hxi5oiMrbfGEEpM-4Bx1-84" value="- mainCategory: String    问题大类" style="text;strokeColor=none;fillColor=none;align=left;verticalAlign=top;spacingLeft=4;spacingRight=4;overflow=hidden;rotatable=0;points=[[0,0.5],[1,0.5]];portConstraint=eastwest;" parent="Hxi5oiMrbfGEEpM-4Bx1-68" vertex="1">
          <mxGeometry y="234" width="390" height="26" as="geometry" />
        </mxCell>
        <mxCell id="Hxi5oiMrbfGEEpM-4Bx1-83" value="- sbuCategory: String    问题小类" style="text;strokeColor=none;fillColor=none;align=left;verticalAlign=top;spacingLeft=4;spacingRight=4;overflow=hidden;rotatable=0;points=[[0,0.5],[1,0.5]];portConstraint=eastwest;" parent="Hxi5oiMrbfGEEpM-4Bx1-68" vertex="1">
          <mxGeometry y="260" width="390" height="26" as="geometry" />
        </mxCell>
        <mxCell id="xaXWIEfhId6lT726xvUP-38" value="- faultCode: String    故障代码" style="text;strokeColor=none;fillColor=none;align=left;verticalAlign=top;spacingLeft=4;spacingRight=4;overflow=hidden;rotatable=0;points=[[0,0.5],[1,0.5]];portConstraint=eastwest;" parent="Hxi5oiMrbfGEEpM-4Bx1-68" vertex="1">
          <mxGeometry y="286" width="390" height="26" as="geometry" />
        </mxCell>
        <mxCell id="xaXWIEfhId6lT726xvUP-42" value="- issueType: String    问题描述与分类" style="text;strokeColor=none;fillColor=none;align=left;verticalAlign=top;spacingLeft=4;spacingRight=4;overflow=hidden;rotatable=0;points=[[0,0.5],[1,0.5]];portConstraint=eastwest;" parent="Hxi5oiMrbfGEEpM-4Bx1-68" vertex="1">
          <mxGeometry y="312" width="390" height="26" as="geometry" />
        </mxCell>
        <mxCell id="xaXWIEfhId6lT726xvUP-41" value="- testNumber: Integer    测试次数" style="text;strokeColor=none;fillColor=none;align=left;verticalAlign=top;spacingLeft=4;spacingRight=4;overflow=hidden;rotatable=0;points=[[0,0.5],[1,0.5]];portConstraint=eastwest;" parent="Hxi5oiMrbfGEEpM-4Bx1-68" vertex="1">
          <mxGeometry y="338" width="390" height="26" as="geometry" />
        </mxCell>
        <mxCell id="xaXWIEfhId6lT726xvUP-40" value="- frequency: String    问题频率" style="text;strokeColor=none;fillColor=none;align=left;verticalAlign=top;spacingLeft=4;spacingRight=4;overflow=hidden;rotatable=0;points=[[0,0.5],[1,0.5]];portConstraint=eastwest;" parent="Hxi5oiMrbfGEEpM-4Bx1-68" vertex="1">
          <mxGeometry y="364" width="390" height="26" as="geometry" />
        </mxCell>
        <mxCell id="xaXWIEfhId6lT726xvUP-39" value="- severity: String    问题严重性" style="text;strokeColor=none;fillColor=none;align=left;verticalAlign=top;spacingLeft=4;spacingRight=4;overflow=hidden;rotatable=0;points=[[0,0.5],[1,0.5]];portConstraint=eastwest;" parent="Hxi5oiMrbfGEEpM-4Bx1-68" vertex="1">
          <mxGeometry y="390" width="390" height="26" as="geometry" />
        </mxCell>
        <mxCell id="xaXWIEfhId6lT726xvUP-46" value="- urgency: UrgencyId    严重度ID" style="text;strokeColor=none;fillColor=none;align=left;verticalAlign=top;spacingLeft=4;spacingRight=4;overflow=hidden;rotatable=0;points=[[0,0.5],[1,0.5]];portConstraint=eastwest;fontStyle=1" parent="Hxi5oiMrbfGEEpM-4Bx1-68" vertex="1">
          <mxGeometry y="416" width="390" height="26" as="geometry" />
        </mxCell>
        <mxCell id="xaXWIEfhId6lT726xvUP-45" value="- finderDept: DeptId    问题发现者部门ID" style="text;strokeColor=none;fillColor=none;align=left;verticalAlign=top;spacingLeft=4;spacingRight=4;overflow=hidden;rotatable=0;points=[[0,0.5],[1,0.5]];portConstraint=eastwest;fontStyle=1" parent="Hxi5oiMrbfGEEpM-4Bx1-68" vertex="1">
          <mxGeometry y="442" width="390" height="26" as="geometry" />
        </mxCell>
        <mxCell id="xaXWIEfhId6lT726xvUP-43" value="- finder: UserId    问题发现者" style="text;fillColor=none;align=left;verticalAlign=top;spacingLeft=4;spacingRight=4;overflow=hidden;rotatable=0;points=[[0,0.5],[1,0.5]];portConstraint=eastwest;fontStyle=1" parent="Hxi5oiMrbfGEEpM-4Bx1-68" vertex="1">
          <mxGeometry y="468" width="390" height="26" as="geometry" />
        </mxCell>
        <mxCell id="xaXWIEfhId6lT726xvUP-44" value="- handler: UserId    问题归口人" style="text;strokeColor=none;fillColor=none;align=left;verticalAlign=top;spacingLeft=4;spacingRight=4;overflow=hidden;rotatable=0;points=[[0,0.5],[1,0.5]];portConstraint=eastwest;fontStyle=1" parent="Hxi5oiMrbfGEEpM-4Bx1-68" vertex="1">
          <mxGeometry y="494" width="390" height="26" as="geometry" />
        </mxCell>
        <mxCell id="xaXWIEfhId6lT726xvUP-49" value="- countermeasurePrincipal: UserId    问题对策责任人" style="text;strokeColor=none;fillColor=none;align=left;verticalAlign=top;spacingLeft=4;spacingRight=4;overflow=hidden;rotatable=0;points=[[0,0.5],[1,0.5]];portConstraint=eastwest;fontStyle=1" parent="Hxi5oiMrbfGEEpM-4Bx1-68" vertex="1">
          <mxGeometry y="520" width="390" height="26" as="geometry" />
        </mxCell>
        <mxCell id="xaXWIEfhId6lT726xvUP-48" value="- analyser: UserId    问题分析人" style="text;strokeColor=none;fillColor=none;align=left;verticalAlign=top;spacingLeft=4;spacingRight=4;overflow=hidden;rotatable=0;points=[[0,0.5],[1,0.5]];portConstraint=eastwest;fontStyle=1" parent="Hxi5oiMrbfGEEpM-4Bx1-68" vertex="1">
          <mxGeometry y="546" width="390" height="26" as="geometry" />
        </mxCell>
        <mxCell id="xaXWIEfhId6lT726xvUP-47" value="- countermeasureUser: UserId    问题对策人" style="text;strokeColor=none;fillColor=none;align=left;verticalAlign=top;spacingLeft=4;spacingRight=4;overflow=hidden;rotatable=0;points=[[0,0.5],[1,0.5]];portConstraint=eastwest;fontStyle=1" parent="Hxi5oiMrbfGEEpM-4Bx1-68" vertex="1">
          <mxGeometry y="572" width="390" height="26" as="geometry" />
        </mxCell>
        <mxCell id="xaXWIEfhId6lT726xvUP-52" value="- countermeasureAuditor: UserId    问题对策审核人" style="text;strokeColor=none;fillColor=none;align=left;verticalAlign=top;spacingLeft=4;spacingRight=4;overflow=hidden;rotatable=0;points=[[0,0.5],[1,0.5]];portConstraint=eastwest;fontStyle=1" parent="Hxi5oiMrbfGEEpM-4Bx1-68" vertex="1">
          <mxGeometry y="598" width="390" height="26" as="geometry" />
        </mxCell>
        <mxCell id="xaXWIEfhId6lT726xvUP-51" value="- problemReviewers: Set&lt;UserId&gt;    问题评审团队" style="text;strokeColor=none;fillColor=none;align=left;verticalAlign=top;spacingLeft=4;spacingRight=4;overflow=hidden;rotatable=0;points=[[0,0.5],[1,0.5]];portConstraint=eastwest;fontStyle=1" parent="Hxi5oiMrbfGEEpM-4Bx1-68" vertex="1">
          <mxGeometry y="624" width="390" height="26" as="geometry" />
        </mxCell>
        <mxCell id="xaXWIEfhId6lT726xvUP-50" value="- reviewInformation: String    评审信息" style="text;strokeColor=none;fillColor=none;align=left;verticalAlign=top;spacingLeft=4;spacingRight=4;overflow=hidden;rotatable=0;points=[[0,0.5],[1,0.5]];portConstraint=eastwest;" parent="Hxi5oiMrbfGEEpM-4Bx1-68" vertex="1">
          <mxGeometry y="650" width="390" height="26" as="geometry" />
        </mxCell>
        <mxCell id="Hxi5oiMrbfGEEpM-4Bx1-82" value="- extProps: JSONObject    问题扩展属性" style="text;strokeColor=none;fillColor=none;align=left;verticalAlign=top;spacingLeft=4;spacingRight=4;overflow=hidden;rotatable=0;points=[[0,0.5],[1,0.5]];portConstraint=eastwest;" parent="Hxi5oiMrbfGEEpM-4Bx1-68" vertex="1">
          <mxGeometry y="676" width="390" height="26" as="geometry" />
        </mxCell>
        <mxCell id="Hxi5oiMrbfGEEpM-4Bx1-72" style="rounded=0;orthogonalLoop=1;jettySize=auto;html=1;startArrow=none;startFill=0;endArrow=block;endFill=0;strokeColor=#000000;elbow=vertical;entryX=0.5;entryY=0;entryDx=0;entryDy=0;" parent="WIyWlLk6GJQsqaUBKTNV-1" source="Hxi5oiMrbfGEEpM-4Bx1-68" target="Hxi5oiMrbfGEEpM-4Bx1-54" edge="1">
          <mxGeometry relative="1" as="geometry">
            <mxPoint x="2410" y="972" as="targetPoint" />
          </mxGeometry>
        </mxCell>
        <mxCell id="Hxi5oiMrbfGEEpM-4Bx1-73" value="Extends" style="edgeLabel;html=1;align=center;verticalAlign=middle;resizable=0;points=[];" parent="Hxi5oiMrbfGEEpM-4Bx1-72" vertex="1" connectable="0">
          <mxGeometry x="-0.1561" y="5" relative="1" as="geometry">
            <mxPoint as="offset" />
          </mxGeometry>
        </mxCell>
        <mxCell id="Hxi5oiMrbfGEEpM-4Bx1-89" style="edgeStyle=orthogonalEdgeStyle;rounded=0;orthogonalLoop=1;jettySize=auto;html=1;startArrow=none;startFill=0;endArrow=block;endFill=0;strokeColor=#000000;elbow=vertical;" parent="WIyWlLk6GJQsqaUBKTNV-1" source="Hxi5oiMrbfGEEpM-4Bx1-85" target="Hxi5oiMrbfGEEpM-4Bx1-54" edge="1">
          <mxGeometry relative="1" as="geometry">
            <Array as="points">
              <mxPoint x="1760" y="970" />
              <mxPoint x="1760" y="1120" />
            </Array>
          </mxGeometry>
        </mxCell>
        <mxCell id="-mcRDKc0zju_STvuJ2zb-81" value="Extends" style="edgeLabel;html=1;align=center;verticalAlign=middle;resizable=0;points=[];" parent="Hxi5oiMrbfGEEpM-4Bx1-89" vertex="1" connectable="0">
          <mxGeometry x="0.2981" y="-2" relative="1" as="geometry">
            <mxPoint as="offset" />
          </mxGeometry>
        </mxCell>
        <mxCell id="Hxi5oiMrbfGEEpM-4Bx1-85" value="Risk" style="swimlane;fontStyle=0;childLayout=stackLayout;horizontal=1;startSize=26;fillColor=#e1d5e7;horizontalStack=0;resizeParent=1;resizeParentMax=0;resizeLast=0;collapsible=1;marginBottom=0;strokeColor=#9673a6;" parent="WIyWlLk6GJQsqaUBKTNV-1" vertex="1">
          <mxGeometry x="1400" y="801" width="290" height="338" as="geometry" />
        </mxCell>
        <mxCell id="Hxi5oiMrbfGEEpM-4Bx1-86" value="- category: RiskCategoryId    风险分类ID" style="text;strokeColor=none;fillColor=none;align=left;verticalAlign=top;spacingLeft=4;spacingRight=4;overflow=hidden;rotatable=0;points=[[0,0.5],[1,0.5]];portConstraint=eastwest;fontStyle=1" parent="Hxi5oiMrbfGEEpM-4Bx1-85" vertex="1">
          <mxGeometry y="26" width="290" height="26" as="geometry" />
        </mxCell>
        <mxCell id="Hxi5oiMrbfGEEpM-4Bx1-87" value="- reason: String    风险原因" style="text;strokeColor=none;fillColor=none;align=left;verticalAlign=top;spacingLeft=4;spacingRight=4;overflow=hidden;rotatable=0;points=[[0,0.5],[1,0.5]];portConstraint=eastwest;" parent="Hxi5oiMrbfGEEpM-4Bx1-85" vertex="1">
          <mxGeometry y="52" width="290" height="26" as="geometry" />
        </mxCell>
        <mxCell id="Hxi5oiMrbfGEEpM-4Bx1-88" value="- probability: RiskProbability    风险概率" style="text;strokeColor=none;fillColor=none;align=left;verticalAlign=top;spacingLeft=4;spacingRight=4;overflow=hidden;rotatable=0;points=[[0,0.5],[1,0.5]];portConstraint=eastwest;" parent="Hxi5oiMrbfGEEpM-4Bx1-85" vertex="1">
          <mxGeometry y="78" width="290" height="26" as="geometry" />
        </mxCell>
        <mxCell id="Hxi5oiMrbfGEEpM-4Bx1-91" value="- severity: SeverityLevelId    严重度Id" style="text;strokeColor=none;fillColor=none;align=left;verticalAlign=top;spacingLeft=4;spacingRight=4;overflow=hidden;rotatable=0;points=[[0,0.5],[1,0.5]];portConstraint=eastwest;fontStyle=1" parent="Hxi5oiMrbfGEEpM-4Bx1-85" vertex="1">
          <mxGeometry y="104" width="290" height="26" as="geometry" />
        </mxCell>
        <mxCell id="Hxi5oiMrbfGEEpM-4Bx1-93" value="- reportingPeriod: ReportingPeriod    通报周期" style="text;strokeColor=none;fillColor=none;align=left;verticalAlign=top;spacingLeft=4;spacingRight=4;overflow=hidden;rotatable=0;points=[[0,0.5],[1,0.5]];portConstraint=eastwest;" parent="Hxi5oiMrbfGEEpM-4Bx1-85" vertex="1">
          <mxGeometry y="130" width="290" height="26" as="geometry" />
        </mxCell>
        <mxCell id="4S57F3YJ-EKW5tLImAPO-0" value="- reminder: ReminderConfiguration    风险提醒" style="text;strokeColor=none;fillColor=none;align=left;verticalAlign=top;spacingLeft=4;spacingRight=4;overflow=hidden;rotatable=0;points=[[0,0.5],[1,0.5]];portConstraint=eastwest;" parent="Hxi5oiMrbfGEEpM-4Bx1-85" vertex="1">
          <mxGeometry y="156" width="290" height="26" as="geometry" />
        </mxCell>
        <mxCell id="4S57F3YJ-EKW5tLImAPO-5" value="- alternative: RiskAlternative    备选方案" style="text;strokeColor=none;fillColor=none;align=left;verticalAlign=top;spacingLeft=4;spacingRight=4;overflow=hidden;rotatable=0;points=[[0,0.5],[1,0.5]];portConstraint=eastwest;" parent="Hxi5oiMrbfGEEpM-4Bx1-85" vertex="1">
          <mxGeometry y="182" width="290" height="26" as="geometry" />
        </mxCell>
        <mxCell id="4S57F3YJ-EKW5tLImAPO-10" value="- losingExpense: BigDecimal    损失费用" style="text;strokeColor=none;fillColor=none;align=left;verticalAlign=top;spacingLeft=4;spacingRight=4;overflow=hidden;rotatable=0;points=[[0,0.5],[1,0.5]];portConstraint=eastwest;" parent="Hxi5oiMrbfGEEpM-4Bx1-85" vertex="1">
          <mxGeometry y="208" width="290" height="26" as="geometry" />
        </mxCell>
        <mxCell id="4S57F3YJ-EKW5tLImAPO-11" value="- subbedExpense: BigDecimal    替代费用" style="text;strokeColor=none;fillColor=none;align=left;verticalAlign=top;spacingLeft=4;spacingRight=4;overflow=hidden;rotatable=0;points=[[0,0.5],[1,0.5]];portConstraint=eastwest;" parent="Hxi5oiMrbfGEEpM-4Bx1-85" vertex="1">
          <mxGeometry y="234" width="290" height="26" as="geometry" />
        </mxCell>
        <mxCell id="4S57F3YJ-EKW5tLImAPO-12" value="- impact: String    风险影响" style="text;strokeColor=none;fillColor=none;align=left;verticalAlign=top;spacingLeft=4;spacingRight=4;overflow=hidden;rotatable=0;points=[[0,0.5],[1,0.5]];portConstraint=eastwest;" parent="Hxi5oiMrbfGEEpM-4Bx1-85" vertex="1">
          <mxGeometry y="260" width="290" height="26" as="geometry" />
        </mxCell>
        <mxCell id="4S57F3YJ-EKW5tLImAPO-13" value="- principals: Set&lt;UserId&gt;    责任人" style="text;strokeColor=none;fillColor=none;align=left;verticalAlign=top;spacingLeft=4;spacingRight=4;overflow=hidden;rotatable=0;points=[[0,0.5],[1,0.5]];portConstraint=eastwest;" parent="Hxi5oiMrbfGEEpM-4Bx1-85" vertex="1">
          <mxGeometry y="286" width="290" height="26" as="geometry" />
        </mxCell>
        <mxCell id="4S57F3YJ-EKW5tLImAPO-14" value="- extProps: JSONObject    问题扩展属性" style="text;strokeColor=none;fillColor=none;align=left;verticalAlign=top;spacingLeft=4;spacingRight=4;overflow=hidden;rotatable=0;points=[[0,0.5],[1,0.5]];portConstraint=eastwest;" parent="Hxi5oiMrbfGEEpM-4Bx1-85" vertex="1">
          <mxGeometry y="312" width="290" height="26" as="geometry" />
        </mxCell>
        <mxCell id="4S57F3YJ-EKW5tLImAPO-1" value="ReminderConfiguration" style="swimlane;fontStyle=0;childLayout=stackLayout;horizontal=1;startSize=26;fillColor=#dae8fc;horizontalStack=0;resizeParent=1;resizeParentMax=0;resizeLast=0;collapsible=1;marginBottom=0;strokeColor=#6c8ebf;" parent="WIyWlLk6GJQsqaUBKTNV-1" vertex="1">
          <mxGeometry x="920" y="852" width="280" height="78" as="geometry" />
        </mxCell>
        <mxCell id="4S57F3YJ-EKW5tLImAPO-2" value="- value: Integer    值" style="text;strokeColor=none;fillColor=none;align=left;verticalAlign=top;spacingLeft=4;spacingRight=4;overflow=hidden;rotatable=0;points=[[0,0.5],[1,0.5]];portConstraint=eastwest;" parent="4S57F3YJ-EKW5tLImAPO-1" vertex="1">
          <mxGeometry y="26" width="280" height="26" as="geometry" />
        </mxCell>
        <mxCell id="4S57F3YJ-EKW5tLImAPO-3" value="- unit: ChronoUnit    时间单位" style="text;strokeColor=none;fillColor=none;align=left;verticalAlign=top;spacingLeft=4;spacingRight=4;overflow=hidden;rotatable=0;points=[[0,0.5],[1,0.5]];portConstraint=eastwest;" parent="4S57F3YJ-EKW5tLImAPO-1" vertex="1">
          <mxGeometry y="52" width="280" height="26" as="geometry" />
        </mxCell>
        <mxCell id="4S57F3YJ-EKW5tLImAPO-4" style="edgeStyle=orthogonalEdgeStyle;rounded=0;orthogonalLoop=1;jettySize=auto;html=1;endArrow=diamondThin;endFill=1;startArrow=open;startFill=0;" parent="WIyWlLk6GJQsqaUBKTNV-1" source="4S57F3YJ-EKW5tLImAPO-1" target="4S57F3YJ-EKW5tLImAPO-0" edge="1">
          <mxGeometry relative="1" as="geometry">
            <Array as="points">
              <mxPoint x="1250" y="892" />
              <mxPoint x="1250" y="970" />
            </Array>
          </mxGeometry>
        </mxCell>
        <mxCell id="4S57F3YJ-EKW5tLImAPO-6" value="RiskAlternative" style="swimlane;fontStyle=0;childLayout=stackLayout;horizontal=1;startSize=26;fillColor=#dae8fc;horizontalStack=0;resizeParent=1;resizeParentMax=0;resizeLast=0;collapsible=1;marginBottom=0;strokeColor=#6c8ebf;" parent="WIyWlLk6GJQsqaUBKTNV-1" vertex="1">
          <mxGeometry x="890" y="1032" width="310" height="78" as="geometry" />
        </mxCell>
        <mxCell id="4S57F3YJ-EKW5tLImAPO-7" value="- description: String    备选方案描述" style="text;strokeColor=none;fillColor=none;align=left;verticalAlign=top;spacingLeft=4;spacingRight=4;overflow=hidden;rotatable=0;points=[[0,0.5],[1,0.5]];portConstraint=eastwest;" parent="4S57F3YJ-EKW5tLImAPO-6" vertex="1">
          <mxGeometry y="26" width="310" height="26" as="geometry" />
        </mxCell>
        <mxCell id="4S57F3YJ-EKW5tLImAPO-8" value="- attachmentRefs: List&lt;AttachmentRef&gt;    备选方案附件" style="text;strokeColor=none;fillColor=none;align=left;verticalAlign=top;spacingLeft=4;spacingRight=4;overflow=hidden;rotatable=0;points=[[0,0.5],[1,0.5]];portConstraint=eastwest;" parent="4S57F3YJ-EKW5tLImAPO-6" vertex="1">
          <mxGeometry y="52" width="310" height="26" as="geometry" />
        </mxCell>
        <mxCell id="4S57F3YJ-EKW5tLImAPO-9" style="edgeStyle=orthogonalEdgeStyle;rounded=0;orthogonalLoop=1;jettySize=auto;html=1;endArrow=diamondThin;endFill=1;startArrow=open;startFill=0;" parent="WIyWlLk6GJQsqaUBKTNV-1" source="4S57F3YJ-EKW5tLImAPO-7" target="4S57F3YJ-EKW5tLImAPO-5" edge="1">
          <mxGeometry relative="1" as="geometry">
            <mxPoint x="6560" y="1624" as="sourcePoint" />
            <mxPoint x="6400" y="1694" as="targetPoint" />
            <Array as="points">
              <mxPoint x="1250" y="1082" />
              <mxPoint x="1250" y="996" />
            </Array>
          </mxGeometry>
        </mxCell>
        <mxCell id="4S57F3YJ-EKW5tLImAPO-16" value="RiskCategory" style="swimlane;fontStyle=0;childLayout=stackLayout;horizontal=1;startSize=26;fillColor=#e1d5e7;horizontalStack=0;resizeParent=1;resizeParentMax=0;resizeLast=0;collapsible=1;marginBottom=0;strokeColor=#9673a6;" parent="WIyWlLk6GJQsqaUBKTNV-1" vertex="1">
          <mxGeometry x="1275" y="2356" width="280" height="130" as="geometry" />
        </mxCell>
        <mxCell id="4S57F3YJ-EKW5tLImAPO-17" value="- name: String    分类名称" style="text;strokeColor=none;fillColor=none;align=left;verticalAlign=top;spacingLeft=4;spacingRight=4;overflow=hidden;rotatable=0;points=[[0,0.5],[1,0.5]];portConstraint=eastwest;" parent="4S57F3YJ-EKW5tLImAPO-16" vertex="1">
          <mxGeometry y="26" width="280" height="26" as="geometry" />
        </mxCell>
        <mxCell id="4S57F3YJ-EKW5tLImAPO-18" value="- description: String    分类描述" style="text;strokeColor=none;fillColor=none;align=left;verticalAlign=top;spacingLeft=4;spacingRight=4;overflow=hidden;rotatable=0;points=[[0,0.5],[1,0.5]];portConstraint=eastwest;" parent="4S57F3YJ-EKW5tLImAPO-16" vertex="1">
          <mxGeometry y="52" width="280" height="26" as="geometry" />
        </mxCell>
        <mxCell id="4S57F3YJ-EKW5tLImAPO-20" value="- icon: String    图标地址" style="text;strokeColor=none;fillColor=none;align=left;verticalAlign=top;spacingLeft=4;spacingRight=4;overflow=hidden;rotatable=0;points=[[0,0.5],[1,0.5]];portConstraint=eastwest;" parent="4S57F3YJ-EKW5tLImAPO-16" vertex="1">
          <mxGeometry y="78" width="280" height="26" as="geometry" />
        </mxCell>
        <mxCell id="4S57F3YJ-EKW5tLImAPO-19" value="- severities: List&lt;RiskServerity&gt;    风险严重度" style="text;strokeColor=none;fillColor=none;align=left;verticalAlign=top;spacingLeft=4;spacingRight=4;overflow=hidden;rotatable=0;points=[[0,0.5],[1,0.5]];portConstraint=eastwest;" parent="4S57F3YJ-EKW5tLImAPO-16" vertex="1">
          <mxGeometry y="104" width="280" height="26" as="geometry" />
        </mxCell>
        <mxCell id="-mcRDKc0zju_STvuJ2zb-86" style="rounded=0;orthogonalLoop=1;jettySize=auto;html=1;exitX=0.5;exitY=0;exitDx=0;exitDy=0;startArrow=none;startFill=0;endArrow=block;endFill=0;entryX=0.344;entryY=0.958;entryDx=0;entryDy=0;entryPerimeter=0;" parent="WIyWlLk6GJQsqaUBKTNV-1" source="4S57F3YJ-EKW5tLImAPO-21" target="DC-7fMDGKw9MtQms55Px-24" edge="1">
          <mxGeometry relative="1" as="geometry" />
        </mxCell>
        <mxCell id="-mcRDKc0zju_STvuJ2zb-87" value="Extends" style="edgeLabel;html=1;align=center;verticalAlign=middle;resizable=0;points=[];" parent="-mcRDKc0zju_STvuJ2zb-86" vertex="1" connectable="0">
          <mxGeometry x="0.0644" y="-3" relative="1" as="geometry">
            <mxPoint x="-1" as="offset" />
          </mxGeometry>
        </mxCell>
        <mxCell id="4S57F3YJ-EKW5tLImAPO-21" value="RiskSeverity" style="swimlane;fontStyle=0;childLayout=stackLayout;horizontal=1;startSize=26;fillColor=#d5e8d4;horizontalStack=0;resizeParent=1;resizeParentMax=0;resizeLast=0;collapsible=1;marginBottom=0;strokeColor=#82b366;" parent="WIyWlLk6GJQsqaUBKTNV-1" vertex="1">
          <mxGeometry x="1415" y="2064" width="300" height="78" as="geometry" />
        </mxCell>
        <mxCell id="4S57F3YJ-EKW5tLImAPO-23" value="- level: SeverityLevel    严重程度" style="text;strokeColor=none;fillColor=none;align=left;verticalAlign=top;spacingLeft=4;spacingRight=4;overflow=hidden;rotatable=0;points=[[0,0.5],[1,0.5]];portConstraint=eastwest;" parent="4S57F3YJ-EKW5tLImAPO-21" vertex="1">
          <mxGeometry y="26" width="300" height="26" as="geometry" />
        </mxCell>
        <mxCell id="4S57F3YJ-EKW5tLImAPO-24" value="- reportingPeriods: List&lt;ReportingPeriod&gt;    通报周期" style="text;strokeColor=none;fillColor=none;align=left;verticalAlign=top;spacingLeft=4;spacingRight=4;overflow=hidden;rotatable=0;points=[[0,0.5],[1,0.5]];portConstraint=eastwest;" parent="4S57F3YJ-EKW5tLImAPO-21" vertex="1">
          <mxGeometry y="52" width="300" height="26" as="geometry" />
        </mxCell>
        <mxCell id="4S57F3YJ-EKW5tLImAPO-25" style="rounded=0;orthogonalLoop=1;jettySize=auto;html=1;startArrow=open;startFill=0;endArrow=diamondThin;endFill=1;entryX=0;entryY=0.5;entryDx=0;entryDy=0;edgeStyle=orthogonalEdgeStyle;" parent="WIyWlLk6GJQsqaUBKTNV-1" source="4S57F3YJ-EKW5tLImAPO-21" target="4S57F3YJ-EKW5tLImAPO-19" edge="1">
          <mxGeometry relative="1" as="geometry">
            <Array as="points">
              <mxPoint x="1535" y="2270" />
              <mxPoint x="1250" y="2270" />
              <mxPoint x="1250" y="2473" />
            </Array>
          </mxGeometry>
        </mxCell>
        <mxCell id="s4KalK-dnCNQf5f8MQ_Z-33" style="rounded=0;orthogonalLoop=1;jettySize=auto;html=1;startArrow=none;startFill=0;endArrow=block;endFill=0;exitX=0;exitY=0.5;exitDx=0;exitDy=0;" parent="WIyWlLk6GJQsqaUBKTNV-1" source="s4KalK-dnCNQf5f8MQ_Z-26" target="Hxi5oiMrbfGEEpM-4Bx1-54" edge="1">
          <mxGeometry relative="1" as="geometry" />
        </mxCell>
        <mxCell id="-mcRDKc0zju_STvuJ2zb-99" value="Extends" style="edgeLabel;html=1;align=center;verticalAlign=middle;resizable=0;points=[];" parent="s4KalK-dnCNQf5f8MQ_Z-33" vertex="1" connectable="0">
          <mxGeometry x="0.2264" relative="1" as="geometry">
            <mxPoint as="offset" />
          </mxGeometry>
        </mxCell>
        <mxCell id="s4KalK-dnCNQf5f8MQ_Z-4" value="Task" style="swimlane;fontStyle=0;childLayout=stackLayout;horizontal=1;startSize=26;fillColor=#e1d5e7;horizontalStack=0;resizeParent=1;resizeParentMax=0;resizeLast=0;collapsible=1;marginBottom=0;strokeColor=#9673a6;" parent="WIyWlLk6GJQsqaUBKTNV-1" vertex="1">
          <mxGeometry x="2620" y="342" width="370" height="468" as="geometry" />
        </mxCell>
        <mxCell id="s4KalK-dnCNQf5f8MQ_Z-5" value="- wbsCode: String    任务分解代码" style="text;strokeColor=none;fillColor=none;align=left;verticalAlign=top;spacingLeft=4;spacingRight=4;overflow=hidden;rotatable=0;points=[[0,0.5],[1,0.5]];portConstraint=eastwest;" parent="s4KalK-dnCNQf5f8MQ_Z-4" vertex="1">
          <mxGeometry y="26" width="370" height="26" as="geometry" />
        </mxCell>
        <mxCell id="s4KalK-dnCNQf5f8MQ_Z-6" value="- plannedType: PlannedType    计划类型" style="text;strokeColor=none;fillColor=none;align=left;verticalAlign=top;spacingLeft=4;spacingRight=4;overflow=hidden;rotatable=0;points=[[0,0.5],[1,0.5]];portConstraint=eastwest;" parent="s4KalK-dnCNQf5f8MQ_Z-4" vertex="1">
          <mxGeometry y="52" width="370" height="26" as="geometry" />
        </mxCell>
        <mxCell id="s4KalK-dnCNQf5f8MQ_Z-7" value="- description: String    任务描述" style="text;strokeColor=none;fillColor=none;align=left;verticalAlign=top;spacingLeft=4;spacingRight=4;overflow=hidden;rotatable=0;points=[[0,0.5],[1,0.5]];portConstraint=eastwest;" parent="s4KalK-dnCNQf5f8MQ_Z-4" vertex="1">
          <mxGeometry y="78" width="370" height="26" as="geometry" />
        </mxCell>
        <mxCell id="s4KalK-dnCNQf5f8MQ_Z-12" value="- priorityId: PriorityId    优先级Id" style="text;strokeColor=none;fillColor=none;align=left;verticalAlign=top;spacingLeft=4;spacingRight=4;overflow=hidden;rotatable=0;points=[[0,0.5],[1,0.5]];portConstraint=eastwest;" parent="s4KalK-dnCNQf5f8MQ_Z-4" vertex="1">
          <mxGeometry y="104" width="370" height="26" as="geometry" />
        </mxCell>
        <mxCell id="s4KalK-dnCNQf5f8MQ_Z-14" value="- parent: Task    父任务" style="text;strokeColor=none;fillColor=none;align=left;verticalAlign=top;spacingLeft=4;spacingRight=4;overflow=hidden;rotatable=0;points=[[0,0.5],[1,0.5]];portConstraint=eastwest;" parent="s4KalK-dnCNQf5f8MQ_Z-4" vertex="1">
          <mxGeometry y="130" width="370" height="26" as="geometry" />
        </mxCell>
        <mxCell id="s4KalK-dnCNQf5f8MQ_Z-18" value="- relations: Set&lt;TaskRelation&gt;    作为前置任务时的关系" style="text;strokeColor=none;fillColor=none;align=left;verticalAlign=top;spacingLeft=4;spacingRight=4;overflow=hidden;rotatable=0;points=[[0,0.5],[1,0.5]];portConstraint=eastwest;" parent="s4KalK-dnCNQf5f8MQ_Z-4" vertex="1">
          <mxGeometry y="156" width="370" height="26" as="geometry" />
        </mxCell>
        <mxCell id="s4KalK-dnCNQf5f8MQ_Z-19" value="- sourceRelations: Set&lt;TaskRelation&gt;    作为后置任务时的关系" style="text;strokeColor=none;fillColor=none;align=left;verticalAlign=top;spacingLeft=4;spacingRight=4;overflow=hidden;rotatable=0;points=[[0,0.5],[1,0.5]];portConstraint=eastwest;" parent="s4KalK-dnCNQf5f8MQ_Z-4" vertex="1">
          <mxGeometry y="182" width="370" height="26" as="geometry" />
        </mxCell>
        <mxCell id="s4KalK-dnCNQf5f8MQ_Z-23" value="- plannedDuration: Double    计划工期（小时）" style="text;strokeColor=none;fillColor=none;align=left;verticalAlign=top;spacingLeft=4;spacingRight=4;overflow=hidden;rotatable=0;points=[[0,0.5],[1,0.5]];portConstraint=eastwest;" parent="s4KalK-dnCNQf5f8MQ_Z-4" vertex="1">
          <mxGeometry y="208" width="370" height="26" as="geometry" />
        </mxCell>
        <mxCell id="s4KalK-dnCNQf5f8MQ_Z-22" value="- actualDuration: Double    实际工期（小时）" style="text;strokeColor=none;fillColor=none;align=left;verticalAlign=top;spacingLeft=4;spacingRight=4;overflow=hidden;rotatable=0;points=[[0,0.5],[1,0.5]];portConstraint=eastwest;" parent="s4KalK-dnCNQf5f8MQ_Z-4" vertex="1">
          <mxGeometry y="234" width="370" height="26" as="geometry" />
        </mxCell>
        <mxCell id="s4KalK-dnCNQf5f8MQ_Z-21" value="- assessedManHour: Double    任务评估工作量(小时) 手动填写" style="text;strokeColor=none;fillColor=none;align=left;verticalAlign=top;spacingLeft=4;spacingRight=4;overflow=hidden;rotatable=0;points=[[0,0.5],[1,0.5]];portConstraint=eastwest;" parent="s4KalK-dnCNQf5f8MQ_Z-4" vertex="1">
          <mxGeometry y="260" width="370" height="26" as="geometry" />
        </mxCell>
        <mxCell id="s4KalK-dnCNQf5f8MQ_Z-20" value="- actualManHour: Double    实际工时" style="text;strokeColor=none;fillColor=none;align=left;verticalAlign=top;spacingLeft=4;spacingRight=4;overflow=hidden;rotatable=0;points=[[0,0.5],[1,0.5]];portConstraint=eastwest;" parent="s4KalK-dnCNQf5f8MQ_Z-4" vertex="1">
          <mxGeometry y="286" width="370" height="26" as="geometry" />
        </mxCell>
        <mxCell id="s4KalK-dnCNQf5f8MQ_Z-27" value="- completePercent: Double    进度" style="text;strokeColor=none;fillColor=none;align=left;verticalAlign=top;spacingLeft=4;spacingRight=4;overflow=hidden;rotatable=0;points=[[0,0.5],[1,0.5]];portConstraint=eastwest;" parent="s4KalK-dnCNQf5f8MQ_Z-4" vertex="1">
          <mxGeometry y="312" width="370" height="26" as="geometry" />
        </mxCell>
        <mxCell id="s4KalK-dnCNQf5f8MQ_Z-26" value="- principal: UserId    责任人Id" style="text;strokeColor=none;fillColor=none;align=left;verticalAlign=top;spacingLeft=4;spacingRight=4;overflow=hidden;rotatable=0;points=[[0,0.5],[1,0.5]];portConstraint=eastwest;fontStyle=1" parent="s4KalK-dnCNQf5f8MQ_Z-4" vertex="1">
          <mxGeometry y="338" width="370" height="26" as="geometry" />
        </mxCell>
        <mxCell id="s4KalK-dnCNQf5f8MQ_Z-25" value="- owningUsers: Set&lt;UserId&gt;    参与人Ids" style="text;strokeColor=none;fillColor=none;align=left;verticalAlign=top;spacingLeft=4;spacingRight=4;overflow=hidden;rotatable=0;points=[[0,0.5],[1,0.5]];portConstraint=eastwest;fontStyle=1" parent="s4KalK-dnCNQf5f8MQ_Z-4" vertex="1">
          <mxGeometry y="364" width="370" height="26" as="geometry" />
        </mxCell>
        <mxCell id="-mcRDKc0zju_STvuJ2zb-113" value="- attachmentRefs: List&lt;AttachmentRef&gt;    附件引用" style="text;strokeColor=none;fillColor=none;align=left;verticalAlign=top;spacingLeft=4;spacingRight=4;overflow=hidden;rotatable=0;points=[[0,0.5],[1,0.5]];portConstraint=eastwest;" parent="s4KalK-dnCNQf5f8MQ_Z-4" vertex="1">
          <mxGeometry y="390" width="370" height="26" as="geometry" />
        </mxCell>
        <mxCell id="-mcRDKc0zju_STvuJ2zb-111" value="- deliveriables: List&lt;TaskDeliverable&gt;    交付物" style="text;strokeColor=none;fillColor=none;align=left;verticalAlign=top;spacingLeft=4;spacingRight=4;overflow=hidden;rotatable=0;points=[[0,0.5],[1,0.5]];portConstraint=eastwest;" parent="s4KalK-dnCNQf5f8MQ_Z-4" vertex="1">
          <mxGeometry y="416" width="370" height="26" as="geometry" />
        </mxCell>
        <mxCell id="s4KalK-dnCNQf5f8MQ_Z-24" value="- extProps: JSONObject    任务扩展属性" style="text;strokeColor=none;fillColor=none;align=left;verticalAlign=top;spacingLeft=4;spacingRight=4;overflow=hidden;rotatable=0;points=[[0,0.5],[1,0.5]];portConstraint=eastwest;" parent="s4KalK-dnCNQf5f8MQ_Z-4" vertex="1">
          <mxGeometry y="442" width="370" height="26" as="geometry" />
        </mxCell>
        <mxCell id="s4KalK-dnCNQf5f8MQ_Z-8" value="&lt;&lt;enumeration&gt;&gt;&#xa;PlannedType" style="swimlane;fontStyle=0;childLayout=stackLayout;horizontal=1;startSize=26;fillColor=#dae8fc;horizontalStack=0;resizeParent=1;resizeParentMax=0;resizeLast=0;collapsible=1;marginBottom=0;strokeColor=#6c8ebf;" parent="WIyWlLk6GJQsqaUBKTNV-1" vertex="1">
          <mxGeometry x="3430" y="358" width="250" height="164" as="geometry" />
        </mxCell>
        <mxCell id="s4KalK-dnCNQf5f8MQ_Z-30" value="SUMMARY(&quot;SUMMARY&quot;, &quot;摘要&quot;)" style="text;strokeColor=none;fillColor=none;align=left;verticalAlign=top;spacingLeft=4;spacingRight=4;overflow=hidden;rotatable=0;points=[[0,0.5],[1,0.5]];portConstraint=eastwest;" parent="s4KalK-dnCNQf5f8MQ_Z-8" vertex="1">
          <mxGeometry y="26" width="250" height="26" as="geometry" />
        </mxCell>
        <mxCell id="s4KalK-dnCNQf5f8MQ_Z-28" value="TASK(&quot;TASK&quot;, &quot;任务&quot;)" style="text;strokeColor=none;fillColor=none;align=left;verticalAlign=top;spacingLeft=4;spacingRight=4;overflow=hidden;rotatable=0;points=[[0,0.5],[1,0.5]];portConstraint=eastwest;" parent="s4KalK-dnCNQf5f8MQ_Z-8" vertex="1">
          <mxGeometry y="52" width="250" height="26" as="geometry" />
        </mxCell>
        <mxCell id="s4KalK-dnCNQf5f8MQ_Z-29" value="MILESTONE(&quot;MILESTONE&quot;, &quot;里程碑&quot;)" style="text;strokeColor=none;fillColor=none;align=left;verticalAlign=top;spacingLeft=4;spacingRight=4;overflow=hidden;rotatable=0;points=[[0,0.5],[1,0.5]];portConstraint=eastwest;" parent="s4KalK-dnCNQf5f8MQ_Z-8" vertex="1">
          <mxGeometry y="78" width="250" height="26" as="geometry" />
        </mxCell>
        <mxCell id="s4KalK-dnCNQf5f8MQ_Z-31" value="" style="line;strokeWidth=1;fillColor=none;align=left;verticalAlign=middle;spacingTop=-1;spacingLeft=3;spacingRight=3;rotatable=0;labelPosition=right;points=[];portConstraint=eastwest;" parent="s4KalK-dnCNQf5f8MQ_Z-8" vertex="1">
          <mxGeometry y="104" width="250" height="8" as="geometry" />
        </mxCell>
        <mxCell id="s4KalK-dnCNQf5f8MQ_Z-9" value="- name: String" style="text;strokeColor=none;fillColor=none;align=left;verticalAlign=top;spacingLeft=4;spacingRight=4;overflow=hidden;rotatable=0;points=[[0,0.5],[1,0.5]];portConstraint=eastwest;" parent="s4KalK-dnCNQf5f8MQ_Z-8" vertex="1">
          <mxGeometry y="112" width="250" height="26" as="geometry" />
        </mxCell>
        <mxCell id="s4KalK-dnCNQf5f8MQ_Z-10" value="- displayName: String" style="text;strokeColor=none;fillColor=none;align=left;verticalAlign=top;spacingLeft=4;spacingRight=4;overflow=hidden;rotatable=0;points=[[0,0.5],[1,0.5]];portConstraint=eastwest;" parent="s4KalK-dnCNQf5f8MQ_Z-8" vertex="1">
          <mxGeometry y="138" width="250" height="26" as="geometry" />
        </mxCell>
        <mxCell id="s4KalK-dnCNQf5f8MQ_Z-11" style="edgeStyle=orthogonalEdgeStyle;rounded=0;orthogonalLoop=1;jettySize=auto;html=1;startArrow=open;startFill=0;endArrow=circlePlus;endFill=0;" parent="WIyWlLk6GJQsqaUBKTNV-1" source="s4KalK-dnCNQf5f8MQ_Z-8" target="s4KalK-dnCNQf5f8MQ_Z-6" edge="1">
          <mxGeometry relative="1" as="geometry">
            <mxPoint x="3430" y="407" as="sourcePoint" />
            <mxPoint x="6350" y="1802" as="targetPoint" />
            <Array as="points">
              <mxPoint x="3330" y="407" />
              <mxPoint x="3330" y="407" />
            </Array>
          </mxGeometry>
        </mxCell>
        <mxCell id="s4KalK-dnCNQf5f8MQ_Z-48" style="rounded=0;orthogonalLoop=1;jettySize=auto;html=1;entryX=1;entryY=0.5;entryDx=0;entryDy=0;startArrow=open;startFill=0;endArrow=diamondThin;endFill=1;exitX=-0.001;exitY=0.027;exitDx=0;exitDy=0;exitPerimeter=0;" parent="WIyWlLk6GJQsqaUBKTNV-1" source="s4KalK-dnCNQf5f8MQ_Z-40" target="s4KalK-dnCNQf5f8MQ_Z-18" edge="1">
          <mxGeometry relative="1" as="geometry" />
        </mxCell>
        <mxCell id="s4KalK-dnCNQf5f8MQ_Z-49" style="rounded=0;orthogonalLoop=1;jettySize=auto;html=1;entryX=1;entryY=0.5;entryDx=0;entryDy=0;startArrow=open;startFill=0;endArrow=diamondThin;endFill=1;exitX=0.005;exitY=1.071;exitDx=0;exitDy=0;exitPerimeter=0;" parent="WIyWlLk6GJQsqaUBKTNV-1" source="s4KalK-dnCNQf5f8MQ_Z-40" target="s4KalK-dnCNQf5f8MQ_Z-19" edge="1">
          <mxGeometry relative="1" as="geometry" />
        </mxCell>
        <mxCell id="s4KalK-dnCNQf5f8MQ_Z-37" value="TaskRelation" style="swimlane;fontStyle=0;childLayout=stackLayout;horizontal=1;startSize=26;fillColor=#d5e8d4;horizontalStack=0;resizeParent=1;resizeParentMax=0;resizeLast=0;collapsible=1;marginBottom=0;strokeColor=#82b366;" parent="WIyWlLk6GJQsqaUBKTNV-1" vertex="1">
          <mxGeometry x="3110" y="432" width="230" height="182" as="geometry" />
        </mxCell>
        <mxCell id="s4KalK-dnCNQf5f8MQ_Z-47" value="- source: Task    源任务" style="text;strokeColor=none;fillColor=none;align=left;verticalAlign=top;spacingLeft=4;spacingRight=4;overflow=hidden;rotatable=0;points=[[0,0.5],[1,0.5]];portConstraint=eastwest;" parent="s4KalK-dnCNQf5f8MQ_Z-37" vertex="1">
          <mxGeometry y="26" width="230" height="26" as="geometry" />
        </mxCell>
        <mxCell id="s4KalK-dnCNQf5f8MQ_Z-39" value="- target: Task    目标任务" style="text;strokeColor=none;fillColor=none;align=left;verticalAlign=top;spacingLeft=4;spacingRight=4;overflow=hidden;rotatable=0;points=[[0,0.5],[1,0.5]];portConstraint=eastwest;" parent="s4KalK-dnCNQf5f8MQ_Z-37" vertex="1">
          <mxGeometry y="52" width="230" height="26" as="geometry" />
        </mxCell>
        <mxCell id="s4KalK-dnCNQf5f8MQ_Z-40" value="- relation: TaskRelation    任务关系" style="text;strokeColor=none;fillColor=none;align=left;verticalAlign=top;spacingLeft=4;spacingRight=4;overflow=hidden;rotatable=0;points=[[0,0.5],[1,0.5]];portConstraint=eastwest;" parent="s4KalK-dnCNQf5f8MQ_Z-37" vertex="1">
          <mxGeometry y="78" width="230" height="26" as="geometry" />
        </mxCell>
        <mxCell id="s4KalK-dnCNQf5f8MQ_Z-41" value="- delay: Double    延搁时间（天）" style="text;strokeColor=none;fillColor=none;align=left;verticalAlign=top;spacingLeft=4;spacingRight=4;overflow=hidden;rotatable=0;points=[[0,0.5],[1,0.5]];portConstraint=eastwest;" parent="s4KalK-dnCNQf5f8MQ_Z-37" vertex="1">
          <mxGeometry y="104" width="230" height="26" as="geometry" />
        </mxCell>
        <mxCell id="s4KalK-dnCNQf5f8MQ_Z-42" value="- delayType: TimeUnitEnum    延搁类型" style="text;strokeColor=none;fillColor=none;align=left;verticalAlign=top;spacingLeft=4;spacingRight=4;overflow=hidden;rotatable=0;points=[[0,0.5],[1,0.5]];portConstraint=eastwest;" parent="s4KalK-dnCNQf5f8MQ_Z-37" vertex="1">
          <mxGeometry y="130" width="230" height="26" as="geometry" />
        </mxCell>
        <mxCell id="s4KalK-dnCNQf5f8MQ_Z-43" value="- delayHours: Double    延搁时间（小时）" style="text;strokeColor=none;fillColor=none;align=left;verticalAlign=top;spacingLeft=4;spacingRight=4;overflow=hidden;rotatable=0;points=[[0,0.5],[1,0.5]];portConstraint=eastwest;" parent="s4KalK-dnCNQf5f8MQ_Z-37" vertex="1">
          <mxGeometry y="156" width="230" height="26" as="geometry" />
        </mxCell>
        <mxCell id="s4KalK-dnCNQf5f8MQ_Z-53" value="WorkflowStatus" style="swimlane;fontStyle=0;childLayout=stackLayout;horizontal=1;startSize=26;fillColor=#e1d5e7;horizontalStack=0;resizeParent=1;resizeParentMax=0;resizeLast=0;collapsible=1;marginBottom=0;strokeColor=#9673a6;" parent="WIyWlLk6GJQsqaUBKTNV-1" vertex="1">
          <mxGeometry x="2250" y="2297" width="190" height="78" as="geometry" />
        </mxCell>
        <mxCell id="s4KalK-dnCNQf5f8MQ_Z-59" value="- domain: String    领域" style="text;strokeColor=none;fillColor=none;align=left;verticalAlign=top;spacingLeft=4;spacingRight=4;overflow=hidden;rotatable=0;points=[[0,0.5],[1,0.5]];portConstraint=eastwest;" parent="s4KalK-dnCNQf5f8MQ_Z-53" vertex="1">
          <mxGeometry y="26" width="190" height="26" as="geometry" />
        </mxCell>
        <mxCell id="s4KalK-dnCNQf5f8MQ_Z-61" value="- basics: BasicStatus    基础状态" style="text;strokeColor=none;fillColor=none;align=left;verticalAlign=top;spacingLeft=4;spacingRight=4;overflow=hidden;rotatable=0;points=[[0,0.5],[1,0.5]];portConstraint=eastwest;" parent="s4KalK-dnCNQf5f8MQ_Z-53" vertex="1">
          <mxGeometry y="52" width="190" height="26" as="geometry" />
        </mxCell>
        <mxCell id="xaXWIEfhId6lT726xvUP-0" value="WorkItemRelation" style="swimlane;fontStyle=0;childLayout=stackLayout;horizontal=1;startSize=26;fillColor=#e1d5e7;horizontalStack=0;resizeParent=1;resizeParentMax=0;resizeLast=0;collapsible=1;marginBottom=0;strokeColor=#9673a6;" parent="WIyWlLk6GJQsqaUBKTNV-1" vertex="1">
          <mxGeometry x="2670" y="966" width="230" height="156" as="geometry" />
        </mxCell>
        <mxCell id="xaXWIEfhId6lT726xvUP-1" value="- primaryType: String    主对象类别" style="text;strokeColor=none;fillColor=none;align=left;verticalAlign=top;spacingLeft=4;spacingRight=4;overflow=hidden;rotatable=0;points=[[0,0.5],[1,0.5]];portConstraint=eastwest;" parent="xaXWIEfhId6lT726xvUP-0" vertex="1">
          <mxGeometry y="26" width="230" height="26" as="geometry" />
        </mxCell>
        <mxCell id="xaXWIEfhId6lT726xvUP-2" value="- primaryId: ID    主对象ID" style="text;strokeColor=none;fillColor=none;align=left;verticalAlign=top;spacingLeft=4;spacingRight=4;overflow=hidden;rotatable=0;points=[[0,0.5],[1,0.5]];portConstraint=eastwest;fontStyle=1" parent="xaXWIEfhId6lT726xvUP-0" vertex="1">
          <mxGeometry y="52" width="230" height="26" as="geometry" />
        </mxCell>
        <mxCell id="xaXWIEfhId6lT726xvUP-3" value="- secondaryType: String    关联对象类别" style="text;strokeColor=none;fillColor=none;align=left;verticalAlign=top;spacingLeft=4;spacingRight=4;overflow=hidden;rotatable=0;points=[[0,0.5],[1,0.5]];portConstraint=eastwest;" parent="xaXWIEfhId6lT726xvUP-0" vertex="1">
          <mxGeometry y="78" width="230" height="26" as="geometry" />
        </mxCell>
        <mxCell id="xaXWIEfhId6lT726xvUP-4" value="- secondaryId: ID    关联对象ID" style="text;strokeColor=none;fillColor=none;align=left;verticalAlign=top;spacingLeft=4;spacingRight=4;overflow=hidden;rotatable=0;points=[[0,0.5],[1,0.5]];portConstraint=eastwest;fontStyle=1" parent="xaXWIEfhId6lT726xvUP-0" vertex="1">
          <mxGeometry y="104" width="230" height="26" as="geometry" />
        </mxCell>
        <mxCell id="xaXWIEfhId6lT726xvUP-5" value="- relationship: String    关系" style="text;strokeColor=none;fillColor=none;align=left;verticalAlign=top;spacingLeft=4;spacingRight=4;overflow=hidden;rotatable=0;points=[[0,0.5],[1,0.5]];portConstraint=eastwest;" parent="xaXWIEfhId6lT726xvUP-0" vertex="1">
          <mxGeometry y="130" width="230" height="26" as="geometry" />
        </mxCell>
        <mxCell id="xaXWIEfhId6lT726xvUP-31" style="rounded=0;orthogonalLoop=1;jettySize=auto;html=1;endArrow=open;endFill=0;startArrow=circlePlus;startFill=0;" parent="WIyWlLk6GJQsqaUBKTNV-1" source="xaXWIEfhId6lT726xvUP-17" target="xaXWIEfhId6lT726xvUP-20" edge="1">
          <mxGeometry relative="1" as="geometry" />
        </mxCell>
        <mxCell id="xaXWIEfhId6lT726xvUP-35" style="rounded=0;orthogonalLoop=1;jettySize=auto;html=1;startArrow=open;startFill=0;endArrow=diamondThin;endFill=1;entryX=0;entryY=0.5;entryDx=0;entryDy=0;" parent="WIyWlLk6GJQsqaUBKTNV-1" source="xaXWIEfhId6lT726xvUP-8" target="xaXWIEfhId6lT726xvUP-34" edge="1">
          <mxGeometry relative="1" as="geometry" />
        </mxCell>
        <mxCell id="B7V7IaM9gYt7S6QEFZPg-8" style="rounded=0;orthogonalLoop=1;jettySize=auto;html=1;endArrow=diamondThin;endFill=1;startArrow=open;startFill=0;entryX=0;entryY=0.5;entryDx=0;entryDy=0;edgeStyle=orthogonalEdgeStyle;" parent="WIyWlLk6GJQsqaUBKTNV-1" source="xaXWIEfhId6lT726xvUP-8" target="B7V7IaM9gYt7S6QEFZPg-6" edge="1">
          <mxGeometry relative="1" as="geometry" />
        </mxCell>
        <mxCell id="xaXWIEfhId6lT726xvUP-8" value="PropertyConfiguration" style="swimlane;fontStyle=0;childLayout=stackLayout;horizontal=1;startSize=26;fillColor=#dae8fc;horizontalStack=0;resizeParent=1;resizeParentMax=0;resizeLast=0;collapsible=1;marginBottom=0;strokeColor=#6c8ebf;" parent="WIyWlLk6GJQsqaUBKTNV-1" vertex="1">
          <mxGeometry x="805" y="1456" width="220" height="312" as="geometry" />
        </mxCell>
        <mxCell id="xaXWIEfhId6lT726xvUP-9" value="- name: String    属性名" style="text;strokeColor=none;fillColor=none;align=left;verticalAlign=top;spacingLeft=4;spacingRight=4;overflow=hidden;rotatable=0;points=[[0,0.5],[1,0.5]];portConstraint=eastwest;" parent="xaXWIEfhId6lT726xvUP-8" vertex="1">
          <mxGeometry y="26" width="220" height="26" as="geometry" />
        </mxCell>
        <mxCell id="xaXWIEfhId6lT726xvUP-10" value="- zhName: String    属性中文名" style="text;strokeColor=none;fillColor=none;align=left;verticalAlign=top;spacingLeft=4;spacingRight=4;overflow=hidden;rotatable=0;points=[[0,0.5],[1,0.5]];portConstraint=eastwest;" parent="xaXWIEfhId6lT726xvUP-8" vertex="1">
          <mxGeometry y="52" width="220" height="26" as="geometry" />
        </mxCell>
        <mxCell id="xaXWIEfhId6lT726xvUP-11" value="- remark: String    备注" style="text;strokeColor=none;fillColor=none;align=left;verticalAlign=top;spacingLeft=4;spacingRight=4;overflow=hidden;rotatable=0;points=[[0,0.5],[1,0.5]];portConstraint=eastwest;" parent="xaXWIEfhId6lT726xvUP-8" vertex="1">
          <mxGeometry y="78" width="220" height="26" as="geometry" />
        </mxCell>
        <mxCell id="xaXWIEfhId6lT726xvUP-14" value="- fixed: Boolean    是否固定属性" style="text;strokeColor=none;fillColor=none;align=left;verticalAlign=top;spacingLeft=4;spacingRight=4;overflow=hidden;rotatable=0;points=[[0,0.5],[1,0.5]];portConstraint=eastwest;" parent="xaXWIEfhId6lT726xvUP-8" vertex="1">
          <mxGeometry y="104" width="220" height="26" as="geometry" />
        </mxCell>
        <mxCell id="xaXWIEfhId6lT726xvUP-13" value="- required: Boolean    是否必填" style="text;strokeColor=none;fillColor=none;align=left;verticalAlign=top;spacingLeft=4;spacingRight=4;overflow=hidden;rotatable=0;points=[[0,0.5],[1,0.5]];portConstraint=eastwest;" parent="xaXWIEfhId6lT726xvUP-8" vertex="1">
          <mxGeometry y="130" width="220" height="26" as="geometry" />
        </mxCell>
        <mxCell id="xaXWIEfhId6lT726xvUP-12" value="- enabled: Boolean    是否启用" style="text;strokeColor=none;fillColor=none;align=left;verticalAlign=top;spacingLeft=4;spacingRight=4;overflow=hidden;rotatable=0;points=[[0,0.5],[1,0.5]];portConstraint=eastwest;" parent="xaXWIEfhId6lT726xvUP-8" vertex="1">
          <mxGeometry y="156" width="220" height="26" as="geometry" />
        </mxCell>
        <mxCell id="xaXWIEfhId6lT726xvUP-15" value="- editable: Boolean    是否可编辑" style="text;strokeColor=none;fillColor=none;align=left;verticalAlign=top;spacingLeft=4;spacingRight=4;overflow=hidden;rotatable=0;points=[[0,0.5],[1,0.5]];portConstraint=eastwest;" parent="xaXWIEfhId6lT726xvUP-8" vertex="1">
          <mxGeometry y="182" width="220" height="26" as="geometry" />
        </mxCell>
        <mxCell id="xaXWIEfhId6lT726xvUP-16" value="- type: PropertyType    属性类型" style="text;strokeColor=none;fillColor=none;align=left;verticalAlign=top;spacingLeft=4;spacingRight=4;overflow=hidden;rotatable=0;points=[[0,0.5],[1,0.5]];portConstraint=eastwest;" parent="xaXWIEfhId6lT726xvUP-8" vertex="1">
          <mxGeometry y="208" width="220" height="26" as="geometry" />
        </mxCell>
        <mxCell id="xaXWIEfhId6lT726xvUP-18" value="- scopeType: String    领域类型" style="text;strokeColor=none;fillColor=none;align=left;verticalAlign=top;spacingLeft=4;spacingRight=4;overflow=hidden;rotatable=0;points=[[0,0.5],[1,0.5]];portConstraint=eastwest;" parent="xaXWIEfhId6lT726xvUP-8" vertex="1">
          <mxGeometry y="234" width="220" height="26" as="geometry" />
        </mxCell>
        <mxCell id="xaXWIEfhId6lT726xvUP-19" value="- scopeTypeId: Long    领域类型ID" style="text;strokeColor=none;fillColor=none;align=left;verticalAlign=top;spacingLeft=4;spacingRight=4;overflow=hidden;rotatable=0;points=[[0,0.5],[1,0.5]];portConstraint=eastwest;" parent="xaXWIEfhId6lT726xvUP-8" vertex="1">
          <mxGeometry y="260" width="220" height="26" as="geometry" />
        </mxCell>
        <mxCell id="xaXWIEfhId6lT726xvUP-17" value="- config: JSONObject    属性类型配置" style="text;strokeColor=none;fillColor=none;align=left;verticalAlign=top;spacingLeft=4;spacingRight=4;overflow=hidden;rotatable=0;points=[[0,0.5],[1,0.5]];portConstraint=eastwest;" parent="xaXWIEfhId6lT726xvUP-8" vertex="1">
          <mxGeometry y="286" width="220" height="26" as="geometry" />
        </mxCell>
        <mxCell id="xaXWIEfhId6lT726xvUP-20" value="&lt;&lt;interface&gt;&gt;&#xa;ConfigProp" style="swimlane;fontStyle=2;childLayout=stackLayout;horizontal=1;startSize=26;horizontalStack=0;resizeParent=1;resizeParentMax=0;resizeLast=0;collapsible=1;marginBottom=0;" parent="WIyWlLk6GJQsqaUBKTNV-1" vertex="1">
          <mxGeometry x="395" y="1650" width="320" height="208" as="geometry" />
        </mxCell>
        <mxCell id="xaXWIEfhId6lT726xvUP-21" value="+ DEFAULT_VALUE = &quot;default_value&quot;    默认值" style="text;strokeColor=none;fillColor=none;align=left;verticalAlign=top;spacingLeft=4;spacingRight=4;overflow=hidden;rotatable=0;points=[[0,0.5],[1,0.5]];portConstraint=eastwest;" parent="xaXWIEfhId6lT726xvUP-20" vertex="1">
          <mxGeometry y="26" width="320" height="26" as="geometry" />
        </mxCell>
        <mxCell id="xaXWIEfhId6lT726xvUP-24" value="+ ONLY_INTEGRAL = &quot;only_integral&quot;    仅为整数" style="text;strokeColor=none;fillColor=none;align=left;verticalAlign=top;spacingLeft=4;spacingRight=4;overflow=hidden;rotatable=0;points=[[0,0.5],[1,0.5]];portConstraint=eastwest;" parent="xaXWIEfhId6lT726xvUP-20" vertex="1">
          <mxGeometry y="52" width="320" height="26" as="geometry" />
        </mxCell>
        <mxCell id="xaXWIEfhId6lT726xvUP-26" value="+ ONLY_DATE = &quot;only_date&quot;    仅为日期" style="text;strokeColor=none;fillColor=none;align=left;verticalAlign=top;spacingLeft=4;spacingRight=4;overflow=hidden;rotatable=0;points=[[0,0.5],[1,0.5]];portConstraint=eastwest;" parent="xaXWIEfhId6lT726xvUP-20" vertex="1">
          <mxGeometry y="78" width="320" height="26" as="geometry" />
        </mxCell>
        <mxCell id="xaXWIEfhId6lT726xvUP-25" value="+ MULTIPLE_CHOICES = &quot;multiple_choices&quot;    是否多选" style="text;strokeColor=none;fillColor=none;align=left;verticalAlign=top;spacingLeft=4;spacingRight=4;overflow=hidden;rotatable=0;points=[[0,0.5],[1,0.5]];portConstraint=eastwest;" parent="xaXWIEfhId6lT726xvUP-20" vertex="1">
          <mxGeometry y="104" width="320" height="26" as="geometry" />
        </mxCell>
        <mxCell id="xaXWIEfhId6lT726xvUP-30" value="+ OPTIONS = &quot;options&quot;    选项集合" style="text;strokeColor=none;fillColor=none;align=left;verticalAlign=top;spacingLeft=4;spacingRight=4;overflow=hidden;rotatable=0;points=[[0,0.5],[1,0.5]];portConstraint=eastwest;" parent="xaXWIEfhId6lT726xvUP-20" vertex="1">
          <mxGeometry y="130" width="320" height="26" as="geometry" />
        </mxCell>
        <mxCell id="xaXWIEfhId6lT726xvUP-29" value="+ OPTION_LABEL = &quot;option_label&quot;    选项名称" style="text;strokeColor=none;fillColor=none;align=left;verticalAlign=top;spacingLeft=4;spacingRight=4;overflow=hidden;rotatable=0;points=[[0,0.5],[1,0.5]];portConstraint=eastwest;" parent="xaXWIEfhId6lT726xvUP-20" vertex="1">
          <mxGeometry y="156" width="320" height="26" as="geometry" />
        </mxCell>
        <mxCell id="xaXWIEfhId6lT726xvUP-28" value="+ OPTION_VALUE = &quot;option_value&quot;    选项值" style="text;strokeColor=none;fillColor=none;align=left;verticalAlign=top;spacingLeft=4;spacingRight=4;overflow=hidden;rotatable=0;points=[[0,0.5],[1,0.5]];portConstraint=eastwest;" parent="xaXWIEfhId6lT726xvUP-20" vertex="1">
          <mxGeometry y="182" width="320" height="26" as="geometry" />
        </mxCell>
        <mxCell id="xaXWIEfhId6lT726xvUP-32" style="edgeStyle=none;rounded=0;orthogonalLoop=1;jettySize=auto;html=1;exitX=0.75;exitY=0;exitDx=0;exitDy=0;startArrow=circlePlus;startFill=0;endArrow=open;endFill=0;" parent="WIyWlLk6GJQsqaUBKTNV-1" source="xaXWIEfhId6lT726xvUP-20" target="xaXWIEfhId6lT726xvUP-20" edge="1">
          <mxGeometry relative="1" as="geometry" />
        </mxCell>
        <mxCell id="B7V7IaM9gYt7S6QEFZPg-0" value="ProjectType" style="swimlane;fontStyle=0;childLayout=stackLayout;horizontal=1;startSize=26;fillColor=#e1d5e7;horizontalStack=0;resizeParent=1;resizeParentMax=0;resizeLast=0;collapsible=1;marginBottom=0;strokeColor=#9673a6;" parent="WIyWlLk6GJQsqaUBKTNV-1" vertex="1">
          <mxGeometry x="1055" y="1849" width="320" height="128" as="geometry" />
        </mxCell>
        <mxCell id="B7V7IaM9gYt7S6QEFZPg-4" value="- name: String    名称" style="text;strokeColor=none;fillColor=none;align=left;verticalAlign=top;spacingLeft=4;spacingRight=4;overflow=hidden;rotatable=0;points=[[0,0.5],[1,0.5]];portConstraint=eastwest;" parent="B7V7IaM9gYt7S6QEFZPg-0" vertex="1">
          <mxGeometry y="26" width="320" height="26" as="geometry" />
        </mxCell>
        <mxCell id="B7V7IaM9gYt7S6QEFZPg-5" value="- sequence: Integer    序列" style="text;strokeColor=none;fillColor=none;align=left;verticalAlign=top;spacingLeft=4;spacingRight=4;overflow=hidden;rotatable=0;points=[[0,0.5],[1,0.5]];portConstraint=eastwest;" parent="B7V7IaM9gYt7S6QEFZPg-0" vertex="1">
          <mxGeometry y="52" width="320" height="24" as="geometry" />
        </mxCell>
        <mxCell id="B7V7IaM9gYt7S6QEFZPg-7" value="- status: List&lt;WorkflowStatuId&gt;    工作流状态ID" style="text;strokeColor=none;fillColor=none;align=left;verticalAlign=top;spacingLeft=4;spacingRight=4;overflow=hidden;rotatable=0;points=[[0,0.5],[1,0.5]];portConstraint=eastwest;fontStyle=1" parent="B7V7IaM9gYt7S6QEFZPg-0" vertex="1">
          <mxGeometry y="76" width="320" height="26" as="geometry" />
        </mxCell>
        <mxCell id="B7V7IaM9gYt7S6QEFZPg-6" value="- propConfigs: List&lt;PropertyConfiguration&gt;    项目属性" style="text;strokeColor=none;fillColor=none;align=left;verticalAlign=top;spacingLeft=4;spacingRight=4;overflow=hidden;rotatable=0;points=[[0,0.5],[1,0.5]];portConstraint=eastwest;" parent="B7V7IaM9gYt7S6QEFZPg-0" vertex="1">
          <mxGeometry y="102" width="320" height="26" as="geometry" />
        </mxCell>
        <mxCell id="B7V7IaM9gYt7S6QEFZPg-9" value="BaseRole" style="swimlane;fontStyle=2;childLayout=stackLayout;horizontal=1;startSize=26;fillColor=#fff2cc;horizontalStack=0;resizeParent=1;resizeParentMax=0;resizeLast=0;collapsible=1;marginBottom=0;strokeColor=#d6b656;" parent="WIyWlLk6GJQsqaUBKTNV-1" vertex="1">
          <mxGeometry x="2465" y="1977" width="240" height="182" as="geometry" />
        </mxCell>
        <mxCell id="B7V7IaM9gYt7S6QEFZPg-10" value="- name: String    名称" style="text;strokeColor=none;fillColor=none;align=left;verticalAlign=top;spacingLeft=4;spacingRight=4;overflow=hidden;rotatable=0;points=[[0,0.5],[1,0.5]];portConstraint=eastwest;" parent="B7V7IaM9gYt7S6QEFZPg-9" vertex="1">
          <mxGeometry y="26" width="240" height="26" as="geometry" />
        </mxCell>
        <mxCell id="B7V7IaM9gYt7S6QEFZPg-11" value="- description: String    描述" style="text;strokeColor=none;fillColor=none;align=left;verticalAlign=top;spacingLeft=4;spacingRight=4;overflow=hidden;rotatable=0;points=[[0,0.5],[1,0.5]];portConstraint=eastwest;" parent="B7V7IaM9gYt7S6QEFZPg-9" vertex="1">
          <mxGeometry y="52" width="240" height="26" as="geometry" />
        </mxCell>
        <mxCell id="B7V7IaM9gYt7S6QEFZPg-12" value="- content: String    备注" style="text;strokeColor=none;fillColor=none;align=left;verticalAlign=top;spacingLeft=4;spacingRight=4;overflow=hidden;rotatable=0;points=[[0,0.5],[1,0.5]];portConstraint=eastwest;" parent="B7V7IaM9gYt7S6QEFZPg-9" vertex="1">
          <mxGeometry y="78" width="240" height="26" as="geometry" />
        </mxCell>
        <mxCell id="B7V7IaM9gYt7S6QEFZPg-13" value="- active: Boolean    是否激活" style="text;strokeColor=none;fillColor=none;align=left;verticalAlign=top;spacingLeft=4;spacingRight=4;overflow=hidden;rotatable=0;points=[[0,0.5],[1,0.5]];portConstraint=eastwest;" parent="B7V7IaM9gYt7S6QEFZPg-9" vertex="1">
          <mxGeometry y="104" width="240" height="26" as="geometry" />
        </mxCell>
        <mxCell id="B7V7IaM9gYt7S6QEFZPg-14" value="- members: Set&lt;UserId&gt;    用户" style="text;strokeColor=none;fillColor=none;align=left;verticalAlign=top;spacingLeft=4;spacingRight=4;overflow=hidden;rotatable=0;points=[[0,0.5],[1,0.5]];portConstraint=eastwest;" parent="B7V7IaM9gYt7S6QEFZPg-9" vertex="1">
          <mxGeometry y="130" width="240" height="26" as="geometry" />
        </mxCell>
        <mxCell id="B7V7IaM9gYt7S6QEFZPg-15" value="- permissions: Set&lt;Permission&gt;    权限" style="text;strokeColor=none;fillColor=none;align=left;verticalAlign=top;spacingLeft=4;spacingRight=4;overflow=hidden;rotatable=0;points=[[0,0.5],[1,0.5]];portConstraint=eastwest;" parent="B7V7IaM9gYt7S6QEFZPg-9" vertex="1">
          <mxGeometry y="156" width="240" height="26" as="geometry" />
        </mxCell>
        <mxCell id="B7V7IaM9gYt7S6QEFZPg-21" style="rounded=0;orthogonalLoop=1;jettySize=auto;html=1;entryX=1;entryY=0.5;entryDx=0;entryDy=0;startArrow=open;startFill=0;endArrow=diamondThin;endFill=1;exitX=0;exitY=0.5;exitDx=0;exitDy=0;edgeStyle=orthogonalEdgeStyle;" parent="WIyWlLk6GJQsqaUBKTNV-1" source="B7V7IaM9gYt7S6QEFZPg-18" target="B7V7IaM9gYt7S6QEFZPg-15" edge="1">
          <mxGeometry relative="1" as="geometry" />
        </mxCell>
        <mxCell id="B7V7IaM9gYt7S6QEFZPg-16" value="Permission" style="swimlane;fontStyle=0;childLayout=stackLayout;horizontal=1;startSize=26;fillColor=#d5e8d4;horizontalStack=0;resizeParent=1;resizeParentMax=0;resizeLast=0;collapsible=1;marginBottom=0;strokeColor=#82b366;" parent="WIyWlLk6GJQsqaUBKTNV-1" vertex="1">
          <mxGeometry x="2805" y="1977" width="180" height="130" as="geometry" />
        </mxCell>
        <mxCell id="B7V7IaM9gYt7S6QEFZPg-17" value="- scopeeType: ScopeType" style="text;strokeColor=none;fillColor=none;align=left;verticalAlign=top;spacingLeft=4;spacingRight=4;overflow=hidden;rotatable=0;points=[[0,0.5],[1,0.5]];portConstraint=eastwest;" parent="B7V7IaM9gYt7S6QEFZPg-16" vertex="1">
          <mxGeometry y="26" width="180" height="26" as="geometry" />
        </mxCell>
        <mxCell id="B7V7IaM9gYt7S6QEFZPg-18" value="- scope: Scope" style="text;strokeColor=none;fillColor=none;align=left;verticalAlign=top;spacingLeft=4;spacingRight=4;overflow=hidden;rotatable=0;points=[[0,0.5],[1,0.5]];portConstraint=eastwest;" parent="B7V7IaM9gYt7S6QEFZPg-16" vertex="1">
          <mxGeometry y="52" width="180" height="26" as="geometry" />
        </mxCell>
        <mxCell id="B7V7IaM9gYt7S6QEFZPg-19" value="- rejectedActs: Set&lt;String&gt;" style="text;strokeColor=none;fillColor=none;align=left;verticalAlign=top;spacingLeft=4;spacingRight=4;overflow=hidden;rotatable=0;points=[[0,0.5],[1,0.5]];portConstraint=eastwest;" parent="B7V7IaM9gYt7S6QEFZPg-16" vertex="1">
          <mxGeometry y="78" width="180" height="26" as="geometry" />
        </mxCell>
        <mxCell id="B7V7IaM9gYt7S6QEFZPg-20" value="- grantedActs: Set&lt;String&gt;" style="text;strokeColor=none;fillColor=none;align=left;verticalAlign=top;spacingLeft=4;spacingRight=4;overflow=hidden;rotatable=0;points=[[0,0.5],[1,0.5]];portConstraint=eastwest;" parent="B7V7IaM9gYt7S6QEFZPg-16" vertex="1">
          <mxGeometry y="104" width="180" height="26" as="geometry" />
        </mxCell>
        <mxCell id="B7V7IaM9gYt7S6QEFZPg-29" style="rounded=0;orthogonalLoop=1;jettySize=auto;html=1;startArrow=none;startFill=0;endArrow=block;endFill=0;" parent="WIyWlLk6GJQsqaUBKTNV-1" source="B7V7IaM9gYt7S6QEFZPg-22" edge="1">
          <mxGeometry relative="1" as="geometry">
            <mxPoint x="2670" y="2160" as="targetPoint" />
          </mxGeometry>
        </mxCell>
        <mxCell id="B7V7IaM9gYt7S6QEFZPg-51" value="Extends" style="edgeLabel;html=1;align=center;verticalAlign=middle;resizable=0;points=[];" parent="B7V7IaM9gYt7S6QEFZPg-29" vertex="1" connectable="0">
          <mxGeometry x="0.2377" y="-2" relative="1" as="geometry">
            <mxPoint as="offset" />
          </mxGeometry>
        </mxCell>
        <mxCell id="B7V7IaM9gYt7S6QEFZPg-22" value="RoleTemplate" style="swimlane;fontStyle=0;childLayout=stackLayout;horizontal=1;startSize=26;fillColor=#e1d5e7;horizontalStack=0;resizeParent=1;resizeParentMax=0;resizeLast=0;collapsible=1;marginBottom=0;strokeColor=#9673a6;" parent="WIyWlLk6GJQsqaUBKTNV-1" vertex="1">
          <mxGeometry x="2820" y="2231" width="240" height="52" as="geometry" />
        </mxCell>
        <mxCell id="Qcm55Ra_ggKID3NvQQV0-0" style="edgeStyle=orthogonalEdgeStyle;rounded=0;orthogonalLoop=1;jettySize=auto;html=1;exitX=0.75;exitY=0;exitDx=0;exitDy=0;startArrow=none;startFill=0;endArrow=block;endFill=0;" edge="1" parent="WIyWlLk6GJQsqaUBKTNV-1" source="B7V7IaM9gYt7S6QEFZPg-30" target="B7V7IaM9gYt7S6QEFZPg-9">
          <mxGeometry relative="1" as="geometry">
            <mxPoint x="2625" y="2170" as="targetPoint" />
            <Array as="points">
              <mxPoint x="2640" y="2380" />
              <mxPoint x="2720" y="2380" />
              <mxPoint x="2720" y="2200" />
              <mxPoint x="2625" y="2200" />
            </Array>
          </mxGeometry>
        </mxCell>
        <mxCell id="Qcm55Ra_ggKID3NvQQV0-1" value="Extends" style="edgeLabel;html=1;align=center;verticalAlign=middle;resizable=0;points=[];" vertex="1" connectable="0" parent="Qcm55Ra_ggKID3NvQQV0-0">
          <mxGeometry x="0.2081" y="-3" relative="1" as="geometry">
            <mxPoint as="offset" />
          </mxGeometry>
        </mxCell>
        <mxCell id="B7V7IaM9gYt7S6QEFZPg-30" value="ProjectOptions" style="swimlane;fontStyle=0;childLayout=stackLayout;horizontal=1;startSize=26;fillColor=#e1d5e7;horizontalStack=0;resizeParent=1;resizeParentMax=0;resizeLast=0;collapsible=1;marginBottom=0;strokeColor=#9673a6;" parent="WIyWlLk6GJQsqaUBKTNV-1" vertex="1">
          <mxGeometry x="2475" y="2461" width="220" height="100" as="geometry" />
        </mxCell>
        <mxCell id="B7V7IaM9gYt7S6QEFZPg-34" value="- projectId: ProjectId" style="text;strokeColor=none;fillColor=none;align=left;verticalAlign=top;spacingLeft=4;spacingRight=4;overflow=hidden;rotatable=0;points=[[0,0.5],[1,0.5]];portConstraint=eastwest;fontStyle=1" parent="B7V7IaM9gYt7S6QEFZPg-30" vertex="1">
          <mxGeometry y="26" width="220" height="24" as="geometry" />
        </mxCell>
        <mxCell id="B7V7IaM9gYt7S6QEFZPg-48" value="- calendar: ProjectCalendar    日历" style="text;strokeColor=none;fillColor=none;align=left;verticalAlign=top;spacingLeft=4;spacingRight=4;overflow=hidden;rotatable=0;points=[[0,0.5],[1,0.5]];portConstraint=eastwest;" parent="B7V7IaM9gYt7S6QEFZPg-30" vertex="1">
          <mxGeometry y="50" width="220" height="24" as="geometry" />
        </mxCell>
        <mxCell id="B7V7IaM9gYt7S6QEFZPg-33" value="- roles: Set&lt;ProjectRole&gt;    角色" style="text;strokeColor=none;fillColor=none;align=left;verticalAlign=top;spacingLeft=4;spacingRight=4;overflow=hidden;rotatable=0;points=[[0,0.5],[1,0.5]];portConstraint=eastwest;" parent="B7V7IaM9gYt7S6QEFZPg-30" vertex="1">
          <mxGeometry y="74" width="220" height="26" as="geometry" />
        </mxCell>
        <mxCell id="B7V7IaM9gYt7S6QEFZPg-39" style="rounded=0;orthogonalLoop=1;jettySize=auto;html=1;startArrow=none;startFill=0;endArrow=block;endFill=0;" parent="WIyWlLk6GJQsqaUBKTNV-1" source="B7V7IaM9gYt7S6QEFZPg-35" target="DC-7fMDGKw9MtQms55Px-87" edge="1">
          <mxGeometry relative="1" as="geometry" />
        </mxCell>
        <mxCell id="-mcRDKc0zju_STvuJ2zb-56" value="Extends" style="edgeLabel;html=1;align=center;verticalAlign=middle;resizable=0;points=[];" parent="B7V7IaM9gYt7S6QEFZPg-39" vertex="1" connectable="0">
          <mxGeometry x="0.1605" y="-2" relative="1" as="geometry">
            <mxPoint y="1" as="offset" />
          </mxGeometry>
        </mxCell>
        <mxCell id="B7V7IaM9gYt7S6QEFZPg-47" style="edgeStyle=orthogonalEdgeStyle;rounded=0;orthogonalLoop=1;jettySize=auto;html=1;startArrow=open;startFill=0;endArrow=diamondThin;endFill=1;entryX=0;entryY=0.5;entryDx=0;entryDy=0;" parent="WIyWlLk6GJQsqaUBKTNV-1" source="B7V7IaM9gYt7S6QEFZPg-40" target="B7V7IaM9gYt7S6QEFZPg-33" edge="1">
          <mxGeometry relative="1" as="geometry">
            <Array as="points" />
          </mxGeometry>
        </mxCell>
        <mxCell id="B7V7IaM9gYt7S6QEFZPg-49" style="rounded=0;orthogonalLoop=1;jettySize=auto;html=1;exitX=0.5;exitY=0;exitDx=0;exitDy=0;startArrow=none;startFill=0;endArrow=block;endFill=0;" parent="WIyWlLk6GJQsqaUBKTNV-1" source="B7V7IaM9gYt7S6QEFZPg-40" target="B7V7IaM9gYt7S6QEFZPg-9" edge="1">
          <mxGeometry relative="1" as="geometry" />
        </mxCell>
        <mxCell id="B7V7IaM9gYt7S6QEFZPg-50" value="Extends" style="edgeLabel;html=1;align=center;verticalAlign=middle;resizable=0;points=[];" parent="B7V7IaM9gYt7S6QEFZPg-49" vertex="1" connectable="0">
          <mxGeometry x="0.2393" y="-4" relative="1" as="geometry">
            <mxPoint as="offset" />
          </mxGeometry>
        </mxCell>
        <mxCell id="B7V7IaM9gYt7S6QEFZPg-54" value="ScheduleBaseline" style="swimlane;fontStyle=0;childLayout=stackLayout;horizontal=1;startSize=26;fillColor=#e1d5e7;horizontalStack=0;resizeParent=1;resizeParentMax=0;resizeLast=0;collapsible=1;marginBottom=0;strokeColor=#9673a6;" parent="WIyWlLk6GJQsqaUBKTNV-1" vertex="1">
          <mxGeometry x="3085" y="836" width="240" height="156" as="geometry" />
        </mxCell>
        <mxCell id="B7V7IaM9gYt7S6QEFZPg-55" value="- name: String    基线名称" style="text;strokeColor=none;fillColor=none;align=left;verticalAlign=top;spacingLeft=4;spacingRight=4;overflow=hidden;rotatable=0;points=[[0,0.5],[1,0.5]];portConstraint=eastwest;" parent="B7V7IaM9gYt7S6QEFZPg-54" vertex="1">
          <mxGeometry y="26" width="240" height="26" as="geometry" />
        </mxCell>
        <mxCell id="B7V7IaM9gYt7S6QEFZPg-56" value="- projectId: PorjectId    项目Id" style="text;strokeColor=none;fillColor=none;align=left;verticalAlign=top;spacingLeft=4;spacingRight=4;overflow=hidden;rotatable=0;points=[[0,0.5],[1,0.5]];portConstraint=eastwest;fontStyle=1" parent="B7V7IaM9gYt7S6QEFZPg-54" vertex="1">
          <mxGeometry y="52" width="240" height="26" as="geometry" />
        </mxCell>
        <mxCell id="B7V7IaM9gYt7S6QEFZPg-57" value="- startTime: ZonedDateTime    开始时间" style="text;strokeColor=none;fillColor=none;align=left;verticalAlign=top;spacingLeft=4;spacingRight=4;overflow=hidden;rotatable=0;points=[[0,0.5],[1,0.5]];portConstraint=eastwest;" parent="B7V7IaM9gYt7S6QEFZPg-54" vertex="1">
          <mxGeometry y="78" width="240" height="26" as="geometry" />
        </mxCell>
        <mxCell id="B7V7IaM9gYt7S6QEFZPg-58" value="- finishTime: ZonedDateTime    结束时间" style="text;strokeColor=none;fillColor=none;align=left;verticalAlign=top;spacingLeft=4;spacingRight=4;overflow=hidden;rotatable=0;points=[[0,0.5],[1,0.5]];portConstraint=eastwest;" parent="B7V7IaM9gYt7S6QEFZPg-54" vertex="1">
          <mxGeometry y="104" width="240" height="26" as="geometry" />
        </mxCell>
        <mxCell id="B7V7IaM9gYt7S6QEFZPg-67" value="- baselines: List&lt;TaskBaseline&gt;    基线" style="text;strokeColor=none;fillColor=none;align=left;verticalAlign=top;spacingLeft=4;spacingRight=4;overflow=hidden;rotatable=0;points=[[0,0.5],[1,0.5]];portConstraint=eastwest;" parent="B7V7IaM9gYt7S6QEFZPg-54" vertex="1">
          <mxGeometry y="130" width="240" height="26" as="geometry" />
        </mxCell>
        <mxCell id="B7V7IaM9gYt7S6QEFZPg-59" value="TaskBaseline" style="swimlane;fontStyle=0;childLayout=stackLayout;horizontal=1;startSize=26;fillColor=#dae8fc;horizontalStack=0;resizeParent=1;resizeParentMax=0;resizeLast=0;collapsible=1;marginBottom=0;strokeColor=#6c8ebf;" parent="WIyWlLk6GJQsqaUBKTNV-1" vertex="1">
          <mxGeometry x="3630" y="888" width="250" height="182" as="geometry" />
        </mxCell>
        <mxCell id="B7V7IaM9gYt7S6QEFZPg-60" value="- taskId: TaskId    任务ID" style="text;strokeColor=none;fillColor=none;align=left;verticalAlign=top;spacingLeft=4;spacingRight=4;overflow=hidden;rotatable=0;points=[[0,0.5],[1,0.5]];portConstraint=eastwest;fontStyle=1" parent="B7V7IaM9gYt7S6QEFZPg-59" vertex="1">
          <mxGeometry y="26" width="250" height="26" as="geometry" />
        </mxCell>
        <mxCell id="B7V7IaM9gYt7S6QEFZPg-61" value="- startTime: ZonedDateTime    开始时间" style="text;strokeColor=none;fillColor=none;align=left;verticalAlign=top;spacingLeft=4;spacingRight=4;overflow=hidden;rotatable=0;points=[[0,0.5],[1,0.5]];portConstraint=eastwest;" parent="B7V7IaM9gYt7S6QEFZPg-59" vertex="1">
          <mxGeometry y="52" width="250" height="26" as="geometry" />
        </mxCell>
        <mxCell id="B7V7IaM9gYt7S6QEFZPg-63" value="- finishTime: ZonedDateTime    结束时间" style="text;strokeColor=none;fillColor=none;align=left;verticalAlign=top;spacingLeft=4;spacingRight=4;overflow=hidden;rotatable=0;points=[[0,0.5],[1,0.5]];portConstraint=eastwest;" parent="B7V7IaM9gYt7S6QEFZPg-59" vertex="1">
          <mxGeometry y="78" width="250" height="26" as="geometry" />
        </mxCell>
        <mxCell id="B7V7IaM9gYt7S6QEFZPg-64" value="- manHour: Double    计划工时" style="text;strokeColor=none;fillColor=none;align=left;verticalAlign=top;spacingLeft=4;spacingRight=4;overflow=hidden;rotatable=0;points=[[0,0.5],[1,0.5]];portConstraint=eastwest;" parent="B7V7IaM9gYt7S6QEFZPg-59" vertex="1">
          <mxGeometry y="104" width="250" height="26" as="geometry" />
        </mxCell>
        <mxCell id="B7V7IaM9gYt7S6QEFZPg-65" value="- cost: Double    基线成本" style="text;strokeColor=none;fillColor=none;align=left;verticalAlign=top;spacingLeft=4;spacingRight=4;overflow=hidden;rotatable=0;points=[[0,0.5],[1,0.5]];portConstraint=eastwest;" parent="B7V7IaM9gYt7S6QEFZPg-59" vertex="1">
          <mxGeometry y="130" width="250" height="26" as="geometry" />
        </mxCell>
        <mxCell id="B7V7IaM9gYt7S6QEFZPg-66" value="- fixedCost: Double    固定成本" style="text;strokeColor=none;fillColor=none;align=left;verticalAlign=top;spacingLeft=4;spacingRight=4;overflow=hidden;rotatable=0;points=[[0,0.5],[1,0.5]];portConstraint=eastwest;" parent="B7V7IaM9gYt7S6QEFZPg-59" vertex="1">
          <mxGeometry y="156" width="250" height="26" as="geometry" />
        </mxCell>
        <mxCell id="B7V7IaM9gYt7S6QEFZPg-68" style="rounded=0;orthogonalLoop=1;jettySize=auto;html=1;startArrow=open;startFill=0;endArrow=diamondThin;endFill=1;entryX=1;entryY=0.5;entryDx=0;entryDy=0;" parent="WIyWlLk6GJQsqaUBKTNV-1" source="B7V7IaM9gYt7S6QEFZPg-59" target="B7V7IaM9gYt7S6QEFZPg-67" edge="1">
          <mxGeometry relative="1" as="geometry" />
        </mxCell>
        <mxCell id="Q_YU3QJ79yXloyO7g1Ih-0" value="ItemSet" style="swimlane;fontStyle=0;childLayout=stackLayout;horizontal=1;startSize=26;fillColor=#e1d5e7;horizontalStack=0;resizeParent=1;resizeParentMax=0;resizeLast=0;collapsible=1;marginBottom=0;strokeColor=#9673a6;" parent="WIyWlLk6GJQsqaUBKTNV-1" vertex="1">
          <mxGeometry x="3355" y="1374" width="230" height="260" as="geometry" />
        </mxCell>
        <mxCell id="Q_YU3QJ79yXloyO7g1Ih-1" value="- name: String" style="text;strokeColor=none;fillColor=none;align=left;verticalAlign=top;spacingLeft=4;spacingRight=4;overflow=hidden;rotatable=0;points=[[0,0.5],[1,0.5]];portConstraint=eastwest;" parent="Q_YU3QJ79yXloyO7g1Ih-0" vertex="1">
          <mxGeometry y="26" width="230" height="26" as="geometry" />
        </mxCell>
        <mxCell id="Q_YU3QJ79yXloyO7g1Ih-2" value="- projects: Set&lt;ProjectId&gt;    项目Ids" style="text;strokeColor=none;fillColor=none;align=left;verticalAlign=top;spacingLeft=4;spacingRight=4;overflow=hidden;rotatable=0;points=[[0,0.5],[1,0.5]];portConstraint=eastwest;" parent="Q_YU3QJ79yXloyO7g1Ih-0" vertex="1">
          <mxGeometry y="52" width="230" height="26" as="geometry" />
        </mxCell>
        <mxCell id="Q_YU3QJ79yXloyO7g1Ih-3" value="- parent: ItemSet    父节点" style="text;strokeColor=none;fillColor=none;align=left;verticalAlign=top;spacingLeft=4;spacingRight=4;overflow=hidden;rotatable=0;points=[[0,0.5],[1,0.5]];portConstraint=eastwest;" parent="Q_YU3QJ79yXloyO7g1Ih-0" vertex="1">
          <mxGeometry y="78" width="230" height="26" as="geometry" />
        </mxCell>
        <mxCell id="Q_YU3QJ79yXloyO7g1Ih-4" value="- startTime: ZonedDateTime    开始时间" style="text;strokeColor=none;fillColor=none;align=left;verticalAlign=top;spacingLeft=4;spacingRight=4;overflow=hidden;rotatable=0;points=[[0,0.5],[1,0.5]];portConstraint=eastwest;" parent="Q_YU3QJ79yXloyO7g1Ih-0" vertex="1">
          <mxGeometry y="104" width="230" height="26" as="geometry" />
        </mxCell>
        <mxCell id="Q_YU3QJ79yXloyO7g1Ih-5" value="- endTime: ZonedDateTime    结束时间" style="text;strokeColor=none;fillColor=none;align=left;verticalAlign=top;spacingLeft=4;spacingRight=4;overflow=hidden;rotatable=0;points=[[0,0.5],[1,0.5]];portConstraint=eastwest;" parent="Q_YU3QJ79yXloyO7g1Ih-0" vertex="1">
          <mxGeometry y="130" width="230" height="26" as="geometry" />
        </mxCell>
        <mxCell id="Q_YU3QJ79yXloyO7g1Ih-6" value="- owner: UserId    拥有者" style="text;strokeColor=none;fillColor=none;align=left;verticalAlign=top;spacingLeft=4;spacingRight=4;overflow=hidden;rotatable=0;points=[[0,0.5],[1,0.5]];portConstraint=eastwest;" parent="Q_YU3QJ79yXloyO7g1Ih-0" vertex="1">
          <mxGeometry y="156" width="230" height="26" as="geometry" />
        </mxCell>
        <mxCell id="Q_YU3QJ79yXloyO7g1Ih-7" value="- principal: UserId    责任人" style="text;strokeColor=none;fillColor=none;align=left;verticalAlign=top;spacingLeft=4;spacingRight=4;overflow=hidden;rotatable=0;points=[[0,0.5],[1,0.5]];portConstraint=eastwest;" parent="Q_YU3QJ79yXloyO7g1Ih-0" vertex="1">
          <mxGeometry y="182" width="230" height="26" as="geometry" />
        </mxCell>
        <mxCell id="Q_YU3QJ79yXloyO7g1Ih-8" value="- scope: Scope    作用域" style="text;strokeColor=none;fillColor=none;align=left;verticalAlign=top;spacingLeft=4;spacingRight=4;overflow=hidden;rotatable=0;points=[[0,0.5],[1,0.5]];portConstraint=eastwest;" parent="Q_YU3QJ79yXloyO7g1Ih-0" vertex="1">
          <mxGeometry y="208" width="230" height="26" as="geometry" />
        </mxCell>
        <mxCell id="Q_YU3QJ79yXloyO7g1Ih-9" value="- root: ItemSet    根节点" style="text;strokeColor=none;fillColor=none;align=left;verticalAlign=top;spacingLeft=4;spacingRight=4;overflow=hidden;rotatable=0;points=[[0,0.5],[1,0.5]];portConstraint=eastwest;" parent="Q_YU3QJ79yXloyO7g1Ih-0" vertex="1">
          <mxGeometry y="234" width="230" height="26" as="geometry" />
        </mxCell>
        <mxCell id="Q_YU3QJ79yXloyO7g1Ih-10" value="&lt;&lt;enumeration&gt;&gt;&#xa;Scope" style="swimlane;fontStyle=0;childLayout=stackLayout;horizontal=1;startSize=26;fillColor=#dae8fc;horizontalStack=0;resizeParent=1;resizeParentMax=0;resizeLast=0;collapsible=1;marginBottom=0;strokeColor=#6c8ebf;" parent="WIyWlLk6GJQsqaUBKTNV-1" vertex="1">
          <mxGeometry x="3655" y="1426" width="140" height="78" as="geometry" />
        </mxCell>
        <mxCell id="Q_YU3QJ79yXloyO7g1Ih-11" value="SHARED" style="text;strokeColor=none;fillColor=none;align=left;verticalAlign=top;spacingLeft=4;spacingRight=4;overflow=hidden;rotatable=0;points=[[0,0.5],[1,0.5]];portConstraint=eastwest;" parent="Q_YU3QJ79yXloyO7g1Ih-10" vertex="1">
          <mxGeometry y="26" width="140" height="26" as="geometry" />
        </mxCell>
        <mxCell id="Q_YU3QJ79yXloyO7g1Ih-12" value="PRIVATE" style="text;strokeColor=none;fillColor=none;align=left;verticalAlign=top;spacingLeft=4;spacingRight=4;overflow=hidden;rotatable=0;points=[[0,0.5],[1,0.5]];portConstraint=eastwest;" parent="Q_YU3QJ79yXloyO7g1Ih-10" vertex="1">
          <mxGeometry y="52" width="140" height="26" as="geometry" />
        </mxCell>
        <mxCell id="Q_YU3QJ79yXloyO7g1Ih-14" style="edgeStyle=orthogonalEdgeStyle;rounded=0;orthogonalLoop=1;jettySize=auto;html=1;exitX=1;exitY=0.5;exitDx=0;exitDy=0;endArrow=open;endFill=0;startArrow=circlePlus;startFill=0;" parent="WIyWlLk6GJQsqaUBKTNV-1" source="Q_YU3QJ79yXloyO7g1Ih-3" target="Q_YU3QJ79yXloyO7g1Ih-10" edge="1">
          <mxGeometry relative="1" as="geometry" />
        </mxCell>
        <mxCell id="Q_YU3QJ79yXloyO7g1Ih-19" value="Attachment" style="swimlane;fontStyle=0;childLayout=stackLayout;horizontal=1;startSize=26;fillColor=#e1d5e7;horizontalStack=0;resizeParent=1;resizeParentMax=0;resizeLast=0;collapsible=1;marginBottom=0;strokeColor=#9673a6;" parent="WIyWlLk6GJQsqaUBKTNV-1" vertex="1">
          <mxGeometry x="3210" y="1122" width="220" height="156" as="geometry" />
        </mxCell>
        <mxCell id="Q_YU3QJ79yXloyO7g1Ih-20" value="- fileName: String    原始文件名" style="text;strokeColor=none;fillColor=none;align=left;verticalAlign=top;spacingLeft=4;spacingRight=4;overflow=hidden;rotatable=0;points=[[0,0.5],[1,0.5]];portConstraint=eastwest;" parent="Q_YU3QJ79yXloyO7g1Ih-19" vertex="1">
          <mxGeometry y="26" width="220" height="26" as="geometry" />
        </mxCell>
        <mxCell id="Q_YU3QJ79yXloyO7g1Ih-21" value="- obsBucket: String    文件存储桶名" style="text;strokeColor=none;fillColor=none;align=left;verticalAlign=top;spacingLeft=4;spacingRight=4;overflow=hidden;rotatable=0;points=[[0,0.5],[1,0.5]];portConstraint=eastwest;" parent="Q_YU3QJ79yXloyO7g1Ih-19" vertex="1">
          <mxGeometry y="52" width="220" height="26" as="geometry" />
        </mxCell>
        <mxCell id="Q_YU3QJ79yXloyO7g1Ih-22" value="- obsParh: String    文件存储相对路径" style="text;strokeColor=none;fillColor=none;align=left;verticalAlign=top;spacingLeft=4;spacingRight=4;overflow=hidden;rotatable=0;points=[[0,0.5],[1,0.5]];portConstraint=eastwest;" parent="Q_YU3QJ79yXloyO7g1Ih-19" vertex="1">
          <mxGeometry y="78" width="220" height="26" as="geometry" />
        </mxCell>
        <mxCell id="Q_YU3QJ79yXloyO7g1Ih-23" value="- fileStufifix: String    文件后缀" style="text;strokeColor=none;fillColor=none;align=left;verticalAlign=top;spacingLeft=4;spacingRight=4;overflow=hidden;rotatable=0;points=[[0,0.5],[1,0.5]];portConstraint=eastwest;" parent="Q_YU3QJ79yXloyO7g1Ih-19" vertex="1">
          <mxGeometry y="104" width="220" height="26" as="geometry" />
        </mxCell>
        <mxCell id="Q_YU3QJ79yXloyO7g1Ih-24" value="- size: Long    文件大小" style="text;strokeColor=none;fillColor=none;align=left;verticalAlign=top;spacingLeft=4;spacingRight=4;overflow=hidden;rotatable=0;points=[[0,0.5],[1,0.5]];portConstraint=eastwest;" parent="Q_YU3QJ79yXloyO7g1Ih-19" vertex="1">
          <mxGeometry y="130" width="220" height="26" as="geometry" />
        </mxCell>
        <mxCell id="Q_YU3QJ79yXloyO7g1Ih-25" value="TaskDeliverable" style="swimlane;fontStyle=0;childLayout=stackLayout;horizontal=1;startSize=26;fillColor=#dae8fc;horizontalStack=0;resizeParent=1;resizeParentMax=0;resizeLast=0;collapsible=1;marginBottom=0;strokeColor=#6c8ebf;" parent="WIyWlLk6GJQsqaUBKTNV-1" vertex="1">
          <mxGeometry x="3130" y="706" width="140" height="104" as="geometry" />
        </mxCell>
        <mxCell id="Q_YU3QJ79yXloyO7g1Ih-26" value="- source: String" style="text;strokeColor=none;fillColor=none;align=left;verticalAlign=top;spacingLeft=4;spacingRight=4;overflow=hidden;rotatable=0;points=[[0,0.5],[1,0.5]];portConstraint=eastwest;" parent="Q_YU3QJ79yXloyO7g1Ih-25" vertex="1">
          <mxGeometry y="26" width="140" height="26" as="geometry" />
        </mxCell>
        <mxCell id="Q_YU3QJ79yXloyO7g1Ih-27" value="- type: Type" style="text;strokeColor=none;fillColor=none;align=left;verticalAlign=top;spacingLeft=4;spacingRight=4;overflow=hidden;rotatable=0;points=[[0,0.5],[1,0.5]];portConstraint=eastwest;" parent="Q_YU3QJ79yXloyO7g1Ih-25" vertex="1">
          <mxGeometry y="52" width="140" height="26" as="geometry" />
        </mxCell>
        <mxCell id="Q_YU3QJ79yXloyO7g1Ih-28" value="- refId: String" style="text;strokeColor=none;fillColor=none;align=left;verticalAlign=top;spacingLeft=4;spacingRight=4;overflow=hidden;rotatable=0;points=[[0,0.5],[1,0.5]];portConstraint=eastwest;fontStyle=1" parent="Q_YU3QJ79yXloyO7g1Ih-25" vertex="1">
          <mxGeometry y="78" width="140" height="26" as="geometry" />
        </mxCell>
        <mxCell id="GXmNgnp2lqacb0gANE73-0" value="AttachmentRef" style="swimlane;fontStyle=0;childLayout=stackLayout;horizontal=1;startSize=26;fillColor=#dae8fc;horizontalStack=0;resizeParent=1;resizeParentMax=0;resizeLast=0;collapsible=1;marginBottom=0;strokeColor=#6c8ebf;" parent="WIyWlLk6GJQsqaUBKTNV-1" vertex="1">
          <mxGeometry x="1400" y="280" width="140" height="78" as="geometry" />
        </mxCell>
        <mxCell id="GXmNgnp2lqacb0gANE73-1" value="- refId: String" style="text;strokeColor=none;fillColor=none;align=left;verticalAlign=top;spacingLeft=4;spacingRight=4;overflow=hidden;rotatable=0;points=[[0,0.5],[1,0.5]];portConstraint=eastwest;" parent="GXmNgnp2lqacb0gANE73-0" vertex="1">
          <mxGeometry y="26" width="140" height="26" as="geometry" />
        </mxCell>
        <mxCell id="GXmNgnp2lqacb0gANE73-2" value="- refType: Type" style="text;strokeColor=none;fillColor=none;align=left;verticalAlign=top;spacingLeft=4;spacingRight=4;overflow=hidden;rotatable=0;points=[[0,0.5],[1,0.5]];portConstraint=eastwest;" parent="GXmNgnp2lqacb0gANE73-0" vertex="1">
          <mxGeometry y="52" width="140" height="26" as="geometry" />
        </mxCell>
        <mxCell id="GXmNgnp2lqacb0gANE73-12" style="edgeStyle=orthogonalEdgeStyle;rounded=0;orthogonalLoop=1;jettySize=auto;html=1;endArrow=circlePlus;endFill=0;startArrow=open;startFill=0;" parent="WIyWlLk6GJQsqaUBKTNV-1" source="GXmNgnp2lqacb0gANE73-8" target="GXmNgnp2lqacb0gANE73-0" edge="1">
          <mxGeometry relative="1" as="geometry" />
        </mxCell>
        <mxCell id="GXmNgnp2lqacb0gANE73-8" value="&lt;&lt;enumeration&gt;&gt;&#xa;Type" style="swimlane;fontStyle=0;childLayout=stackLayout;horizontal=1;startSize=26;fillColor=#dae8fc;horizontalStack=0;resizeParent=1;resizeParentMax=0;resizeLast=0;collapsible=1;marginBottom=0;strokeColor=#6c8ebf;" parent="WIyWlLk6GJQsqaUBKTNV-1" vertex="1">
          <mxGeometry x="1400" y="409" width="140" height="78" as="geometry" />
        </mxCell>
        <mxCell id="GXmNgnp2lqacb0gANE73-9" value="PM_ATTACHMENT" style="text;strokeColor=none;fillColor=none;align=left;verticalAlign=top;spacingLeft=4;spacingRight=4;overflow=hidden;rotatable=0;points=[[0,0.5],[1,0.5]];portConstraint=eastwest;" parent="GXmNgnp2lqacb0gANE73-8" vertex="1">
          <mxGeometry y="26" width="140" height="26" as="geometry" />
        </mxCell>
        <mxCell id="GXmNgnp2lqacb0gANE73-10" value="DOC_DOCUMENT" style="text;strokeColor=none;fillColor=none;align=left;verticalAlign=top;spacingLeft=4;spacingRight=4;overflow=hidden;rotatable=0;points=[[0,0.5],[1,0.5]];portConstraint=eastwest;" parent="GXmNgnp2lqacb0gANE73-8" vertex="1">
          <mxGeometry y="52" width="140" height="26" as="geometry" />
        </mxCell>
        <mxCell id="-mcRDKc0zju_STvuJ2zb-6" style="rounded=0;orthogonalLoop=1;jettySize=auto;html=1;startArrow=none;startFill=0;endArrow=block;endFill=0;entryX=0.206;entryY=1.013;entryDx=0;entryDy=0;entryPerimeter=0;exitX=1.008;exitY=0.148;exitDx=0;exitDy=0;exitPerimeter=0;" parent="WIyWlLk6GJQsqaUBKTNV-1" source="B7V7IaM9gYt7S6QEFZPg-7" target="DC-7fMDGKw9MtQms55Px-24" edge="1">
          <mxGeometry relative="1" as="geometry">
            <mxPoint x="1737.7200000000012" y="2134.424" as="targetPoint" />
            <mxPoint x="1225" y="1997" as="sourcePoint" />
          </mxGeometry>
        </mxCell>
        <mxCell id="-mcRDKc0zju_STvuJ2zb-8" value="Extends" style="edgeLabel;html=1;align=center;verticalAlign=middle;resizable=0;points=[];" parent="-mcRDKc0zju_STvuJ2zb-6" vertex="1" connectable="0">
          <mxGeometry x="-0.0079" y="1" relative="1" as="geometry">
            <mxPoint x="1" as="offset" />
          </mxGeometry>
        </mxCell>
        <mxCell id="-mcRDKc0zju_STvuJ2zb-10" value="BaseOrdered" style="swimlane;fontStyle=2;childLayout=stackLayout;horizontal=1;startSize=26;fillColor=#fff2cc;horizontalStack=0;resizeParent=1;resizeParentMax=0;resizeLast=0;collapsible=1;marginBottom=0;strokeColor=#d6b656;" parent="WIyWlLk6GJQsqaUBKTNV-1" vertex="1">
          <mxGeometry x="1810" y="2047" width="275" height="102" as="geometry" />
        </mxCell>
        <mxCell id="-mcRDKc0zju_STvuJ2zb-11" value="- name: String    名称" style="text;strokeColor=none;fillColor=none;align=left;verticalAlign=top;spacingLeft=4;spacingRight=4;overflow=hidden;rotatable=0;points=[[0,0.5],[1,0.5]];portConstraint=eastwest;" parent="-mcRDKc0zju_STvuJ2zb-10" vertex="1">
          <mxGeometry y="26" width="275" height="26" as="geometry" />
        </mxCell>
        <mxCell id="-mcRDKc0zju_STvuJ2zb-14" value="- icon: String    图标地址" style="text;strokeColor=none;fillColor=none;align=left;verticalAlign=top;spacingLeft=4;spacingRight=4;overflow=hidden;rotatable=0;points=[[0,0.5],[1,0.5]];portConstraint=eastwest;" parent="-mcRDKc0zju_STvuJ2zb-10" vertex="1">
          <mxGeometry y="52" width="275" height="26" as="geometry" />
        </mxCell>
        <mxCell id="-mcRDKc0zju_STvuJ2zb-15" value="- seq: Integer    序列" style="text;strokeColor=none;fillColor=none;align=left;verticalAlign=top;spacingLeft=4;spacingRight=4;overflow=hidden;rotatable=0;points=[[0,0.5],[1,0.5]];portConstraint=eastwest;" parent="-mcRDKc0zju_STvuJ2zb-10" vertex="1">
          <mxGeometry y="78" width="275" height="24" as="geometry" />
        </mxCell>
        <mxCell id="-mcRDKc0zju_STvuJ2zb-16" style="edgeStyle=none;rounded=0;orthogonalLoop=1;jettySize=auto;html=1;endArrow=block;endFill=0;elbow=vertical;entryX=0.404;entryY=0.966;entryDx=0;entryDy=0;entryPerimeter=0;" parent="WIyWlLk6GJQsqaUBKTNV-1" source="-mcRDKc0zju_STvuJ2zb-10" target="DC-7fMDGKw9MtQms55Px-24" edge="1">
          <mxGeometry relative="1" as="geometry">
            <mxPoint x="1898.1506849315065" y="2079" as="sourcePoint" />
            <mxPoint x="1865" y="1827" as="targetPoint" />
          </mxGeometry>
        </mxCell>
        <mxCell id="-mcRDKc0zju_STvuJ2zb-17" value="Extends" style="edgeLabel;html=1;align=center;verticalAlign=middle;resizable=0;points=[];" parent="-mcRDKc0zju_STvuJ2zb-16" vertex="1" connectable="0">
          <mxGeometry x="-0.2015" y="-3" relative="1" as="geometry">
            <mxPoint as="offset" />
          </mxGeometry>
        </mxCell>
        <mxCell id="-mcRDKc0zju_STvuJ2zb-22" style="edgeStyle=none;rounded=0;orthogonalLoop=1;jettySize=auto;html=1;endArrow=block;endFill=0;elbow=vertical;exitX=0.5;exitY=0;exitDx=0;exitDy=0;" parent="WIyWlLk6GJQsqaUBKTNV-1" source="Qcm55Ra_ggKID3NvQQV0-2" target="-mcRDKc0zju_STvuJ2zb-10" edge="1">
          <mxGeometry relative="1" as="geometry">
            <mxPoint x="1930" y="2340" as="sourcePoint" />
            <mxPoint x="1865" y="2197" as="targetPoint" />
          </mxGeometry>
        </mxCell>
        <mxCell id="-mcRDKc0zju_STvuJ2zb-23" value="Extends" style="edgeLabel;html=1;align=center;verticalAlign=middle;resizable=0;points=[];" parent="-mcRDKc0zju_STvuJ2zb-22" vertex="1" connectable="0">
          <mxGeometry x="-0.2015" y="-3" relative="1" as="geometry">
            <mxPoint as="offset" />
          </mxGeometry>
        </mxCell>
        <mxCell id="-mcRDKc0zju_STvuJ2zb-26" style="edgeStyle=none;rounded=0;orthogonalLoop=1;jettySize=auto;html=1;endArrow=block;endFill=0;elbow=vertical;exitX=0.5;exitY=0;exitDx=0;exitDy=0;entryX=0.927;entryY=1.029;entryDx=0;entryDy=0;entryPerimeter=0;" parent="WIyWlLk6GJQsqaUBKTNV-1" source="s4KalK-dnCNQf5f8MQ_Z-53" target="-mcRDKc0zju_STvuJ2zb-15" edge="1">
          <mxGeometry relative="1" as="geometry">
            <mxPoint x="1965" y="2287" as="sourcePoint" />
            <mxPoint x="1889.8400000000001" y="2210.008" as="targetPoint" />
          </mxGeometry>
        </mxCell>
        <mxCell id="-mcRDKc0zju_STvuJ2zb-28" value="Extends" style="edgeLabel;html=1;align=center;verticalAlign=middle;resizable=0;points=[];" parent="-mcRDKc0zju_STvuJ2zb-26" vertex="1" connectable="0">
          <mxGeometry x="0.0536" y="2" relative="1" as="geometry">
            <mxPoint as="offset" />
          </mxGeometry>
        </mxCell>
        <mxCell id="Qcm55Ra_ggKID3NvQQV0-25" style="edgeStyle=none;rounded=0;orthogonalLoop=1;jettySize=auto;html=1;exitX=0.5;exitY=0;exitDx=0;exitDy=0;startArrow=open;startFill=0;endArrow=circlePlus;endFill=0;" edge="1" parent="WIyWlLk6GJQsqaUBKTNV-1" source="-mcRDKc0zju_STvuJ2zb-33" target="s4KalK-dnCNQf5f8MQ_Z-53">
          <mxGeometry relative="1" as="geometry">
            <mxPoint x="2370" y="2370" as="targetPoint" />
          </mxGeometry>
        </mxCell>
        <mxCell id="-mcRDKc0zju_STvuJ2zb-33" value="&lt;&lt;enumeration&gt;&gt;&#xa;BasicStatus" style="swimlane;fontStyle=0;childLayout=stackLayout;horizontal=1;startSize=26;fillColor=#dae8fc;horizontalStack=0;resizeParent=1;resizeParentMax=0;resizeLast=0;collapsible=1;marginBottom=0;strokeColor=#6c8ebf;" parent="WIyWlLk6GJQsqaUBKTNV-1" vertex="1">
          <mxGeometry x="2200" y="2590" width="290" height="242" as="geometry" />
        </mxCell>
        <mxCell id="-mcRDKc0zju_STvuJ2zb-34" value="NOT_START(&quot;NOT_START&quot;, &quot;未开始&quot;, 0)" style="text;strokeColor=none;fillColor=none;align=left;verticalAlign=top;spacingLeft=4;spacingRight=4;overflow=hidden;rotatable=0;points=[[0,0.5],[1,0.5]];portConstraint=eastwest;" parent="-mcRDKc0zju_STvuJ2zb-33" vertex="1">
          <mxGeometry y="26" width="290" height="26" as="geometry" />
        </mxCell>
        <mxCell id="-mcRDKc0zju_STvuJ2zb-35" value="PROCESSING(&quot;PROCESSING&quot;, &quot;进行中&quot;, 1)" style="text;strokeColor=none;fillColor=none;align=left;verticalAlign=top;spacingLeft=4;spacingRight=4;overflow=hidden;rotatable=0;points=[[0,0.5],[1,0.5]];portConstraint=eastwest;" parent="-mcRDKc0zju_STvuJ2zb-33" vertex="1">
          <mxGeometry y="52" width="290" height="26" as="geometry" />
        </mxCell>
        <mxCell id="-mcRDKc0zju_STvuJ2zb-36" value="FINISHED(&quot;FINISHED&quot;, &quot;已完成&quot;, 2)" style="text;strokeColor=none;fillColor=none;align=left;verticalAlign=top;spacingLeft=4;spacingRight=4;overflow=hidden;rotatable=0;points=[[0,0.5],[1,0.5]];portConstraint=eastwest;" parent="-mcRDKc0zju_STvuJ2zb-33" vertex="1">
          <mxGeometry y="78" width="290" height="26" as="geometry" />
        </mxCell>
        <mxCell id="-mcRDKc0zju_STvuJ2zb-39" value="CLOSED(&quot;CLOSED&quot;, &quot;已关闭&quot;, 3)" style="text;strokeColor=none;fillColor=none;align=left;verticalAlign=top;spacingLeft=4;spacingRight=4;overflow=hidden;rotatable=0;points=[[0,0.5],[1,0.5]];portConstraint=eastwest;" parent="-mcRDKc0zju_STvuJ2zb-33" vertex="1">
          <mxGeometry y="104" width="290" height="26" as="geometry" />
        </mxCell>
        <mxCell id="-mcRDKc0zju_STvuJ2zb-38" value="TERMINATE(&quot;TERMINATE&quot;, &quot;已终止&quot;, 4)" style="text;strokeColor=none;fillColor=none;align=left;verticalAlign=top;spacingLeft=4;spacingRight=4;overflow=hidden;rotatable=0;points=[[0,0.5],[1,0.5]];portConstraint=eastwest;" parent="-mcRDKc0zju_STvuJ2zb-33" vertex="1">
          <mxGeometry y="130" width="290" height="26" as="geometry" />
        </mxCell>
        <mxCell id="-mcRDKc0zju_STvuJ2zb-40" value="" style="line;strokeWidth=1;fillColor=none;align=left;verticalAlign=middle;spacingTop=-1;spacingLeft=3;spacingRight=3;rotatable=0;labelPosition=right;points=[];portConstraint=eastwest;" parent="-mcRDKc0zju_STvuJ2zb-33" vertex="1">
          <mxGeometry y="156" width="290" height="8" as="geometry" />
        </mxCell>
        <mxCell id="-mcRDKc0zju_STvuJ2zb-41" value="- name: String " style="text;strokeColor=none;fillColor=none;align=left;verticalAlign=top;spacingLeft=4;spacingRight=4;overflow=hidden;rotatable=0;points=[[0,0.5],[1,0.5]];portConstraint=eastwest;" parent="-mcRDKc0zju_STvuJ2zb-33" vertex="1">
          <mxGeometry y="164" width="290" height="26" as="geometry" />
        </mxCell>
        <mxCell id="-mcRDKc0zju_STvuJ2zb-42" value="- displayName: String" style="text;strokeColor=none;fillColor=none;align=left;verticalAlign=top;spacingLeft=4;spacingRight=4;overflow=hidden;rotatable=0;points=[[0,0.5],[1,0.5]];portConstraint=eastwest;" parent="-mcRDKc0zju_STvuJ2zb-33" vertex="1">
          <mxGeometry y="190" width="290" height="26" as="geometry" />
        </mxCell>
        <mxCell id="-mcRDKc0zju_STvuJ2zb-43" value="- index: int" style="text;strokeColor=none;fillColor=none;align=left;verticalAlign=top;spacingLeft=4;spacingRight=4;overflow=hidden;rotatable=0;points=[[0,0.5],[1,0.5]];portConstraint=eastwest;" parent="-mcRDKc0zju_STvuJ2zb-33" vertex="1">
          <mxGeometry y="216" width="290" height="26" as="geometry" />
        </mxCell>
        <mxCell id="fS97ZJNERADpUr7Fis6X-41" value="DynamicColumnConfig" style="swimlane;fontStyle=0;childLayout=stackLayout;horizontal=1;startSize=26;fillColor=#e1d5e7;horizontalStack=0;resizeParent=1;resizeParentMax=0;resizeLast=0;collapsible=1;marginBottom=0;strokeColor=#9673a6;" parent="WIyWlLk6GJQsqaUBKTNV-1" vertex="1">
          <mxGeometry x="2165" y="1977" width="280" height="78" as="geometry" />
        </mxCell>
        <mxCell id="fS97ZJNERADpUr7Fis6X-42" value="- id: DynamicColumnConfig.ID    组合ID" style="text;strokeColor=none;fillColor=none;align=left;verticalAlign=top;spacingLeft=4;spacingRight=4;overflow=hidden;rotatable=0;points=[[0,0.5],[1,0.5]];portConstraint=eastwest;" parent="fS97ZJNERADpUr7Fis6X-41" vertex="1">
          <mxGeometry y="26" width="280" height="26" as="geometry" />
        </mxCell>
        <mxCell id="fS97ZJNERADpUr7Fis6X-43" value="- properties: Collection&lt;JSONObject&gt;    属性配置 " style="text;strokeColor=none;fillColor=none;align=left;verticalAlign=top;spacingLeft=4;spacingRight=4;overflow=hidden;rotatable=0;points=[[0,0.5],[1,0.5]];portConstraint=eastwest;" parent="fS97ZJNERADpUr7Fis6X-41" vertex="1">
          <mxGeometry y="52" width="280" height="26" as="geometry" />
        </mxCell>
        <mxCell id="-mcRDKc0zju_STvuJ2zb-49" style="rounded=0;orthogonalLoop=1;jettySize=auto;html=1;startArrow=none;startFill=0;endArrow=block;endFill=0;exitX=0.5;exitY=0;exitDx=0;exitDy=0;" parent="WIyWlLk6GJQsqaUBKTNV-1" source="B7V7IaM9gYt7S6QEFZPg-9" target="DC-7fMDGKw9MtQms55Px-23" edge="1">
          <mxGeometry relative="1" as="geometry">
            <mxPoint x="2170.967880184332" y="2002" as="sourcePoint" />
            <mxPoint x="2075.004746543779" y="1850" as="targetPoint" />
          </mxGeometry>
        </mxCell>
        <mxCell id="-mcRDKc0zju_STvuJ2zb-50" value="Extends" style="edgeLabel;html=1;align=center;verticalAlign=middle;resizable=0;points=[];" parent="-mcRDKc0zju_STvuJ2zb-49" vertex="1" connectable="0">
          <mxGeometry x="-0.1932" y="1" relative="1" as="geometry">
            <mxPoint as="offset" />
          </mxGeometry>
        </mxCell>
        <mxCell id="B7V7IaM9gYt7S6QEFZPg-40" value="ProjectRole" style="swimlane;fontStyle=0;childLayout=stackLayout;horizontal=1;startSize=26;fillColor=#d5e8d4;horizontalStack=0;resizeParent=1;resizeParentMax=0;resizeLast=0;collapsible=1;marginBottom=0;strokeColor=#82b366;" parent="WIyWlLk6GJQsqaUBKTNV-1" vertex="1">
          <mxGeometry x="2464" y="2279" width="240" height="52" as="geometry" />
        </mxCell>
        <mxCell id="B7V7IaM9gYt7S6QEFZPg-52" value="- members: Set&lt;UserId&gt;    用户" style="text;strokeColor=none;fillColor=none;align=left;verticalAlign=top;spacingLeft=4;spacingRight=4;overflow=hidden;rotatable=0;points=[[0,0.5],[1,0.5]];portConstraint=eastwest;" parent="B7V7IaM9gYt7S6QEFZPg-40" vertex="1">
          <mxGeometry y="26" width="240" height="26" as="geometry" />
        </mxCell>
        <mxCell id="B7V7IaM9gYt7S6QEFZPg-35" value="ProjectCalendar" style="swimlane;fontStyle=0;childLayout=stackLayout;horizontal=1;startSize=26;fillColor=#d5e8d4;horizontalStack=0;resizeParent=1;resizeParentMax=0;resizeLast=0;collapsible=1;marginBottom=0;strokeColor=#82b366;" parent="WIyWlLk6GJQsqaUBKTNV-1" vertex="1">
          <mxGeometry x="2835" y="2382" width="310" height="104" as="geometry" />
        </mxCell>
        <mxCell id="B7V7IaM9gYt7S6QEFZPg-36" value="- name: String    日历名称" style="text;strokeColor=none;fillColor=none;align=left;verticalAlign=top;spacingLeft=4;spacingRight=4;overflow=hidden;rotatable=0;points=[[0,0.5],[1,0.5]];portConstraint=eastwest;" parent="B7V7IaM9gYt7S6QEFZPg-35" vertex="1">
          <mxGeometry y="26" width="310" height="26" as="geometry" />
        </mxCell>
        <mxCell id="B7V7IaM9gYt7S6QEFZPg-38" value="- weeks: List&lt;CalendarWeek&gt;    工作周" style="text;strokeColor=none;fillColor=none;align=left;verticalAlign=top;spacingLeft=4;spacingRight=4;overflow=hidden;rotatable=0;points=[[0,0.5],[1,0.5]];portConstraint=eastwest;" parent="B7V7IaM9gYt7S6QEFZPg-35" vertex="1">
          <mxGeometry y="52" width="310" height="26" as="geometry" />
        </mxCell>
        <mxCell id="B7V7IaM9gYt7S6QEFZPg-37" value="- specialDates: List&lt;CalendarSpecialDate&gt;    特殊日期" style="text;strokeColor=none;fillColor=none;align=left;verticalAlign=top;spacingLeft=4;spacingRight=4;overflow=hidden;rotatable=0;points=[[0,0.5],[1,0.5]];portConstraint=eastwest;" parent="B7V7IaM9gYt7S6QEFZPg-35" vertex="1">
          <mxGeometry y="78" width="310" height="26" as="geometry" />
        </mxCell>
        <mxCell id="-mcRDKc0zju_STvuJ2zb-53" value="" style="rounded=0;orthogonalLoop=1;jettySize=auto;html=1;exitX=0.5;exitY=0;exitDx=0;exitDy=0;startArrow=none;startFill=0;endArrow=block;endFill=0;startSize=6;endSize=6;" parent="WIyWlLk6GJQsqaUBKTNV-1" source="DC-7fMDGKw9MtQms55Px-94" target="DC-7fMDGKw9MtQms55Px-87" edge="1">
          <mxGeometry relative="1" as="geometry">
            <mxPoint x="4790" y="2489" as="sourcePoint" />
            <mxPoint x="2849.999999999999" y="2081" as="targetPoint" />
          </mxGeometry>
        </mxCell>
        <mxCell id="-mcRDKc0zju_STvuJ2zb-59" value="Extends" style="edgeLabel;html=1;align=center;verticalAlign=middle;resizable=0;points=[];" parent="-mcRDKc0zju_STvuJ2zb-53" vertex="1" connectable="0">
          <mxGeometry x="0.2542" y="1" relative="1" as="geometry">
            <mxPoint as="offset" />
          </mxGeometry>
        </mxCell>
        <mxCell id="-mcRDKc0zju_STvuJ2zb-55" style="edgeStyle=none;rounded=0;orthogonalLoop=1;jettySize=auto;html=1;exitX=0;exitY=0.5;exitDx=0;exitDy=0;startArrow=open;startFill=0;endArrow=diamondThin;endFill=1;entryX=1;entryY=0.5;entryDx=0;entryDy=0;" parent="WIyWlLk6GJQsqaUBKTNV-1" source="B7V7IaM9gYt7S6QEFZPg-38" target="B7V7IaM9gYt7S6QEFZPg-48" edge="1">
          <mxGeometry relative="1" as="geometry" />
        </mxCell>
        <mxCell id="DC-7fMDGKw9MtQms55Px-94" value="CalendarTemplate" style="swimlane;fontStyle=0;childLayout=stackLayout;horizontal=1;startSize=26;fillColor=#e1d5e7;horizontalStack=0;resizeParent=1;resizeParentMax=0;resizeLast=0;collapsible=1;marginBottom=0;strokeColor=#9673a6;" parent="WIyWlLk6GJQsqaUBKTNV-1" vertex="1">
          <mxGeometry x="3165" y="2382" width="310" height="52" as="geometry" />
        </mxCell>
        <mxCell id="-mcRDKc0zju_STvuJ2zb-67" style="rounded=0;orthogonalLoop=1;jettySize=auto;html=1;startArrow=none;startFill=0;endArrow=block;endFill=0;" parent="WIyWlLk6GJQsqaUBKTNV-1" source="B7V7IaM9gYt7S6QEFZPg-16" target="DC-7fMDGKw9MtQms55Px-23" edge="1">
          <mxGeometry relative="1" as="geometry">
            <mxPoint x="2505" y="1987" as="sourcePoint" />
            <mxPoint x="2481.846590909091" y="1661.0000000000002" as="targetPoint" />
          </mxGeometry>
        </mxCell>
        <mxCell id="-mcRDKc0zju_STvuJ2zb-68" value="Extends" style="edgeLabel;html=1;align=center;verticalAlign=middle;resizable=0;points=[];" parent="-mcRDKc0zju_STvuJ2zb-67" vertex="1" connectable="0">
          <mxGeometry x="-0.1932" y="1" relative="1" as="geometry">
            <mxPoint as="offset" />
          </mxGeometry>
        </mxCell>
        <mxCell id="-mcRDKc0zju_STvuJ2zb-69" style="rounded=0;orthogonalLoop=1;jettySize=auto;html=1;exitX=0;exitY=0.5;exitDx=0;exitDy=0;startArrow=none;startFill=0;endArrow=block;endFill=0;" parent="WIyWlLk6GJQsqaUBKTNV-1" source="Q_YU3QJ79yXloyO7g1Ih-5" target="DC-7fMDGKw9MtQms55Px-23" edge="1">
          <mxGeometry relative="1" as="geometry" />
        </mxCell>
        <mxCell id="-mcRDKc0zju_STvuJ2zb-100" value="Extends" style="edgeLabel;html=1;align=center;verticalAlign=middle;resizable=0;points=[];" parent="-mcRDKc0zju_STvuJ2zb-69" vertex="1" connectable="0">
          <mxGeometry x="-0.2083" y="3" relative="1" as="geometry">
            <mxPoint as="offset" />
          </mxGeometry>
        </mxCell>
        <mxCell id="-mcRDKc0zju_STvuJ2zb-70" value="ProjectCategory" style="swimlane;fontStyle=0;childLayout=stackLayout;horizontal=1;startSize=26;fillColor=#e1d5e7;horizontalStack=0;resizeParent=1;resizeParentMax=0;resizeLast=0;collapsible=1;marginBottom=0;strokeColor=#9673a6;" parent="WIyWlLk6GJQsqaUBKTNV-1" vertex="1">
          <mxGeometry x="2115" y="2456" width="200" height="78" as="geometry" />
        </mxCell>
        <mxCell id="-mcRDKc0zju_STvuJ2zb-71" value="- description: String    描述" style="text;strokeColor=none;fillColor=none;align=left;verticalAlign=top;spacingLeft=4;spacingRight=4;overflow=hidden;rotatable=0;points=[[0,0.5],[1,0.5]];portConstraint=eastwest;" parent="-mcRDKc0zju_STvuJ2zb-70" vertex="1">
          <mxGeometry y="26" width="200" height="26" as="geometry" />
        </mxCell>
        <mxCell id="-mcRDKc0zju_STvuJ2zb-72" value="- parent: ProjectCategory    父节点" style="text;strokeColor=none;fillColor=none;align=left;verticalAlign=top;spacingLeft=4;spacingRight=4;overflow=hidden;rotatable=0;points=[[0,0.5],[1,0.5]];portConstraint=eastwest;" parent="-mcRDKc0zju_STvuJ2zb-70" vertex="1">
          <mxGeometry y="52" width="200" height="26" as="geometry" />
        </mxCell>
        <mxCell id="-mcRDKc0zju_STvuJ2zb-76" style="edgeStyle=none;rounded=0;orthogonalLoop=1;jettySize=auto;html=1;endArrow=block;endFill=0;elbow=vertical;entryX=0.792;entryY=1.03;entryDx=0;entryDy=0;entryPerimeter=0;" parent="WIyWlLk6GJQsqaUBKTNV-1" source="-mcRDKc0zju_STvuJ2zb-70" target="-mcRDKc0zju_STvuJ2zb-15" edge="1">
          <mxGeometry relative="1" as="geometry">
            <mxPoint x="1865" y="2284" as="sourcePoint" />
            <mxPoint x="1909.8399999999992" y="2210.0080000000003" as="targetPoint" />
          </mxGeometry>
        </mxCell>
        <mxCell id="-mcRDKc0zju_STvuJ2zb-77" value="Extends" style="edgeLabel;html=1;align=center;verticalAlign=middle;resizable=0;points=[];" parent="-mcRDKc0zju_STvuJ2zb-76" vertex="1" connectable="0">
          <mxGeometry x="-0.2015" y="-3" relative="1" as="geometry">
            <mxPoint as="offset" />
          </mxGeometry>
        </mxCell>
        <mxCell id="-mcRDKc0zju_STvuJ2zb-78" style="rounded=0;orthogonalLoop=1;jettySize=auto;html=1;startArrow=none;startFill=0;endArrow=block;endFill=0;" parent="WIyWlLk6GJQsqaUBKTNV-1" source="Hxi5oiMrbfGEEpM-4Bx1-54" target="DC-7fMDGKw9MtQms55Px-23" edge="1">
          <mxGeometry relative="1" as="geometry">
            <mxPoint x="2232.4296675191817" y="1987" as="sourcePoint" />
            <mxPoint x="2461.713554987212" y="1661" as="targetPoint" />
          </mxGeometry>
        </mxCell>
        <mxCell id="-mcRDKc0zju_STvuJ2zb-79" value="Extends" style="edgeLabel;html=1;align=center;verticalAlign=middle;resizable=0;points=[];" parent="-mcRDKc0zju_STvuJ2zb-78" vertex="1" connectable="0">
          <mxGeometry x="-0.1932" y="1" relative="1" as="geometry">
            <mxPoint as="offset" />
          </mxGeometry>
        </mxCell>
        <mxCell id="-mcRDKc0zju_STvuJ2zb-82" style="rounded=0;orthogonalLoop=1;jettySize=auto;html=1;endArrow=block;endFill=0;elbow=vertical;exitX=0.5;exitY=0;exitDx=0;exitDy=0;entryX=0.06;entryY=1.029;entryDx=0;entryDy=0;entryPerimeter=0;" parent="WIyWlLk6GJQsqaUBKTNV-1" source="4S57F3YJ-EKW5tLImAPO-16" target="-mcRDKc0zju_STvuJ2zb-15" edge="1">
          <mxGeometry relative="1" as="geometry">
            <mxPoint x="1684.8424411647393" y="2285" as="sourcePoint" />
            <mxPoint x="1865" y="2197" as="targetPoint" />
          </mxGeometry>
        </mxCell>
        <mxCell id="-mcRDKc0zju_STvuJ2zb-85" value="Extends" style="edgeLabel;html=1;align=center;verticalAlign=middle;resizable=0;points=[];" parent="-mcRDKc0zju_STvuJ2zb-82" vertex="1" connectable="0">
          <mxGeometry x="0.167" y="-2" relative="1" as="geometry">
            <mxPoint as="offset" />
          </mxGeometry>
        </mxCell>
        <mxCell id="-mcRDKc0zju_STvuJ2zb-89" style="rounded=0;orthogonalLoop=1;jettySize=auto;html=1;startArrow=none;startFill=0;endArrow=block;endFill=0;exitX=0.489;exitY=1.049;exitDx=0;exitDy=0;exitPerimeter=0;" parent="WIyWlLk6GJQsqaUBKTNV-1" source="xaXWIEfhId6lT726xvUP-5" target="DC-7fMDGKw9MtQms55Px-23" edge="1">
          <mxGeometry relative="1" as="geometry">
            <mxPoint x="2473.7555555555555" y="1523" as="sourcePoint" />
            <mxPoint x="2474.7111111111117" y="1609" as="targetPoint" />
          </mxGeometry>
        </mxCell>
        <mxCell id="-mcRDKc0zju_STvuJ2zb-90" value="Extends" style="edgeLabel;html=1;align=center;verticalAlign=middle;resizable=0;points=[];" parent="-mcRDKc0zju_STvuJ2zb-89" vertex="1" connectable="0">
          <mxGeometry x="-0.1932" y="1" relative="1" as="geometry">
            <mxPoint as="offset" />
          </mxGeometry>
        </mxCell>
        <mxCell id="-mcRDKc0zju_STvuJ2zb-91" value="&lt;&lt;enumeration&gt;&gt;&#xa;PlannedType" style="swimlane;fontStyle=0;childLayout=stackLayout;horizontal=1;startSize=26;fillColor=#dae8fc;horizontalStack=0;resizeParent=1;resizeParentMax=0;resizeLast=0;collapsible=1;marginBottom=0;strokeColor=#6c8ebf;" parent="WIyWlLk6GJQsqaUBKTNV-1" vertex="1">
          <mxGeometry x="1130" y="280" width="250" height="164" as="geometry" />
        </mxCell>
        <mxCell id="-mcRDKc0zju_STvuJ2zb-92" value="SUMMARY(&quot;SUMMARY&quot;, &quot;摘要&quot;)" style="text;strokeColor=none;fillColor=none;align=left;verticalAlign=top;spacingLeft=4;spacingRight=4;overflow=hidden;rotatable=0;points=[[0,0.5],[1,0.5]];portConstraint=eastwest;" parent="-mcRDKc0zju_STvuJ2zb-91" vertex="1">
          <mxGeometry y="26" width="250" height="26" as="geometry" />
        </mxCell>
        <mxCell id="-mcRDKc0zju_STvuJ2zb-93" value="TASK(&quot;TASK&quot;, &quot;任务&quot;)" style="text;strokeColor=none;fillColor=none;align=left;verticalAlign=top;spacingLeft=4;spacingRight=4;overflow=hidden;rotatable=0;points=[[0,0.5],[1,0.5]];portConstraint=eastwest;" parent="-mcRDKc0zju_STvuJ2zb-91" vertex="1">
          <mxGeometry y="52" width="250" height="26" as="geometry" />
        </mxCell>
        <mxCell id="-mcRDKc0zju_STvuJ2zb-94" value="MILESTONE(&quot;MILESTONE&quot;, &quot;里程碑&quot;)" style="text;strokeColor=none;fillColor=none;align=left;verticalAlign=top;spacingLeft=4;spacingRight=4;overflow=hidden;rotatable=0;points=[[0,0.5],[1,0.5]];portConstraint=eastwest;" parent="-mcRDKc0zju_STvuJ2zb-91" vertex="1">
          <mxGeometry y="78" width="250" height="26" as="geometry" />
        </mxCell>
        <mxCell id="-mcRDKc0zju_STvuJ2zb-95" value="" style="line;strokeWidth=1;fillColor=none;align=left;verticalAlign=middle;spacingTop=-1;spacingLeft=3;spacingRight=3;rotatable=0;labelPosition=right;points=[];portConstraint=eastwest;" parent="-mcRDKc0zju_STvuJ2zb-91" vertex="1">
          <mxGeometry y="104" width="250" height="8" as="geometry" />
        </mxCell>
        <mxCell id="-mcRDKc0zju_STvuJ2zb-96" value="- name: String" style="text;strokeColor=none;fillColor=none;align=left;verticalAlign=top;spacingLeft=4;spacingRight=4;overflow=hidden;rotatable=0;points=[[0,0.5],[1,0.5]];portConstraint=eastwest;" parent="-mcRDKc0zju_STvuJ2zb-91" vertex="1">
          <mxGeometry y="112" width="250" height="26" as="geometry" />
        </mxCell>
        <mxCell id="-mcRDKc0zju_STvuJ2zb-97" value="- displayName: String" style="text;strokeColor=none;fillColor=none;align=left;verticalAlign=top;spacingLeft=4;spacingRight=4;overflow=hidden;rotatable=0;points=[[0,0.5],[1,0.5]];portConstraint=eastwest;" parent="-mcRDKc0zju_STvuJ2zb-91" vertex="1">
          <mxGeometry y="138" width="250" height="26" as="geometry" />
        </mxCell>
        <mxCell id="-mcRDKc0zju_STvuJ2zb-101" style="rounded=0;orthogonalLoop=1;jettySize=auto;html=1;startArrow=none;startFill=0;endArrow=block;endFill=0;entryX=0.75;entryY=0;entryDx=0;entryDy=0;" parent="WIyWlLk6GJQsqaUBKTNV-1" source="Q_YU3QJ79yXloyO7g1Ih-19" target="DC-7fMDGKw9MtQms55Px-23" edge="1">
          <mxGeometry relative="1" as="geometry">
            <mxPoint x="3365" y="1527" as="sourcePoint" />
            <mxPoint x="2756.12" y="1627.3559999999998" as="targetPoint" />
          </mxGeometry>
        </mxCell>
        <mxCell id="-mcRDKc0zju_STvuJ2zb-102" value="Extends" style="edgeLabel;html=1;align=center;verticalAlign=middle;resizable=0;points=[];" parent="-mcRDKc0zju_STvuJ2zb-101" vertex="1" connectable="0">
          <mxGeometry x="-0.2083" y="3" relative="1" as="geometry">
            <mxPoint as="offset" />
          </mxGeometry>
        </mxCell>
        <mxCell id="-mcRDKc0zju_STvuJ2zb-103" value="&lt;&lt;enumeration&gt;&gt;&#xa;Type" style="swimlane;fontStyle=0;childLayout=stackLayout;horizontal=1;startSize=26;fillColor=none;horizontalStack=0;resizeParent=1;resizeParentMax=0;resizeLast=0;collapsible=1;marginBottom=0;" parent="WIyWlLk6GJQsqaUBKTNV-1" vertex="1">
          <mxGeometry x="3380" y="706" width="140" height="78" as="geometry" />
        </mxCell>
        <mxCell id="-mcRDKc0zju_STvuJ2zb-104" value="DOC_TEMPLATE" style="text;strokeColor=none;fillColor=none;align=left;verticalAlign=top;spacingLeft=4;spacingRight=4;overflow=hidden;rotatable=0;points=[[0,0.5],[1,0.5]];portConstraint=eastwest;" parent="-mcRDKc0zju_STvuJ2zb-103" vertex="1">
          <mxGeometry y="26" width="140" height="26" as="geometry" />
        </mxCell>
        <mxCell id="-mcRDKc0zju_STvuJ2zb-105" value="DOCUMENT" style="text;strokeColor=none;fillColor=none;align=left;verticalAlign=top;spacingLeft=4;spacingRight=4;overflow=hidden;rotatable=0;points=[[0,0.5],[1,0.5]];portConstraint=eastwest;" parent="-mcRDKc0zju_STvuJ2zb-103" vertex="1">
          <mxGeometry y="52" width="140" height="26" as="geometry" />
        </mxCell>
        <mxCell id="-mcRDKc0zju_STvuJ2zb-107" style="edgeStyle=orthogonalEdgeStyle;rounded=0;orthogonalLoop=1;jettySize=auto;html=1;exitX=0;exitY=0.5;exitDx=0;exitDy=0;startArrow=open;startFill=0;endArrow=circlePlus;endFill=0;" parent="WIyWlLk6GJQsqaUBKTNV-1" source="-mcRDKc0zju_STvuJ2zb-105" target="Q_YU3QJ79yXloyO7g1Ih-27" edge="1">
          <mxGeometry relative="1" as="geometry" />
        </mxCell>
        <mxCell id="-mcRDKc0zju_STvuJ2zb-108" style="rounded=0;orthogonalLoop=1;jettySize=auto;html=1;startArrow=none;startFill=0;endArrow=block;endFill=0;entryX=0.668;entryY=-0.019;entryDx=0;entryDy=0;entryPerimeter=0;" parent="WIyWlLk6GJQsqaUBKTNV-1" source="B7V7IaM9gYt7S6QEFZPg-54" target="DC-7fMDGKw9MtQms55Px-23" edge="1">
          <mxGeometry relative="1" as="geometry">
            <mxPoint x="3044.999999999999" y="1390.814814814815" as="sourcePoint" />
            <mxPoint x="2575" y="1597" as="targetPoint" />
          </mxGeometry>
        </mxCell>
        <mxCell id="-mcRDKc0zju_STvuJ2zb-109" value="Extends" style="edgeLabel;html=1;align=center;verticalAlign=middle;resizable=0;points=[];" parent="-mcRDKc0zju_STvuJ2zb-108" vertex="1" connectable="0">
          <mxGeometry x="-0.2083" y="3" relative="1" as="geometry">
            <mxPoint as="offset" />
          </mxGeometry>
        </mxCell>
        <mxCell id="-mcRDKc0zju_STvuJ2zb-112" style="edgeStyle=none;rounded=0;orthogonalLoop=1;jettySize=auto;html=1;exitX=0;exitY=0.5;exitDx=0;exitDy=0;startArrow=open;startFill=0;endArrow=diamondThin;endFill=1;entryX=1;entryY=0.5;entryDx=0;entryDy=0;" parent="WIyWlLk6GJQsqaUBKTNV-1" source="Q_YU3QJ79yXloyO7g1Ih-27" target="-mcRDKc0zju_STvuJ2zb-111" edge="1">
          <mxGeometry relative="1" as="geometry" />
        </mxCell>
        <mxCell id="Qcm55Ra_ggKID3NvQQV0-3" value="ManHourRecord" style="swimlane;fontStyle=0;childLayout=stackLayout;horizontal=1;startSize=26;fillColor=#e1d5e7;horizontalStack=0;resizeParent=1;resizeParentMax=0;resizeLast=0;collapsible=1;marginBottom=0;dashed=1;strokeColor=#9673a6;" vertex="1" parent="WIyWlLk6GJQsqaUBKTNV-1">
          <mxGeometry x="1845" y="1160" width="270" height="156" as="geometry" />
        </mxCell>
        <mxCell id="Qcm55Ra_ggKID3NvQQV0-4" value="- title: String    工时标题" style="text;strokeColor=none;fillColor=none;align=left;verticalAlign=top;spacingLeft=4;spacingRight=4;overflow=hidden;rotatable=0;points=[[0,0.5],[1,0.5]];portConstraint=eastwest;dashed=1;" vertex="1" parent="Qcm55Ra_ggKID3NvQQV0-3">
          <mxGeometry y="26" width="270" height="26" as="geometry" />
        </mxCell>
        <mxCell id="Qcm55Ra_ggKID3NvQQV0-5" value="- manhour: Double    工时" style="text;strokeColor=none;fillColor=none;align=left;verticalAlign=top;spacingLeft=4;spacingRight=4;overflow=hidden;rotatable=0;points=[[0,0.5],[1,0.5]];portConstraint=eastwest;dashed=1;" vertex="1" parent="Qcm55Ra_ggKID3NvQQV0-3">
          <mxGeometry y="52" width="270" height="26" as="geometry" />
        </mxCell>
        <mxCell id="Qcm55Ra_ggKID3NvQQV0-6" value="- type: ManHourTypeId    工时类型ID" style="text;strokeColor=none;fillColor=none;align=left;verticalAlign=top;spacingLeft=4;spacingRight=4;overflow=hidden;rotatable=0;points=[[0,0.5],[1,0.5]];portConstraint=eastwest;dashed=1;" vertex="1" parent="Qcm55Ra_ggKID3NvQQV0-3">
          <mxGeometry y="78" width="270" height="26" as="geometry" />
        </mxCell>
        <mxCell id="Qcm55Ra_ggKID3NvQQV0-7" value="- modelType: ModelType    工时隶属的对象类型" style="text;strokeColor=none;fillColor=none;align=left;verticalAlign=top;spacingLeft=4;spacingRight=4;overflow=hidden;rotatable=0;points=[[0,0.5],[1,0.5]];portConstraint=eastwest;" vertex="1" parent="Qcm55Ra_ggKID3NvQQV0-3">
          <mxGeometry y="104" width="270" height="26" as="geometry" />
        </mxCell>
        <mxCell id="Qcm55Ra_ggKID3NvQQV0-8" value="- modelId: ID    所属对象ID" style="text;strokeColor=none;fillColor=none;align=left;verticalAlign=top;spacingLeft=4;spacingRight=4;overflow=hidden;rotatable=0;points=[[0,0.5],[1,0.5]];portConstraint=eastwest;fontStyle=1" vertex="1" parent="Qcm55Ra_ggKID3NvQQV0-3">
          <mxGeometry y="130" width="270" height="26" as="geometry" />
        </mxCell>
        <mxCell id="Qcm55Ra_ggKID3NvQQV0-9" value="&lt;&lt;enumeration&gt;&gt;&#xa;ModelType" style="swimlane;fontStyle=0;childLayout=stackLayout;horizontal=1;startSize=26;fillColor=none;horizontalStack=0;resizeParent=1;resizeParentMax=0;resizeLast=0;collapsible=1;marginBottom=0;dashed=1;" vertex="1" parent="WIyWlLk6GJQsqaUBKTNV-1">
          <mxGeometry x="1640" y="1238" width="140" height="130" as="geometry" />
        </mxCell>
        <mxCell id="Qcm55Ra_ggKID3NvQQV0-10" value="TASK" style="text;strokeColor=none;fillColor=none;align=left;verticalAlign=top;spacingLeft=4;spacingRight=4;overflow=hidden;rotatable=0;points=[[0,0.5],[1,0.5]];portConstraint=eastwest;dashed=1;" vertex="1" parent="Qcm55Ra_ggKID3NvQQV0-9">
          <mxGeometry y="26" width="140" height="26" as="geometry" />
        </mxCell>
        <mxCell id="Qcm55Ra_ggKID3NvQQV0-11" value="ISSUE" style="text;strokeColor=none;fillColor=none;align=left;verticalAlign=top;spacingLeft=4;spacingRight=4;overflow=hidden;rotatable=0;points=[[0,0.5],[1,0.5]];portConstraint=eastwest;dashed=1;" vertex="1" parent="Qcm55Ra_ggKID3NvQQV0-9">
          <mxGeometry y="52" width="140" height="26" as="geometry" />
        </mxCell>
        <mxCell id="Qcm55Ra_ggKID3NvQQV0-12" value="RISK" style="text;strokeColor=none;fillColor=none;align=left;verticalAlign=top;spacingLeft=4;spacingRight=4;overflow=hidden;rotatable=0;points=[[0,0.5],[1,0.5]];portConstraint=eastwest;dashed=1;" vertex="1" parent="Qcm55Ra_ggKID3NvQQV0-9">
          <mxGeometry y="78" width="140" height="26" as="geometry" />
        </mxCell>
        <mxCell id="Qcm55Ra_ggKID3NvQQV0-14" value="PROJECT" style="text;strokeColor=none;fillColor=none;align=left;verticalAlign=top;spacingLeft=4;spacingRight=4;overflow=hidden;rotatable=0;points=[[0,0.5],[1,0.5]];portConstraint=eastwest;dashed=1;" vertex="1" parent="Qcm55Ra_ggKID3NvQQV0-9">
          <mxGeometry y="104" width="140" height="26" as="geometry" />
        </mxCell>
        <mxCell id="Qcm55Ra_ggKID3NvQQV0-13" style="rounded=0;orthogonalLoop=1;jettySize=auto;html=1;entryX=0;entryY=0.5;entryDx=0;entryDy=0;startArrow=open;startFill=0;endArrow=circlePlus;endFill=0;" edge="1" parent="WIyWlLk6GJQsqaUBKTNV-1" source="Qcm55Ra_ggKID3NvQQV0-9" target="Qcm55Ra_ggKID3NvQQV0-8">
          <mxGeometry relative="1" as="geometry" />
        </mxCell>
        <mxCell id="Qcm55Ra_ggKID3NvQQV0-15" style="rounded=0;orthogonalLoop=1;jettySize=auto;html=1;startArrow=none;startFill=0;endArrow=block;endFill=0;" edge="1" parent="WIyWlLk6GJQsqaUBKTNV-1" source="Qcm55Ra_ggKID3NvQQV0-3" target="DC-7fMDGKw9MtQms55Px-23">
          <mxGeometry relative="1" as="geometry" />
        </mxCell>
        <mxCell id="Qcm55Ra_ggKID3NvQQV0-16" value="Extends" style="edgeLabel;html=1;align=center;verticalAlign=middle;resizable=0;points=[];" vertex="1" connectable="0" parent="Qcm55Ra_ggKID3NvQQV0-15">
          <mxGeometry x="-0.2183" relative="1" as="geometry">
            <mxPoint as="offset" />
          </mxGeometry>
        </mxCell>
        <mxCell id="Qcm55Ra_ggKID3NvQQV0-17" value="ManHourType" style="swimlane;fontStyle=0;childLayout=stackLayout;horizontal=1;startSize=26;fillColor=#e1d5e7;horizontalStack=0;resizeParent=1;resizeParentMax=0;resizeLast=0;collapsible=1;marginBottom=0;dashed=1;strokeColor=#9673a6;" vertex="1" parent="WIyWlLk6GJQsqaUBKTNV-1">
          <mxGeometry x="1667" y="2406" width="160" height="52" as="geometry" />
        </mxCell>
      </root>
    </mxGraphModel>
  </diagram>
</mxfile>
